<svg width="64" height="64" viewBox="0 0 64 64" fill="none" xmlns="http://www.w3.org/2000/svg">
<g id="vuesax/linear/buildings-2">
<g id="buildings-2">
<path id="Vector" d="M17.8669 48.0002H11.0669C7.25356 48.0002 5.3335 46.0801 5.3335 42.2668V11.0669C5.3335 7.25356 7.25356 5.3335 11.0669 5.3335H22.5335C26.3469 5.3335 28.2668 7.25356 28.2668 11.0669V16.0002" stroke="url(#paint0_linear_485_662)" stroke-width="4.13889" stroke-miterlimit="10" stroke-linecap="round" stroke-linejoin="round"/>
<path id="Vector_2" d="M46.3205 22.4533V52.2134C46.3205 56.5067 44.1872 58.6667 39.8939 58.6667H24.3205C20.0271 58.6667 17.8672 56.5067 17.8672 52.2134V22.4533C17.8672 18.16 20.0271 16 24.3205 16H39.8939C44.1872 16 46.3205 18.16 46.3205 22.4533Z" stroke="url(#paint1_linear_485_662)" stroke-width="4.13889" stroke-miterlimit="10" stroke-linecap="round" stroke-linejoin="round"/>
<path id="Vector_3" d="M35.7334 16.0002V11.0669C35.7334 7.25356 37.6533 5.3335 41.4666 5.3335H52.9333C56.7466 5.3335 58.6667 7.25356 58.6667 11.0669V42.2668C58.6667 46.0801 56.7466 48.0002 52.9333 48.0002H46.32" stroke="url(#paint2_linear_485_662)" stroke-width="4.13889" stroke-miterlimit="10" stroke-linecap="round" stroke-linejoin="round"/>
<path id="Vector_4" d="M26.6665 29.333H37.3332" stroke="url(#paint3_linear_485_662)" stroke-width="4.13889" stroke-miterlimit="10" stroke-linecap="round" stroke-linejoin="round"/>
<path id="Vector_5" d="M26.6665 37.333H37.3332" stroke="url(#paint4_linear_485_662)" stroke-width="4.13889" stroke-miterlimit="10" stroke-linecap="round" stroke-linejoin="round"/>
<path id="Vector_6" d="M31.9995 58.667V50.667" stroke="#F4E484" stroke-width="3.10417" stroke-miterlimit="10" stroke-linecap="round" stroke-linejoin="round"/>
</g>
</g>
<defs>
<linearGradient id="paint0_linear_485_662" x1="5.3335" y1="48.0002" x2="29.0301" y2="47.5719" gradientUnits="userSpaceOnUse">
<stop stop-color="#F9F295"/>
<stop offset="0.348958" stop-color="#E0AA3E"/>
<stop offset="0.703125" stop-color="#FAF398"/>
<stop offset="1" stop-color="#B88A44"/>
</linearGradient>
<linearGradient id="paint1_linear_485_662" x1="17.8672" y1="58.6667" x2="47.2624" y2="58.0076" gradientUnits="userSpaceOnUse">
<stop stop-color="#F9F295"/>
<stop offset="0.348958" stop-color="#E0AA3E"/>
<stop offset="0.703125" stop-color="#FAF398"/>
<stop offset="1" stop-color="#B88A44"/>
</linearGradient>
<linearGradient id="paint2_linear_485_662" x1="35.7334" y1="48.0002" x2="59.43" y2="47.5719" gradientUnits="userSpaceOnUse">
<stop stop-color="#F9F295"/>
<stop offset="0.348958" stop-color="#E0AA3E"/>
<stop offset="0.703125" stop-color="#FAF398"/>
<stop offset="1" stop-color="#B88A44"/>
</linearGradient>
<linearGradient id="paint3_linear_485_662" x1="26.6665" y1="30.333" x2="36.4353" y2="26.8295" gradientUnits="userSpaceOnUse">
<stop stop-color="#F9F295"/>
<stop offset="0.348958" stop-color="#E0AA3E"/>
<stop offset="0.703125" stop-color="#FAF398"/>
<stop offset="1" stop-color="#B88A44"/>
</linearGradient>
<linearGradient id="paint4_linear_485_662" x1="26.6665" y1="38.333" x2="36.4353" y2="34.8295" gradientUnits="userSpaceOnUse">
<stop stop-color="#F9F295"/>
<stop offset="0.348958" stop-color="#E0AA3E"/>
<stop offset="0.703125" stop-color="#FAF398"/>
<stop offset="1" stop-color="#B88A44"/>
</linearGradient>
</defs>
</svg>
