<svg width="64" height="64" viewBox="0 0 64 64" fill="none" xmlns="http://www.w3.org/2000/svg">
<g id="vuesax/linear/briefcase">
<g id="briefcase">
<path id="Vector" d="M21.3335 58.6667H42.6669C53.3869 58.6667 55.3069 54.3733 55.8669 49.1467L57.8669 27.8133C58.5869 21.3067 56.7202 16 45.3335 16H18.6669C7.28019 16 5.41352 21.3067 6.13352 27.8133L8.13352 49.1467C8.69352 54.3733 10.6135 58.6667 21.3335 58.6667Z" stroke="url(#paint0_linear_485_740)" stroke-width="4.13889" stroke-miterlimit="10" stroke-linecap="round" stroke-linejoin="round"/>
<path id="Vector_2" d="M21.333 16.0002V13.8668C21.333 9.14683 21.333 5.3335 29.8663 5.3335H34.133C42.6663 5.3335 42.6663 9.14683 42.6663 13.8668V16.0002" stroke="url(#paint1_linear_485_740)" stroke-width="4.13889" stroke-miterlimit="10" stroke-linecap="round" stroke-linejoin="round"/>
<path id="Vector_3" d="M37.3332 34.6662V37.3328C37.3332 37.3595 37.3332 37.3595 37.3332 37.3862C37.3332 40.2928 37.3065 42.6662 31.9998 42.6662C26.7198 42.6662 26.6665 40.3195 26.6665 37.4128V34.6662C26.6665 31.9995 26.6665 31.9995 29.3332 31.9995H34.6665C37.3332 31.9995 37.3332 31.9995 37.3332 34.6662Z" stroke="url(#paint2_linear_485_740)" stroke-width="4.13889" stroke-miterlimit="10" stroke-linecap="round" stroke-linejoin="round"/>
<path id="Vector_4" d="M57.733 29.333C51.573 33.813 44.533 36.4797 37.333 37.3863" stroke="url(#paint3_linear_485_740)" stroke-width="4.13889" stroke-miterlimit="10" stroke-linecap="round" stroke-linejoin="round"/>
<path id="Vector_5" d="M6.98633 30.0532C12.9863 34.1599 19.7597 36.6399 26.6663 37.4132" stroke="url(#paint4_linear_485_740)" stroke-width="4.13889" stroke-miterlimit="10" stroke-linecap="round" stroke-linejoin="round"/>
</g>
</g>
<defs>
<linearGradient id="paint0_linear_485_740" x1="5.99805" y1="58.6667" x2="59.6607" y2="56.4675" gradientUnits="userSpaceOnUse">
<stop stop-color="#F9F295"/>
<stop offset="0.348958" stop-color="#E0AA3E"/>
<stop offset="0.703125" stop-color="#FAF398"/>
<stop offset="1" stop-color="#B88A44"/>
</linearGradient>
<linearGradient id="paint1_linear_485_740" x1="21.333" y1="16.0002" x2="43.2844" y2="14.524" gradientUnits="userSpaceOnUse">
<stop stop-color="#F9F295"/>
<stop offset="0.348958" stop-color="#E0AA3E"/>
<stop offset="0.703125" stop-color="#FAF398"/>
<stop offset="1" stop-color="#B88A44"/>
</linearGradient>
<linearGradient id="paint2_linear_485_740" x1="26.6665" y1="42.6662" x2="37.6794" y2="42.2959" gradientUnits="userSpaceOnUse">
<stop stop-color="#F9F295"/>
<stop offset="0.348958" stop-color="#E0AA3E"/>
<stop offset="0.703125" stop-color="#FAF398"/>
<stop offset="1" stop-color="#B88A44"/>
</linearGradient>
<linearGradient id="paint3_linear_485_740" x1="37.333" y1="37.3863" x2="58.2671" y2="35.6034" gradientUnits="userSpaceOnUse">
<stop stop-color="#F9F295"/>
<stop offset="0.348958" stop-color="#E0AA3E"/>
<stop offset="0.703125" stop-color="#FAF398"/>
<stop offset="1" stop-color="#B88A44"/>
</linearGradient>
<linearGradient id="paint4_linear_485_740" x1="6.98633" y1="37.4132" x2="27.1649" y2="35.5991" gradientUnits="userSpaceOnUse">
<stop stop-color="#F9F295"/>
<stop offset="0.348958" stop-color="#E0AA3E"/>
<stop offset="0.703125" stop-color="#FAF398"/>
<stop offset="1" stop-color="#B88A44"/>
</linearGradient>
</defs>
</svg>
