<svg width="20" height="20" viewBox="0 0 20 20" fill="none" xmlns="http://www.w3.org/2000/svg">
<path d="M6.875 11.667C6.875 11.3218 7.15482 11.042 7.5 11.042H12.5C12.8452 11.042 13.125 11.3218 13.125 11.667C13.125 12.0122 12.8452 12.292 12.5 12.292H7.5C7.15482 12.292 6.875 12.0122 6.875 11.667Z" fill="url(#paint0_linear_543_857)"/>
<path fill-rule="evenodd" clip-rule="evenodd" d="M7.5 1.04199C7.84518 1.04199 8.125 1.32181 8.125 1.66699V2.7175C8.6827 2.70866 9.30236 2.70866 9.99079 2.70866H10.0092C10.6976 2.70866 11.3173 2.70866 11.875 2.7175V1.66699C11.875 1.32181 12.1548 1.04199 12.5 1.04199C12.8452 1.04199 13.125 1.32181 13.125 1.66699V2.76164C14.3849 2.84063 15.3529 3.04478 16.1498 3.62379C16.5566 3.91933 16.9143 4.27707 17.2099 4.68385C17.8781 5.60357 18.047 6.75106 18.1005 8.31226C18.125 9.0266 18.125 9.85775 18.125 10.8245V10.8428C18.125 11.8096 18.125 12.6407 18.1005 13.3551C18.047 14.9163 17.8781 16.0637 17.2099 16.9835C16.9143 17.3903 16.5566 17.748 16.1498 18.0435C15.2301 18.7117 14.0826 18.8807 12.5214 18.9342C11.807 18.9587 10.9758 18.9587 10.009 18.9587H9.96227C8.43184 18.9587 7.23217 18.9587 6.2804 18.8556C5.30912 18.7503 4.52213 18.5317 3.8502 18.0435C3.44341 17.748 3.08568 17.3903 2.79013 16.9835C2.30194 16.3115 2.08334 15.5245 1.97811 14.5533C1.87499 13.6015 1.87499 12.4018 1.875 10.8714L1.875 10.8244C1.875 9.85773 1.875 9.02659 1.89947 8.31226C1.95296 6.75105 2.12191 5.60357 2.79013 4.68385C3.08568 4.27707 3.44341 3.91933 3.8502 3.62379C4.64713 3.04478 5.61507 2.84063 6.875 2.76164V1.66699C6.875 1.32181 7.15482 1.04199 7.5 1.04199ZM6.875 4.0147C5.73996 4.09276 5.08481 4.27187 4.58493 4.63506C4.28426 4.85351 4.01985 5.11792 3.8014 5.41859C3.43821 5.91847 3.2591 6.57362 3.18104 7.70866H16.819C16.7409 6.57362 16.5618 5.91847 16.1986 5.41859C15.9802 5.11792 15.7157 4.85351 15.4151 4.63506C14.9152 4.27187 14.26 4.09276 13.125 4.0147V4.16699C13.125 4.51217 12.8452 4.79199 12.5 4.79199C12.1548 4.79199 11.875 4.51217 11.875 4.16699V3.96765C11.3253 3.9587 10.7063 3.95866 10 3.95866C9.29369 3.95866 8.67465 3.9587 8.125 3.96765V4.16699C8.125 4.51217 7.84518 4.79199 7.5 4.79199C7.15482 4.79199 6.875 4.51217 6.875 4.16699V4.0147ZM16.866 8.95866H3.13399C3.12504 9.50831 3.125 10.1274 3.125 10.8337C3.125 12.41 3.12586 13.542 3.22083 14.4186C3.31454 15.2835 3.49383 15.8254 3.8014 16.2487C4.01985 16.5494 4.28426 16.8138 4.58493 17.0323C5.00826 17.3398 5.55011 17.5191 6.41504 17.6128C7.29166 17.7078 8.42369 17.7087 10 17.7087C10.707 17.7087 11.3265 17.7086 11.8765 17.6996C11.8802 17.3041 11.8925 17.0129 11.934 16.7507C12.2587 14.7004 13.8668 13.0924 15.9171 12.7677C16.1793 12.7261 16.4704 12.7138 16.866 12.7102C16.875 12.1601 16.875 11.5406 16.875 10.8337C16.875 10.1274 16.875 9.50831 16.866 8.95866ZM16.8188 13.961C16.4813 13.9649 16.2835 13.9752 16.1126 14.0023C14.5972 14.2423 13.4086 15.4308 13.1686 16.9463C13.1415 17.1171 13.1312 17.315 13.1273 17.6525C14.2609 17.5743 14.9155 17.3952 15.4151 17.0323C15.7157 16.8138 15.9802 16.5494 16.1986 16.2487C16.5615 15.7492 16.7407 15.0946 16.8188 13.961Z" fill="url(#paint1_linear_543_857)"/>
<defs>
<linearGradient id="paint0_linear_543_857" x1="1.875" y1="1.04199" x2="19.3557" y2="2.33624" gradientUnits="userSpaceOnUse">
<stop stop-color="#FFF066"/>
<stop offset="1" stop-color="#FFB72D"/>
</linearGradient>
<linearGradient id="paint1_linear_543_857" x1="1.875" y1="1.04199" x2="19.3557" y2="2.33624" gradientUnits="userSpaceOnUse">
<stop stop-color="#FFF066"/>
<stop offset="1" stop-color="#FFB72D"/>
</linearGradient>
</defs>
</svg>
