<svg width="268" height="36" viewBox="0 0 268 36" fill="none" xmlns="http://www.w3.org/2000/svg">
<path d="M17.0489 2.92705C17.3483 2.00574 18.6517 2.00574 18.9511 2.92705L21.8167 11.7467C21.9506 12.1587 22.3346 12.4377 22.7678 12.4377H32.0413C33.0101 12.4377 33.4128 13.6773 32.6291 14.2467L25.1267 19.6976C24.7762 19.9522 24.6295 20.4036 24.7634 20.8156L27.6291 29.6353C27.9284 30.5566 26.874 31.3227 26.0902 30.7533L18.5878 25.3024C18.2373 25.0478 17.7627 25.0478 17.4122 25.3024L9.90976 30.7533C9.12605 31.3227 8.07157 30.5566 8.37092 29.6353L11.2366 20.8156C11.3705 20.4036 11.2238 19.9522 10.8733 19.6976L3.37088 14.2467C2.58717 13.6773 2.98994 12.4377 3.95867 12.4377H13.2322C13.6654 12.4377 14.0494 12.1587 14.1833 11.7467L17.0489 2.92705Z" fill="#FFB72D"/>
<path d="M75.0489 2.92705C75.3483 2.00574 76.6517 2.00574 76.9511 2.92705L79.8167 11.7467C79.9506 12.1587 80.3346 12.4377 80.7678 12.4377H90.0413C91.0101 12.4377 91.4128 13.6773 90.6291 14.2467L83.1267 19.6976C82.7762 19.9522 82.6295 20.4036 82.7634 20.8156L85.6291 29.6353C85.9284 30.5566 84.874 31.3227 84.0902 30.7533L76.5878 25.3024C76.2373 25.0478 75.7627 25.0478 75.4122 25.3024L67.9098 30.7533C67.1261 31.3227 66.0716 30.5566 66.3709 29.6353L69.2366 20.8156C69.3705 20.4036 69.2238 19.9522 68.8733 19.6976L61.3709 14.2467C60.5872 13.6773 60.9899 12.4377 61.9587 12.4377H71.2322C71.6654 12.4377 72.0494 12.1587 72.1833 11.7467L75.0489 2.92705Z" fill="#FFB72D"/>
<path d="M133.049 2.92705C133.348 2.00574 134.652 2.00574 134.951 2.92705L137.817 11.7467C137.951 12.1587 138.335 12.4377 138.768 12.4377H148.041C149.01 12.4377 149.413 13.6773 148.629 14.2467L141.127 19.6976C140.776 19.9522 140.63 20.4036 140.763 20.8156L143.629 29.6353C143.928 30.5566 142.874 31.3227 142.09 30.7533L134.588 25.3024C134.237 25.0478 133.763 25.0478 133.412 25.3024L125.91 30.7533C125.126 31.3227 124.072 30.5566 124.371 29.6353L127.237 20.8156C127.37 20.4036 127.224 19.9522 126.873 19.6976L119.371 14.2467C118.587 13.6773 118.99 12.4377 119.959 12.4377H129.232C129.665 12.4377 130.049 12.1587 130.183 11.7467L133.049 2.92705Z" fill="#FFB72D"/>
<path d="M191.049 2.92705C191.348 2.00574 192.652 2.00574 192.951 2.92705L195.817 11.7467C195.951 12.1587 196.335 12.4377 196.768 12.4377H206.041C207.01 12.4377 207.413 13.6773 206.629 14.2467L199.127 19.6976C198.776 19.9522 198.63 20.4036 198.763 20.8156L201.629 29.6353C201.928 30.5566 200.874 31.3227 200.09 30.7533L192.588 25.3024C192.237 25.0478 191.763 25.0478 191.412 25.3024L183.91 30.7533C183.126 31.3227 182.072 30.5566 182.371 29.6353L185.237 20.8156C185.37 20.4036 185.224 19.9522 184.873 19.6976L177.371 14.2467C176.587 13.6773 176.99 12.4377 177.959 12.4377H187.232C187.665 12.4377 188.049 12.1587 188.183 11.7467L191.049 2.92705Z" fill="#FFB72D"/>
<path d="M249.049 2.92705C249.348 2.00574 250.652 2.00574 250.951 2.92705L253.817 11.7467C253.951 12.1587 254.335 12.4377 254.768 12.4377H264.041C265.01 12.4377 265.413 13.6773 264.629 14.2467L257.127 19.6976C256.776 19.9522 256.63 20.4036 256.763 20.8156L259.629 29.6353C259.928 30.5566 258.874 31.3227 258.09 30.7533L250.588 25.3024C250.237 25.0478 249.763 25.0478 249.412 25.3024L241.91 30.7533C241.126 31.3227 240.072 30.5566 240.371 29.6353L243.237 20.8156C243.37 20.4036 243.224 19.9522 242.873 19.6976L235.371 14.2467C234.587 13.6773 234.99 12.4377 235.959 12.4377H245.232C245.665 12.4377 246.049 12.1587 246.183 11.7467L249.049 2.92705Z" fill="#FFB72D"/>
</svg>
