<svg width="20" height="20" viewBox="0 0 20 20" fill="none" xmlns="http://www.w3.org/2000/svg">
<g opacity="0.8">
<path d="M4.9736 1.53006C5.24314 1.31443 5.28684 0.92112 5.07121 0.651581C4.85558 0.382042 4.46228 0.338341 4.19274 0.553972L2.1094 2.22064C1.83986 2.43627 1.79616 2.82958 2.01179 3.09912C2.22743 3.36865 2.62073 3.41236 2.89027 3.19672L4.9736 1.53006Z" fill="white"/>
<path d="M15.8069 0.553972C15.5374 0.338341 15.1441 0.382042 14.9285 0.651581C14.7128 0.92112 14.7565 1.31443 15.0261 1.53006L17.1094 3.19672C17.3789 3.41236 17.7723 3.36865 17.9879 3.09912C18.2035 2.82958 18.1598 2.43627 17.8903 2.22064L15.8069 0.553972Z" fill="white"/>
<path d="M10.6248 6.66702C10.6248 6.32184 10.345 6.04202 9.99984 6.04202C9.65466 6.04202 9.37484 6.32184 9.37484 6.66702L9.37484 9.3248L8.77511 8.72507C8.53104 8.481 8.13531 8.481 7.89123 8.72507C7.64715 8.96915 7.64715 9.36488 7.89123 9.60896L9.14123 10.859C9.68872 11.4064 10.6248 11.0187 10.6248 10.2444L10.6248 6.66702Z" fill="white"/>
<path fill-rule="evenodd" clip-rule="evenodd" d="M9.99984 1.04202C5.05229 1.04202 1.0415 5.0528 1.0415 10.0003C1.0415 14.9479 5.05229 18.9587 9.99984 18.9587C14.9474 18.9587 18.9582 14.9479 18.9582 10.0003C18.9582 5.0528 14.9474 1.04202 9.99984 1.04202ZM2.2915 10.0003C2.2915 5.74315 5.74264 2.29202 9.99984 2.29202C14.257 2.29202 17.7082 5.74315 17.7082 10.0003C17.7082 14.2575 14.257 17.7087 9.99984 17.7087C5.74264 17.7087 2.2915 14.2575 2.2915 10.0003Z" fill="white"/>
</g>
</svg>
