<svg width="20" height="24" viewBox="0 0 20 24" fill="none" xmlns="http://www.w3.org/2000/svg">
<path d="M4.14977 23.0149C3.87527 22.8584 3.78677 22.6984 3.84727 22.4679C3.89727 22.2734 4.06327 22.1569 4.30577 22.1554C4.73427 22.1524 5.16277 22.1554 5.59777 22.1554C5.60346 21.9866 5.61781 21.8182 5.64077 21.6509C5.75427 21.0509 6.21577 20.6329 6.82927 20.5924C7.17227 20.5694 7.51777 20.5889 7.86177 20.5774C7.896 20.5737 7.92908 20.563 7.95888 20.5457C7.98868 20.5285 8.01453 20.5052 8.03477 20.4774C8.07777 20.4074 8.08477 20.3144 8.10327 20.2309C8.24127 19.6459 8.37877 19.0614 8.52377 18.4454H8.24977C6.13377 18.4454 4.0181 18.4454 1.90277 18.4454C1.04177 18.4454 0.384268 18.0129 0.140268 17.2679C0.072253 17.0494 0.0385191 16.8217 0.0402676 16.5929C0.0342676 12.9644 0.0442675 9.33538 0.0312675 5.70688C0.0267675 4.57538 0.888768 3.83838 1.89977 3.84388C5.66477 3.86538 9.42977 3.85088 13.1948 3.85688C13.3748 3.85688 13.4778 3.80238 13.5753 3.65288C13.9943 3.01088 14.4103 2.36538 14.8603 1.74538C15.2898 1.14988 15.9043 0.899879 16.6293 1.00988C17.3893 1.12388 17.9043 1.56738 18.1498 2.29988C18.2998 2.74538 18.2658 3.18988 18.0843 3.62288C18.0573 3.68688 18.0273 3.74988 17.9843 3.84288L18.2983 3.85688C18.7179 3.87115 19.1178 4.03851 19.4225 4.32737C19.7272 4.61623 19.9156 5.00662 19.9523 5.42488C19.9618 5.52488 19.9673 5.62488 19.9673 5.72488C19.9673 9.33888 19.9673 12.9532 19.9673 16.5679C19.9673 17.4984 19.4673 18.1849 18.6318 18.3839C18.4356 18.4257 18.2353 18.4448 18.0348 18.4409C15.9478 18.4442 13.8609 18.4442 11.7743 18.4409H11.4848C11.5263 18.6309 11.5613 18.8024 11.6013 18.9719C11.7118 19.4389 11.8338 19.9034 11.9318 20.3719C11.9678 20.5424 12.0403 20.5909 12.2053 20.5819C12.4553 20.5689 12.7053 20.5779 12.9583 20.5789C13.8503 20.5789 14.3793 21.1024 14.3893 21.9889V22.1519H15.6323C15.9323 22.1519 16.1003 22.2549 16.1553 22.4649C16.2158 22.6949 16.1273 22.8554 15.8553 23.0124L4.14977 23.0149ZM12.8568 4.71488H1.90327C1.23577 4.71488 0.896767 5.05188 0.896767 5.71888C0.896767 8.33655 0.896767 10.9532 0.896767 13.5689V13.8189C1.31127 13.8189 1.69677 13.8129 2.08327 13.8214C2.37727 13.8279 2.56577 14.0144 2.55677 14.2669C2.54777 14.5194 2.36677 14.6719 2.07577 14.6784C1.91827 14.6814 1.76027 14.6784 1.60277 14.6784H0.912268C0.905268 14.7624 0.896767 14.8179 0.896767 14.8739C0.896767 15.4549 0.892767 16.0354 0.896767 16.6164C0.900767 17.2209 1.25727 17.5779 1.86577 17.5784C7.2871 17.5804 12.7086 17.5804 18.1303 17.5784C18.7493 17.5784 19.1033 17.2204 19.1068 16.6019C19.1103 16.0569 19.1068 15.5119 19.1068 14.9664C19.1068 14.6789 19.1068 14.6784 18.8163 14.6784H5.79977C5.70671 14.6811 5.61357 14.6787 5.52077 14.6714C5.42015 14.6618 5.32633 14.6164 5.25643 14.5434C5.18654 14.4704 5.14524 14.3747 5.14009 14.2737C5.13493 14.1728 5.16626 14.0734 5.22835 13.9936C5.29044 13.9139 5.37915 13.8591 5.47827 13.8394C5.58419 13.8223 5.69152 13.8154 5.79877 13.8189C10.1371 13.8189 14.4758 13.8189 18.8148 13.8189H19.1063V13.5759C19.1063 10.9585 19.1063 8.34188 19.1063 5.72588C19.107 5.64704 19.103 5.56823 19.0943 5.48988C19.0742 5.28065 18.9778 5.08613 18.8234 4.94353C18.669 4.80092 18.4674 4.72023 18.2573 4.71688C18.0213 4.70738 17.7833 4.72488 17.5478 4.70988C17.3588 4.69838 17.2343 4.75988 17.1128 4.90988C15.9128 6.38388 14.7083 7.85321 13.4993 9.31788C13.3908 9.44988 13.3343 9.56288 13.3923 9.73988C13.4356 9.89888 13.4591 10.0626 13.4623 10.2274C13.5348 11.3639 12.7553 12.3194 11.6313 12.4344C11.2278 12.4759 10.8163 12.4389 10.4083 12.4344C9.86077 12.4264 9.36227 12.5419 8.94027 12.9264C8.68027 13.1629 8.32827 13.0439 8.23427 12.7044C8.04927 12.0389 7.93427 11.3609 7.94577 10.6679C7.97577 8.89188 8.99177 7.81438 10.7328 7.69238C10.819 7.67812 10.8961 7.6303 10.9473 7.55938C11.2223 7.16588 11.4858 6.76438 11.7523 6.36538C12.1118 5.82888 12.4693 5.29388 12.8573 4.71288L12.8568 4.71488ZM12.9763 6.08688L14.2618 7.03688L14.6698 6.53988C15.4798 5.55355 16.2898 4.56771 17.0998 3.58238C17.3498 3.27888 17.4498 2.94288 17.3318 2.56238C17.2068 2.16238 16.9223 1.92338 16.5148 1.85938C16.0948 1.79338 15.7498 1.94988 15.5103 2.29988C15.0388 2.99288 14.5763 3.69138 14.1103 4.38788L12.9763 6.08688ZM8.91827 11.8249C9.28727 11.7454 9.63727 11.6329 9.99477 11.6024C10.4208 11.5659 10.8523 11.6054 11.2818 11.6024C11.6163 11.6024 11.9348 11.5459 12.1983 11.3059C12.6793 10.8684 12.6723 10.2364 12.5043 9.76038C12.4752 9.70387 12.4313 9.65633 12.3773 9.62288C11.9359 9.29221 11.4929 8.96388 11.0483 8.63788C10.9992 8.59821 10.9412 8.5711 10.8793 8.55888C10.1418 8.46638 9.29577 8.95888 9.01427 9.64388C8.71677 10.3714 8.78877 11.1139 8.91827 11.8249ZM13.5183 22.1464C13.5628 21.6039 13.4183 21.4419 12.9063 21.4419H7.05827C6.57977 21.4419 6.40827 21.6604 6.50327 22.1464H13.5183ZM8.90927 20.5624H11.0988C10.9283 19.8459 10.7628 19.1524 10.5963 18.4529H9.40977L8.90927 20.5624ZM12.7798 8.84588L13.7163 7.70488L12.4968 6.79988L11.6763 8.02588L12.7798 8.84588Z" fill="white"/>
<path d="M3.84092 14.6784C3.78524 14.6779 3.7302 14.6664 3.67896 14.6446C3.62772 14.6228 3.58127 14.5911 3.54227 14.5514C3.50327 14.5117 3.47248 14.4646 3.45166 14.413C3.43083 14.3613 3.42039 14.3061 3.42092 14.2504C3.42217 14.1941 3.43448 14.1387 3.45717 14.0871C3.47986 14.0356 3.51247 13.9891 3.55314 13.9502C3.59381 13.9113 3.64175 13.8808 3.69421 13.8604C3.74668 13.84 3.80265 13.8302 3.85892 13.8314C3.91519 13.8327 3.97066 13.845 4.02217 13.8677C4.07369 13.8903 4.12022 13.923 4.15913 13.9636C4.19804 14.0043 4.22855 14.0522 4.24894 14.1047C4.26932 14.1572 4.27917 14.2131 4.27792 14.2694C4.27617 14.325 4.26348 14.3797 4.24055 14.4303C4.21763 14.481 4.18493 14.5266 4.14433 14.5646C4.10373 14.6026 4.05603 14.6322 4.00397 14.6518C3.9519 14.6713 3.89649 14.6803 3.84092 14.6784Z" fill="white"/>
</svg>
