<svg width="48" height="48" viewBox="0 0 48 48" fill="none" xmlns="http://www.w3.org/2000/svg">
<path d="M1.99219 30.791C2.06436 30.5311 2.15147 30.2756 2.25308 30.0258C2.85111 28.7498 3.8809 28.1554 5.27171 28.1554H20.1104V25.6917H19.6198C16.5828 25.6917 13.5458 25.6917 10.5088 25.6917C9.51855 25.6917 8.64309 25.428 7.95779 24.6812C7.43702 24.1372 7.14614 23.4133 7.14572 22.6602C7.14572 17.1165 7.14725 11.5741 7.15031 6.03291C7.15031 4.44735 8.46396 3.11258 10.0146 3.03817C10.6292 3.00877 11.0453 3.32478 11.0775 3.84473C11.1078 4.33987 10.7468 4.69171 10.146 4.75326C9.39453 4.83042 8.86632 5.36782 8.8654 6.11375C8.85805 10.2243 8.85805 14.3355 8.8654 18.4473C8.8654 18.5006 8.87826 18.5548 8.89388 18.6834C9.50752 18.1883 10.0817 17.728 10.654 17.2641L18.4256 10.9559C19.0071 10.4837 19.3204 10.4809 19.9009 10.9641C22.3886 13.0347 24.875 15.1069 27.3602 17.1805C27.4806 17.2816 27.6037 17.378 27.7488 17.4956L31.1055 14.9556C31.608 14.5753 32.1077 14.1913 32.6111 13.8128C33.1623 13.3948 33.4379 13.3875 34.0019 13.7871C35.3211 14.7241 36.6378 15.6629 37.9521 16.6036C38.0651 16.6845 38.1817 16.7589 38.3489 16.8709C38.359 16.6771 38.3737 16.5421 38.3737 16.4061C38.3737 13.069 38.3737 9.73133 38.3737 6.39302C38.3737 5.24013 37.8795 4.74774 36.7285 4.74774H18.037C17.3205 4.74774 16.9402 4.44919 16.9347 3.89342C16.9285 3.68373 17.0014 3.4794 17.1389 3.32097C17.2764 3.16254 17.4685 3.06159 17.6769 3.03817C17.7768 3.02898 17.8771 3.02622 17.9773 3.0299C24.2951 3.0299 30.6125 3.0299 36.9296 3.0299C38.4702 3.0299 39.6855 3.9816 40.0153 5.44223C40.0776 5.78021 40.1032 6.12394 40.0916 6.46743C40.0959 11.0937 40.0959 15.7205 40.0916 20.348V20.9478C40.899 20.9478 41.6532 20.935 42.4102 20.9524C42.8374 20.9625 43.2765 20.968 43.6871 21.07C44.3415 21.2262 44.9243 21.598 45.3418 22.1255C45.7594 22.653 45.9874 23.3056 45.9892 23.9784C46.0027 27.9322 46.0027 31.886 45.9892 35.8398C45.98 37.5089 44.5772 38.8502 42.9136 38.8575C42.3477 38.8575 41.9647 38.5424 41.9371 38.0482C41.9077 37.52 42.2476 37.1801 42.8456 37.1397C43.7689 37.0772 44.2769 36.5407 44.2778 35.6101C44.2778 31.8713 44.2778 28.1325 44.2778 24.3936C44.2778 23.1461 43.7946 22.6666 42.5324 22.6666H26.031C25.1574 22.6666 24.2856 22.6602 23.4101 22.6666C22.3812 22.6758 21.8558 23.2123 21.8539 24.2439C21.8539 25.5456 21.8539 26.8473 21.8539 28.1646C22.0533 28.2197 22.2306 28.262 22.4051 28.3189C23.0143 28.5229 23.5449 28.9112 23.9235 29.4302C24.3021 29.9492 24.5098 30.5731 24.518 31.2154C24.5327 33.0196 24.518 34.8247 24.5235 36.6298V37.1369H34.6974C34.8269 37.1369 34.9555 37.1369 35.0841 37.1369C35.6876 37.1461 36.0707 37.463 36.0854 37.9637C36.101 38.4809 35.7023 38.8492 35.0896 38.8511C32.8849 38.8566 30.6802 38.8511 28.4755 38.8511H24.5253C24.5253 39.9047 24.5354 40.918 24.5253 41.9294C24.5125 42.9583 24.066 43.7777 23.2475 44.3877C22.7513 44.7675 22.1436 44.9729 21.5186 44.9719C16.0179 44.9762 10.5171 44.9762 5.01633 44.9719C4.38028 44.9644 3.76254 44.758 3.24982 44.3815C2.7371 44.005 2.35514 43.4775 2.15754 42.8728C2.10334 42.713 2.04731 42.5541 1.99219 42.3952V30.791ZM13.251 43.2578H21.1971C22.2839 43.2578 22.8029 42.7424 22.8038 41.6593C22.8038 38.2806 22.8038 34.9019 22.8038 31.5231C22.8038 30.3822 22.3022 29.8769 21.1503 29.876C15.8669 29.876 10.5839 29.876 5.3011 29.876C4.24284 29.876 3.71462 30.407 3.71462 31.4598C3.71462 34.8679 3.71462 38.2757 3.71462 41.6832C3.71462 42.7341 4.24437 43.259 5.30386 43.2578H13.251ZM20.0911 23.9665C20.1117 23.9151 20.1295 23.8627 20.1444 23.8094C20.5118 21.8802 21.6326 20.9497 23.6039 20.9478H29.0377L29.0726 20.844C25.7704 18.0881 22.4676 15.3356 19.1642 12.5864C19.0723 12.6581 18.9998 12.7086 18.9327 12.7628C15.9288 15.1972 12.9506 17.6646 9.90253 20.0439C9.09138 20.6778 8.76067 21.319 8.84335 22.3313C8.93521 23.4667 9.36513 23.9665 10.5217 23.9665H20.0874H20.0911ZM38.3811 20.9478C38.3811 20.382 38.3636 19.8831 38.3875 19.3862C38.4013 19.1106 38.2956 18.9461 38.0752 18.7909C36.5842 17.7427 35.1144 16.6845 33.6299 15.6317C33.5298 15.5601 33.4205 15.5003 33.313 15.4342L29.102 18.6283C30.0068 19.3816 30.8685 20.11 31.7467 20.8183C31.8634 20.9102 32.0627 20.9377 32.2244 20.9386C33.5399 20.9478 34.8563 20.9442 36.1745 20.9442L38.3811 20.9478Z" fill="white"/>
<path d="M29.7407 31.5671C29.2538 31.5671 28.8267 31.5717 28.3995 31.5671C27.2889 31.5533 26.5016 30.778 26.4887 29.6774C26.4805 28.8902 26.4731 28.102 26.4943 27.3147C26.5191 26.3529 27.3036 25.5124 28.2534 25.5574C30.7282 25.675 33.1139 25.076 35.5308 24.7361C36.4798 24.602 37.4232 24.4293 38.3694 24.2768C39.0639 24.1675 39.481 24.5111 39.4929 25.211C39.5039 25.8541 39.4828 26.4971 39.5067 27.1402C39.5113 27.2624 39.6353 27.4544 39.7428 27.4865C40.2802 27.6491 40.5227 27.9008 40.5135 28.3647C40.5043 28.8286 40.2453 29.084 39.6987 29.2043C39.6445 29.2163 39.5912 29.2319 39.4957 29.2558C39.4957 30.0826 39.4957 30.9093 39.4957 31.7361C39.4957 32.6134 39.1126 32.9303 38.2601 32.7898C37.1036 32.5996 35.9461 32.4223 34.7417 32.2312C34.5479 32.821 34.3568 33.3997 34.1676 33.9766C34.0702 34.2752 33.9793 34.5765 33.881 34.8751C33.7441 35.2857 33.4685 35.5181 33.0248 35.5236C32.2229 35.5236 31.4209 35.5365 30.6189 35.5236C30.0595 35.5126 29.7508 35.1929 29.7444 34.6261C29.7324 33.6349 29.7407 32.6354 29.7407 31.5671ZM37.7457 30.9819V26.126L31.4586 27.1282C31.4586 28.0322 31.4512 28.8893 31.4696 29.7463C31.4839 29.806 31.5129 29.8611 31.554 29.9067C31.595 29.9523 31.6469 29.9868 31.7047 30.0072C33.6917 30.3389 35.6815 30.6494 37.7457 30.9819ZM29.7159 27.2679C29.2685 27.2679 28.8432 27.255 28.4197 27.2789C28.3444 27.2835 28.2185 27.4341 28.2167 27.5205C28.1995 28.207 28.1995 28.8935 28.2167 29.5801C28.2167 29.6719 28.3352 29.8336 28.405 29.8373C28.8404 29.8612 29.2768 29.8492 29.7168 29.8492L29.7159 27.2679ZM33.0101 31.9722L31.4907 31.7315V33.8205C31.6418 33.8102 31.7934 33.8102 31.9445 33.8205C32.3009 33.8728 32.4856 33.7406 32.571 33.3786C32.6794 32.9266 32.8457 32.4857 33.0101 31.9676V31.9722Z" fill="white"/>
<path d="M27.7167 12.4906C27.1359 12.4882 26.5687 12.3138 26.0868 11.9893C25.605 11.6649 25.2301 11.205 25.0094 10.6676C24.7888 10.1303 24.7322 9.53959 24.847 8.97015C24.9618 8.40071 25.2427 7.87804 25.6543 7.46812C26.0659 7.0582 26.5897 6.77941 27.1596 6.66695C27.7295 6.55448 28.3199 6.61339 28.8564 6.83623C29.3928 7.05907 29.8512 7.43585 30.1737 7.91901C30.4962 8.40217 30.6683 8.97004 30.6683 9.55093C30.6683 9.93797 30.5919 10.3212 30.4434 10.6786C30.2949 11.0361 30.0773 11.3607 29.8031 11.6338C29.5289 11.9069 29.2034 12.1232 28.8454 12.2702C28.4873 12.4173 28.1038 12.4921 27.7167 12.4906ZM26.4913 9.56471C26.4931 9.80778 26.5671 10.0448 26.7039 10.2458C26.8406 10.4468 27.0339 10.6026 27.2594 10.6936C27.4848 10.7845 27.7322 10.8065 27.9701 10.7566C28.208 10.7068 28.4258 10.5875 28.5958 10.4137C28.7658 10.24 28.8804 10.0197 28.925 9.78071C28.9696 9.54176 28.9423 9.29495 28.8464 9.07155C28.7506 8.84816 28.5906 8.65825 28.3867 8.52592C28.1828 8.39358 27.9442 8.32478 27.7011 8.32823C27.3768 8.33187 27.0671 8.46415 26.8402 8.69602C26.6134 8.92788 26.4879 9.24034 26.4913 9.56471Z" fill="white"/>
<path d="M13.2384 3.88202C13.2367 3.77096 13.2571 3.66068 13.2984 3.55759C13.3398 3.45451 13.4012 3.36069 13.4792 3.2816C13.5572 3.20251 13.6501 3.13973 13.7526 3.09693C13.8551 3.05412 13.9651 3.03215 14.0762 3.03228C14.2998 3.02975 14.5156 3.11484 14.6773 3.26935C14.839 3.42386 14.9339 3.63552 14.9415 3.85905C14.9432 4.09035 14.8531 4.31287 14.6908 4.47771C14.5285 4.64256 14.3075 4.73624 14.0762 4.73818C13.8519 4.73456 13.6382 4.64261 13.4813 4.48231C13.3244 4.32201 13.2371 4.10629 13.2384 3.88202Z" fill="white"/>
<path d="M39.8276 38.01C39.8277 38.1212 39.8053 38.2313 39.7618 38.3337C39.7183 38.4361 39.6546 38.5287 39.5745 38.6059C39.4944 38.6831 39.3995 38.7433 39.2956 38.783C39.1917 38.8227 39.0808 38.8409 38.9696 38.8367C38.8574 38.8356 38.7465 38.8122 38.6434 38.7677C38.5403 38.7233 38.4471 38.6587 38.3692 38.5779C38.2914 38.497 38.2304 38.4015 38.1898 38.2968C38.1493 38.1921 38.13 38.0804 38.1331 37.9682C38.1362 37.856 38.1617 37.7455 38.208 37.6432C38.2542 37.541 38.3204 37.4489 38.4026 37.3725C38.4849 37.2961 38.5815 37.2368 38.6869 37.1982C38.7923 37.1595 38.9043 37.1422 39.0165 37.1474C39.1268 37.1493 39.2356 37.1734 39.3365 37.2181C39.4374 37.2628 39.5283 37.3272 39.6039 37.4076C39.6795 37.488 39.7383 37.5827 39.7767 37.6862C39.8151 37.7896 39.8324 37.8997 39.8276 38.01Z" fill="white"/>
<path d="M10.1834 36.5112C10.1834 35.5816 10.1779 34.6519 10.1834 33.7223C10.1908 32.8036 10.8173 32.4362 11.6303 32.8725C13.2434 33.7336 14.855 34.5971 16.465 35.4631C17.3791 35.9564 17.4021 36.6803 16.522 37.2177C14.9126 38.2006 13.2976 39.1753 11.6891 40.1573C11.3538 40.363 11.024 40.4917 10.6455 40.284C10.2514 40.0673 10.177 39.7062 10.1798 39.2974C10.188 38.3715 10.1834 37.4409 10.1834 36.5112ZM14.5607 36.4019L11.9371 34.9936V37.9985L14.5607 36.4019Z" fill="white"/>
</svg>
