<svg width="24" height="24" viewBox="0 0 24 24" fill="none" xmlns="http://www.w3.org/2000/svg">
<path d="M9.74017 20.5C9.54517 20.495 9.36017 20.4 9.24017 20.235C9.13017 20.08 9.09517 19.875 9.15017 19.69C9.41517 18.735 9.69016 17.76 9.96016 16.825L10.3602 15.435C11.4452 11.64 12.5302 7.845 13.6152 4.05C13.7202 3.685 13.9352 3.5 14.2552 3.5H14.2702C14.4652 3.5 14.6502 3.59 14.7702 3.745C14.8902 3.91 14.9252 4.125 14.8652 4.325C14.4602 5.755 14.0452 7.21 13.6452 8.62L13.5302 9.025C13.3702 9.59 13.2052 10.16 13.0452 10.725L10.4402 19.84C10.3152 20.275 10.0952 20.495 9.78516 20.495H9.74017V20.5Z" />
<path d="M18.7302 17.1549C18.6502 17.1549 18.5652 17.1399 18.4902 17.1099C18.2302 17.0149 18.1002 16.8399 18.0702 16.5599C18.0502 16.3549 18.1202 16.1849 18.3002 16.0049C18.9752 15.3349 19.6552 14.6549 20.3202 13.9899C20.7902 13.5199 21.2602 13.0499 21.7352 12.5749C21.7702 12.5449 21.8052 12.5149 21.8402 12.4899C21.8552 12.4749 21.8702 12.4649 21.8902 12.4549C21.9052 12.4399 21.9252 12.4299 21.9452 12.4149L22.3602 12.0799L20.9952 10.7149L20.7302 10.4499C19.9002 9.61988 19.1152 8.83988 18.3152 8.03988C18.1302 7.85488 18.0552 7.68488 18.0752 7.48488C18.1002 7.20488 18.2302 7.02988 18.4852 6.92988C18.5652 6.89988 18.6502 6.87988 18.7352 6.87988C18.8802 6.87988 19.0152 6.93988 19.1552 7.06988C19.3502 7.24988 19.5502 7.44988 19.7402 7.64488L19.7902 7.69488C19.8802 7.78488 19.9652 7.87488 20.0552 7.96488L20.8752 8.78488C21.7702 9.67988 22.6702 10.5749 23.5652 11.4749C23.9502 11.8599 23.9552 12.1899 23.5752 12.5699C22.1252 14.0249 20.6602 15.4899 19.2152 16.9299C19.0502 17.0799 18.8902 17.1549 18.7302 17.1549Z" />
<path d="M5.27004 17.155C5.11504 17.155 4.96504 17.09 4.86004 16.975L4.20004 16.32C3.01504 15.135 1.66504 13.795 0.345044 12.465C0.0850436 12.205 0.0850436 11.835 0.340044 11.575C1.77504 10.13 3.25004 8.66 4.84504 7.07C4.96504 6.945 5.12504 6.875 5.29504 6.875C5.45504 6.875 5.61004 6.935 5.72504 7.05C5.73004 7.055 5.74004 7.065 5.74504 7.07C6.00004 7.33 5.99504 7.72 5.73504 7.98C4.87004 8.855 3.99504 9.73 3.02504 10.695L2.31004 11.41C2.28004 11.44 2.24004 11.475 2.18504 11.52L2.16004 11.54C2.12004 11.575 2.07004 11.615 2.01004 11.665L1.55504 12.055L2.04004 12.41L2.05504 12.42C2.10004 12.455 2.14004 12.48 2.17504 12.505C2.21004 12.53 2.24504 12.555 2.27504 12.58C3.35504 13.655 4.51004 14.815 5.72004 16.025C5.93004 16.235 5.98504 16.435 5.90504 16.7C5.83004 16.95 5.67504 17.08 5.41004 17.135C5.36504 17.15 5.31504 17.155 5.27004 17.155Z" />
</svg>
