<svg width="24" height="24" viewBox="0 0 24 24" fill="none" xmlns="http://www.w3.org/2000/svg">
<path d="M5.78347 22.5055C5.73427 22.4876 5.68508 22.4787 5.63141 22.4697H5.62694C3.77996 22.2551 2.19683 20.9179 1.68701 19.1335C1.62887 18.9368 1.58862 18.7311 1.54837 18.5164L1.5439 18.4985C1.52601 18.4091 1.50812 18.3196 1.49023 18.2347V5.77534C1.50812 5.6859 1.52601 5.59646 1.5439 5.50702L1.56179 5.4131C1.59757 5.22974 1.63334 5.0598 1.68254 4.89434C2.25049 2.90424 4.07959 1.51342 6.13229 1.50894C8.29232 1.50447 10.2869 1.5 12.2367 1.5C14.1463 1.5 16.0336 1.50447 17.8492 1.50894C20.3939 1.51789 22.4779 3.59295 22.4913 6.14206C22.5047 8.17687 22.5002 10.2206 22.4958 12.1928C22.4958 12.9084 22.4958 13.6194 22.4913 14.335C22.4913 14.6078 22.3169 14.8001 22.0664 14.8001C21.8071 14.8001 21.6371 14.6078 21.6371 14.3216V6.2315C21.6461 4.38899 20.3447 2.79244 18.5335 2.43467C18.283 2.38548 18.0281 2.36312 17.7777 2.36312H17.7508C15.4343 2.36312 13.1222 2.35865 10.8057 2.35865H6.23068C4.05723 2.35865 2.34888 4.06699 2.34888 6.24939C2.34888 10.0373 2.34888 13.9101 2.34888 17.7517C2.34888 19.9698 4.02592 21.6424 6.25304 21.6469H14.2626C14.2671 21.6469 14.2715 21.6469 14.276 21.6469C14.4325 21.6469 14.5756 21.7229 14.6651 21.8526C14.7411 21.9733 14.7501 22.1209 14.6874 22.2506V22.2551C14.6472 22.3445 14.5801 22.4206 14.3878 22.5055H5.78347Z" fill="white"/>
<path d="M19.4101 22.4831C19.2894 22.4563 19.1999 22.4384 19.1149 22.416C18.6677 22.2998 18.2921 22.094 18.0103 21.8168L17.5855 21.3964C16.6374 20.4573 15.6535 19.4913 14.7188 18.5164C13.972 17.7382 13.498 16.7454 13.2699 15.4798C13.1939 15.0594 13.1089 14.639 13.0239 14.2276L13.0194 14.1963C12.9703 13.9459 12.9121 13.6596 12.854 13.3824C12.8271 13.2482 12.8629 13.1096 12.9479 13.0022C13.0194 12.9128 13.1312 12.8591 13.243 12.8591C13.2654 12.8591 13.2922 12.8636 13.3146 12.8681C14.3477 13.0604 15.2779 13.2348 16.1902 13.4629C17.0935 13.682 17.9075 14.1471 18.6141 14.8403L18.708 14.9297C19.7008 15.9091 20.7294 16.9198 21.7132 17.9395C22.4735 18.731 22.6837 19.6523 22.3349 20.6809C21.995 21.6826 21.2705 22.2863 20.1838 22.4831C20.1435 22.4921 20.1077 22.501 20.072 22.51H19.504L19.4101 22.4831ZM13.9496 14.4691C13.9675 14.5585 13.9854 14.648 14.0033 14.7329L14.0123 14.7777C14.0436 14.9342 14.0704 15.0818 14.0972 15.2249C14.2895 16.3966 14.7278 17.3134 15.4344 18.0289C16.5256 19.1335 17.5363 20.1487 18.5291 21.1281C18.869 21.468 19.3207 21.6558 19.8036 21.6558C20.8054 21.6468 21.6283 20.8284 21.6417 19.8312C21.6462 19.3526 21.4539 18.8875 21.1184 18.5477C19.9333 17.3491 18.8958 16.3116 17.9388 15.3769C16.9549 14.4154 15.7161 14.165 14.4282 13.9682L13.8334 13.8788L13.9496 14.4691Z" fill="white"/>
<path d="M6.27564 10.2966C6.13701 10.2966 5.80607 10.2608 5.76135 9.9209C5.74346 9.80015 5.77924 9.68388 5.85974 9.59443C5.94471 9.50052 6.06993 9.44238 6.20409 9.44238H17.76H17.7735C17.921 9.44238 18.0641 9.51394 18.1536 9.63021C18.2296 9.73754 18.2475 9.88065 18.2028 10.0059C18.1446 10.1713 18.0015 10.2831 17.8316 10.2966H6.27564Z" fill="white"/>
<path d="M10.0098 6.88445C9.74593 6.88445 9.55811 6.70556 9.55811 6.4596C9.55811 6.21363 9.74593 6.03475 10.0098 6.03027H17.8092C18.0059 6.03027 18.1759 6.16891 18.2161 6.36121V6.37015C18.2608 6.54904 18.1759 6.73687 18.0104 6.82184C17.9388 6.85761 17.8539 6.87998 17.7689 6.87998C16.3512 6.87998 14.8531 6.88445 13.1805 6.88445H10.0098Z" fill="white"/>
<path d="M6.23088 13.7134C5.95361 13.7134 5.75684 13.5345 5.75684 13.2841C5.75684 13.0336 5.94914 12.8547 6.22641 12.8547H9.20931C9.48658 12.8547 9.68335 13.0291 9.68335 13.2841C9.68335 13.5345 9.48658 13.7089 9.20931 13.7134H7.69773H6.79884H6.23088Z" fill="white"/>
<path d="M6.3829 7.00974C6.03855 7.00974 5.74786 6.72799 5.74339 6.38364C5.73892 6.2137 5.80153 6.04823 5.92227 5.92749C6.03855 5.80227 6.19954 5.73519 6.36948 5.73071H6.3829H6.40973C6.76303 5.73519 7.04477 6.0214 7.04477 6.3747C7.04477 6.54464 6.97769 6.70563 6.85694 6.82638C6.74961 6.93371 6.60651 7.00079 6.45893 7.01421L6.3829 7.00974Z" fill="white"/>
</svg>
