<svg width="24" height="24" viewBox="0 0 24 24" fill="none" xmlns="http://www.w3.org/2000/svg">
<path d="M9.31042 16.0675C9.52014 16.3772 9.70863 16.6573 9.89755 16.9361C10.5741 17.9347 11.2585 18.9271 11.9258 19.9332C12.5638 20.8942 12.1598 22.0946 11.0851 22.4667C10.3639 22.7167 9.57766 22.4304 9.10379 21.7354C8.17257 20.3682 7.24342 18.9995 6.31634 17.6294C6.27209 17.5621 6.22254 17.4966 6.17033 17.4223C5.74778 17.6847 5.30533 17.8404 4.8173 17.855C3.255 17.8993 1.95905 16.621 1.99843 15.0565C2.02144 14.1521 2.4223 13.4433 3.1612 12.9288C3.70453 12.5509 4.26025 12.1912 4.80093 11.8102C4.92918 11.7227 5.03461 11.6057 5.10844 11.4691C6.1659 9.3412 7.2185 7.21079 8.26623 5.07787C8.5202 4.5633 8.94893 4.29605 9.5051 4.23057C10.2068 4.14827 10.8395 4.38012 11.4417 4.70532C12.5399 5.29777 13.4292 6.13887 14.2128 7.09457C15.361 8.49494 16.2565 10.0356 16.7268 11.7979C16.925 12.5421 17.0286 13.2991 16.8702 14.0685C16.7892 14.4605 16.6326 14.8176 16.3476 15.1065C16.075 15.3856 15.7076 15.5522 15.318 15.5733C13.3713 15.722 11.428 15.8808 9.48297 16.037C9.43784 16.0405 9.39183 16.0529 9.31042 16.0675ZM8.71576 6.64637C8.77239 6.96759 8.80912 7.37597 8.9184 7.76445C9.60642 10.2002 10.9652 12.2014 12.9111 13.8053C13.4509 14.2499 14.0509 14.6017 14.7486 14.7565C15.1172 14.8388 15.4123 14.7185 15.6725 14.4725C15.8848 14.2707 15.9923 14.0097 16.0454 13.7265C16.1497 13.1458 16.1127 12.5484 15.9375 11.985C15.2008 9.50373 13.7947 7.47198 11.7594 5.87915C11.2851 5.50749 10.7608 5.21945 10.1635 5.08008C9.42192 4.9062 8.89761 5.2522 8.77239 6.00392C8.74186 6.18666 8.73877 6.37381 8.71576 6.64637ZM13.0518 14.9415C10.4546 13.0504 8.77151 10.5758 7.98527 7.48172C7.96827 7.50652 7.95262 7.53222 7.93837 7.5587C7.24637 8.96895 6.5532 10.3785 5.85884 11.7872C5.8022 11.9018 5.83185 11.9748 5.89379 12.066C6.58889 13.0858 7.28531 14.1048 7.96934 15.1313C8.0773 15.2937 8.18614 15.3357 8.37286 15.3189C9.20379 15.2428 10.036 15.1831 10.8674 15.1167C11.5908 15.0574 12.3094 14.999 13.054 14.9393L13.0518 14.9415ZM5.22038 12.5213C4.67439 12.8929 4.13416 13.2482 3.60764 13.6221C2.7391 14.2362 2.56433 15.3185 3.17713 16.2104C3.78285 17.0918 4.85137 17.3166 5.73539 16.7383C6.22519 16.4175 6.70525 16.0817 7.18974 15.7521C7.23929 15.718 7.28664 15.6804 7.34061 15.6397L5.22038 12.5213ZM6.85126 16.9719L7.55034 18.0006C8.30074 19.1067 9.05143 20.2129 9.80243 21.319C10.0378 21.6654 10.3869 21.8119 10.7435 21.7239C11.363 21.5716 11.5988 20.9013 11.224 20.3469C10.3135 18.9992 9.40112 17.6531 8.48701 16.3087C8.36445 16.1281 8.18172 16.0768 8.00031 16.1958C7.61936 16.4414 7.24726 16.7016 6.85215 16.9697L6.85126 16.9719Z" fill="white"/>
<path d="M17.6822 7.18159C17.4225 7.18159 17.2889 7.08824 17.2208 6.90904C17.1526 6.72985 17.2208 6.54756 17.4013 6.42721C17.8017 6.16174 18.2061 5.89627 18.6087 5.63345C19.1208 5.29719 19.6326 4.96107 20.1441 4.6251C20.3993 4.45785 20.6383 4.48307 20.7812 4.68925C20.9241 4.89544 20.8591 5.1441 20.5971 5.31621C19.7066 5.90261 18.8146 6.48709 17.9212 7.06965C17.845 7.11391 17.765 7.15137 17.6822 7.18159Z" fill="white"/>
<path d="M18.354 9.07391L20.0693 9.38142C20.5777 9.47256 21.087 9.56592 21.5945 9.65397C21.86 9.70043 22.0276 9.88404 21.9962 10.1115C21.9617 10.361 21.7369 10.5097 21.4573 10.4614C20.4606 10.2845 19.4642 10.1048 18.4681 9.92254C18.3734 9.90528 18.277 9.89201 18.1849 9.8659C17.9699 9.80529 17.8425 9.61636 17.8752 9.41726C17.9106 9.20001 18.088 9.06241 18.354 9.07391Z" fill="white"/>
<path d="M16.2778 1.87751C16.1931 2.69871 16.1092 3.5199 16.026 4.34109C16.0057 4.53976 15.9871 4.7393 15.9628 4.93619C15.9314 5.18795 15.7495 5.3344 15.5097 5.31316C15.2885 5.29148 15.1349 5.10698 15.1593 4.86053C15.259 3.84083 15.3622 2.82112 15.469 1.80141C15.4942 1.56514 15.6902 1.42223 15.9198 1.44745C16.1358 1.46957 16.2835 1.64655 16.2778 1.87751Z" fill="white"/>
<path d="M11.6757 8.20288C12.6447 8.20288 13.4858 8.79444 13.7955 9.69351C13.9438 10.1269 13.9539 10.5957 13.8244 11.035C13.6949 11.4744 13.4322 11.8628 13.0725 12.1465C12.9994 12.209 12.9162 12.2586 12.8265 12.2934C12.7348 12.3219 12.6358 12.3168 12.5475 12.2789C12.4592 12.2411 12.3872 12.173 12.3446 12.0868C12.302 12.0007 12.2914 11.9022 12.3149 11.809C12.3383 11.7158 12.3943 11.634 12.4726 11.5784C12.8009 11.3297 13.0203 11.0191 13.0717 10.605C13.1402 10.0492 12.9473 9.59661 12.4938 9.2776C12.0403 8.95859 11.5474 8.93735 11.0461 9.17849C10.9846 9.20858 10.9284 9.25017 10.8665 9.28025C10.7746 9.32994 10.667 9.34222 10.5663 9.31452C10.4655 9.28682 10.3794 9.22128 10.3258 9.13159C10.2152 8.94797 10.2674 8.71745 10.4492 8.58295C10.7607 8.35332 11.2474 8.20288 11.6757 8.20288Z" fill="white"/>
</svg>
