<svg width="24" height="24" viewBox="0 0 24 24" fill="none" xmlns="http://www.w3.org/2000/svg">
<path d="M5.28052 16.7608C4.70231 16.7608 4.24067 16.7095 3.82567 16.6069C3.01897 16.4018 2.32418 15.9541 1.81591 15.3199C1.30298 14.6811 1.02321 13.9071 1.01854 13.091C0.990564 10.3352 0.990564 7.5374 1.01854 4.78157C1.02787 3.81167 1.41956 2.90238 2.11435 2.21692C2.80447 1.53146 3.72774 1.14443 4.70697 1.12578H11.888C12.5968 1.12578 13.3195 1.12578 14.0143 1.12112C14.7138 1.12112 15.4319 1.11646 16.1406 1.11646C17.2551 1.11646 18.169 1.12112 19.0177 1.13511C20.4166 1.15376 21.5451 1.75995 22.3751 2.93969C22.7854 3.51324 23.0046 4.18937 22.9999 4.89348C22.9999 5.08467 22.9999 5.28051 22.9999 5.47169C22.9999 5.8494 22.9999 6.24109 22.9999 6.62345C22.9952 6.94054 22.8227 7.14571 22.5569 7.14571H22.5476C22.2771 7.14105 22.1046 6.93121 22.1 6.60947C22.1 6.4789 22.0953 6.34834 22.0953 6.22244C22.0906 5.87271 22.086 5.509 22.1 5.14995C22.1746 3.47593 20.9109 2.41277 19.7032 2.12833C19.4001 2.05838 19.0877 2.02574 18.7752 2.02574H18.7519C15.7816 2.02108 12.7646 2.02108 9.78498 2.02108C8.18557 2.02108 6.58616 2.02108 4.98675 2.02108C3.46662 2.02108 2.31486 2.86974 1.98845 4.236C1.93249 4.4878 1.90451 4.74893 1.90451 5.00539C1.89985 7.60735 1.89985 10.2419 1.90451 12.8439C1.90917 14.5645 3.11223 15.7862 4.83287 15.8142C5.0054 15.8189 5.19192 15.8189 5.41575 15.8189C5.55564 15.8189 5.70019 15.8189 5.84008 15.8189C5.97997 15.8189 6.12452 15.8189 6.26441 15.8189C6.33902 15.8189 6.40897 15.8189 6.48357 15.8189C6.82397 15.8189 6.93122 15.9868 6.98251 16.1127C7.03847 16.2479 7.02448 16.4111 6.94521 16.5323C6.90324 16.5976 6.80998 16.7002 6.64212 16.7095C6.48357 16.7142 6.32503 16.7188 6.16183 16.7282C5.87738 16.7468 5.57429 16.7608 5.28052 16.7608Z" fill="white"/>
<path d="M20.6639 22.8832C20.095 22.8832 19.5634 22.6687 19.167 22.2817C18.766 21.89 18.5375 21.3491 18.5282 20.7662C18.5236 20.5005 18.3837 20.3839 18.2484 20.3046C17.2506 19.7031 16.2387 19.0969 15.2455 18.4954C15.1475 18.4347 15.0636 18.4114 14.975 18.4114C14.8864 18.4114 14.7978 18.4394 14.7046 18.5C13.5155 19.2228 12.3124 19.9502 11.114 20.6637C11.0021 20.7289 10.8856 20.7662 10.7783 20.7662C10.6151 20.7662 10.4845 20.6823 10.4053 20.5331C10.2794 20.2906 10.368 20.0575 10.6431 19.8943C11.613 19.3067 12.5922 18.7145 13.5621 18.1363C13.6227 18.099 13.6787 18.0617 13.744 18.0197L14.0797 17.8006L11.3006 16.1219C11.0954 16.0007 10.8902 15.8748 10.6851 15.7489C10.4612 15.6136 10.2327 15.3805 10.4193 15.0634C10.5032 14.9189 10.6244 14.8489 10.7736 14.8489C10.8856 14.8489 11.0161 14.8909 11.1467 14.9701C12.3124 15.6696 13.4968 16.3877 14.6673 17.0965C14.7792 17.1664 14.8771 17.1944 14.975 17.1944C15.0729 17.1944 15.1709 17.1618 15.2828 17.0965C16.2573 16.4949 17.2506 15.8981 18.2391 15.3105C18.3976 15.2173 18.5562 15.0821 18.5375 14.7743C18.5002 14.1821 18.7007 13.6179 19.1018 13.1842C19.4935 12.7599 20.025 12.5174 20.5939 12.5034C20.6126 12.5034 20.6266 12.5034 20.6452 12.5034C21.2374 12.5034 21.7876 12.7319 22.198 13.1422C22.599 13.5479 22.8228 14.0842 22.8182 14.6531C22.8135 15.8328 21.8436 16.7934 20.6639 16.7934H20.6499C20.6219 16.7934 20.5893 16.7934 20.5613 16.7887C20.067 16.7654 19.596 16.5696 19.237 16.2292C19.195 16.1918 19.1577 16.1545 19.1158 16.1172C19.0924 16.0939 19.0691 16.0706 19.0411 16.0473L18.9479 15.9587L18.8313 16.0193C18.8173 16.024 18.808 16.0333 18.794 16.038C18.7614 16.052 18.7334 16.0659 18.7007 16.0893C18.1085 16.4437 17.5163 16.8027 16.9102 17.1664L15.8563 17.8006L18.8313 19.5958L18.9339 19.4699C19.3209 18.9943 19.7826 18.7145 20.3375 18.6213C20.4447 18.6026 20.5566 18.5933 20.6685 18.5933C21.6757 18.5933 22.6037 19.3627 22.7762 20.3466C22.9814 21.5123 22.2306 22.6314 21.1068 22.8459C20.9576 22.8693 20.8131 22.8832 20.6639 22.8832ZM20.6639 19.4932C19.9831 19.4932 19.4282 20.0481 19.4235 20.7289C19.4235 21.4097 19.9784 21.9693 20.6592 21.9693C21.3447 21.9693 21.8996 21.4144 21.8996 20.7336C21.8996 20.4025 21.7737 20.0901 21.5358 19.857C21.3074 19.6238 20.9949 19.4979 20.6639 19.4932ZM20.6639 13.408C20.3328 13.408 20.0204 13.5433 19.7872 13.7764C19.5541 14.0142 19.4282 14.3266 19.4282 14.6577C19.4328 15.3385 19.9877 15.8934 20.6732 15.8934H20.6825C21.3633 15.8841 21.9135 15.3199 21.9042 14.6437C21.8996 13.9676 21.3447 13.4127 20.6639 13.408Z" fill="white"/>
<path d="M10.2934 12.6621C9.73382 12.6621 9.32348 12.1911 9.31882 11.5476C9.30949 10.9507 9.31415 10.3399 9.31415 9.75235C9.31415 9.47724 9.31415 9.20212 9.31415 8.93167C9.31415 8.64256 9.31415 8.35345 9.31415 8.06901C9.31415 7.50479 9.31415 6.91725 9.31415 6.3437C9.31882 5.72819 9.66854 5.27588 10.2094 5.19194C10.2561 5.18728 10.298 5.18262 10.3447 5.18262C10.5732 5.18262 10.8016 5.27588 11.0628 5.47639C11.9954 6.18982 12.942 6.90793 13.8746 7.6167C13.9119 7.64468 13.9445 7.67266 13.9818 7.70064C14.0657 7.76592 14.1497 7.8312 14.2429 7.89182C14.6067 8.12497 14.8072 8.44205 14.8212 8.81509C14.8351 9.22077 14.63 9.63112 14.2802 9.89224C13.6927 10.3306 13.1098 10.7875 12.5409 11.2305C12.0513 11.6129 11.5477 12.0092 11.0441 12.3869C10.8623 12.5268 10.6524 12.6201 10.4286 12.6574C10.3773 12.6621 10.3307 12.6621 10.2934 12.6621ZM10.6245 11.5709L13.8279 9.07622C13.9492 8.9783 13.9492 8.79644 13.8233 8.69852L10.6198 6.27376C10.4659 6.15718 10.2421 6.2691 10.2421 6.46028V11.3797C10.2421 11.5802 10.4706 11.6922 10.6245 11.5709Z" fill="white"/>
</svg>
