<svg width="28" height="14" viewBox="0 0 28 14" fill="none" xmlns="http://www.w3.org/2000/svg">
<path d="M0.293867 9.0574C0.424492 8.5799 0.555117 8.1024 0.681992 7.6374C1.10949 7.7674 1.52387 7.94552 1.95512 8.00927C2.41966 8.07467 2.8905 8.08265 3.35699 8.03302C3.73762 7.9949 4.03199 7.76427 4.10699 7.34552C4.18199 6.92677 3.98199 6.62552 3.63199 6.44615C3.20637 6.2274 2.75699 6.05365 2.31949 5.86365C1.68949 5.5924 1.09949 5.25927 0.733867 4.65365C0.0794922 3.57365 0.437617 2.2199 1.53137 1.53302C2.13199 1.15802 2.80137 1.02802 3.49324 1.01427C4.25387 0.999897 5.00012 1.09927 5.72824 1.4374C5.58824 1.94365 5.45012 2.4449 5.30824 2.95865C4.68593 2.66817 4.00045 2.5392 3.31512 2.58365C3.25224 2.58691 3.18963 2.59401 3.12762 2.6049C2.67824 2.69052 2.38262 2.94615 2.33262 3.28865C2.28449 3.62177 2.45199 3.90177 2.88512 4.1124C3.51012 4.41427 4.16137 4.65865 4.77137 4.98365C6.53637 5.92115 6.31387 8.02615 5.22949 8.90552C4.67699 9.35427 4.03262 9.56927 3.34074 9.63552C2.28824 9.73615 1.26262 9.6174 0.291992 9.16615L0.293867 9.0574Z" fill="white"/>
<path d="M22.2433 9.07188C20.0496 10.8281 17.1002 10.4063 15.4408 8.46126C13.8296 6.57251 13.9408 3.72438 15.7096 1.92688C17.4652 0.143755 20.3458 0.0156296 22.2621 1.6275C24.1958 3.25251 24.6552 6.23626 22.8596 8.46188L23.5315 9.08688L24.1958 9.70626C24.3627 9.86251 24.5083 10.0356 24.7758 10.0425C24.8658 10.0425 24.9633 10.1375 25.0408 10.2088C25.8175 10.9288 26.5921 11.6515 27.3646 12.3769C27.6771 12.6738 27.7296 12.9775 27.5302 13.2788C27.4477 13.4023 27.3235 13.492 27.1804 13.5317C27.0372 13.5714 26.8846 13.5584 26.7502 13.495C26.7172 13.4812 26.6864 13.4624 26.659 13.4394C25.7919 12.6344 24.9252 11.8288 24.059 11.0225C23.729 10.1731 22.9002 9.78001 22.3377 9.14376C22.3084 9.11715 22.2768 9.09311 22.2433 9.07188ZM19.154 1.77251C18.4487 1.77263 17.7593 1.98186 17.173 2.37374C16.5866 2.76563 16.1296 3.32257 15.8597 3.97416C15.5899 4.62574 15.5193 5.34271 15.6569 6.03442C15.7944 6.72613 16.134 7.36152 16.6326 7.86025C17.1313 8.35899 17.7666 8.69868 18.4583 8.83637C19.15 8.97407 19.867 8.90359 20.5186 8.63384C21.1702 8.36409 21.7273 7.90719 22.1193 7.3209C22.5112 6.73461 22.7206 6.04526 22.7208 5.34001C22.7197 4.39431 22.3435 3.48767 21.6749 2.8189C21.0062 2.15013 20.0997 1.77383 19.154 1.77251Z" fill="white"/>
<path d="M7.36865 1.15747H12.5237V2.69997H9.28053V4.44997H12.343V5.9881H9.28678V7.97935H12.7012V9.53185H7.36865V1.15747Z" fill="white"/>
</svg>
