<svg width="24" height="24" viewBox="0 0 24 24" fill="none" xmlns="http://www.w3.org/2000/svg">
<path d="M11.3448 22.4999C11.2646 22.491 11.1888 22.4821 11.1086 22.4732C10.9348 22.4509 10.752 22.4331 10.5782 22.4064C8.45238 22.1033 6.58057 21.2342 5.01627 19.8304C3.22022 18.2126 2.09268 16.1982 1.66484 13.8317C1.61581 13.5643 1.58016 13.288 1.54896 13.0161C1.53559 12.8958 1.51776 12.7754 1.50439 12.6551V11.3493C1.50885 11.3315 1.50885 11.3181 1.51331 11.3003C1.52222 11.2512 1.53113 11.2067 1.54005 11.1577C1.56679 10.9928 1.58907 10.8234 1.61136 10.6585C1.65592 10.3153 1.70049 9.96326 1.78517 9.62901C2.574 6.40682 4.49038 4.02249 7.46299 2.54732C8.8624 1.85208 10.3643 1.5 11.9197 1.5C12.5035 1.5 13.1007 1.54902 13.7024 1.64707C15.6678 1.96795 17.4148 2.79244 18.89 4.09825C21.1985 6.14833 22.4107 8.74213 22.491 11.8083C22.5444 13.8183 22.0453 15.6901 21.0024 17.3837C19.3356 20.0889 16.9156 21.7557 13.8049 22.3395C13.5419 22.3885 13.2656 22.4242 12.9982 22.4554C12.8823 22.4687 12.7665 22.4821 12.6506 22.4999H11.3448ZM3.45197 15.5653C3.36729 15.5653 3.29153 15.6054 3.24696 15.6767C3.20239 15.7481 3.19348 15.8327 3.22914 15.9085L3.23805 15.9352C3.26925 16.011 3.30044 16.0823 3.3361 16.1492C5.00736 19.3847 7.67692 21.212 11.2735 21.5819C11.3047 21.5863 11.3359 21.5863 11.3626 21.5863C11.6478 21.5863 11.7459 21.4036 11.8038 21.2253C12.2317 19.8928 12.6729 18.5379 13.1007 17.2277C13.23 16.831 13.3592 16.4344 13.4884 16.0377C13.5018 15.9887 13.5196 15.9441 13.533 15.8907L13.5375 15.8728C13.5598 15.7971 13.5464 15.7213 13.4974 15.6589C13.4528 15.5965 13.377 15.5609 13.3013 15.5609L3.45197 15.5653ZM16.0154 11.6925C15.9084 11.6925 15.8148 11.7593 15.7836 11.8618L12.7397 21.2298C12.7174 21.3055 12.7308 21.3858 12.7754 21.4482C12.8199 21.5106 12.8957 21.5507 12.9759 21.5507C12.9848 21.5507 12.9938 21.5507 13.0027 21.5507C13.0651 21.5418 13.123 21.5373 13.1765 21.5284C16.8042 20.9847 19.4025 18.997 20.8999 15.6144C21.0069 15.3781 20.9623 15.2132 20.7529 15.0617C19.2599 13.9877 17.7535 12.8913 16.265 11.8083C16.2293 11.7816 16.1937 11.7593 16.1535 11.7326C16.1134 11.7103 16.0644 11.6925 16.0154 11.6925ZM5.57781 4.87372C2.86369 7.45414 1.88321 10.6229 2.66759 14.2863C2.72553 14.5492 2.86814 14.6695 3.14 14.6695H3.14446C4.24972 14.6651 5.31932 14.6651 6.22403 14.6651C6.62514 14.6651 8.78663 14.6651 8.78663 14.6651C8.86685 14.6651 8.93816 14.6294 8.98718 14.5626C9.03175 14.5002 9.04512 14.4155 9.02284 14.3442C8.00671 11.2111 6.99504 8.10482 5.98337 4.98068C5.95217 4.87817 5.85413 4.81132 5.74717 4.81132C5.68923 4.81132 5.63129 4.83361 5.58673 4.86926L5.57781 4.87372ZM12.0044 8.79561C11.9286 8.79561 11.8528 8.82235 11.7771 8.88029C10.8946 9.52651 10.0033 10.1772 9.11643 10.8145C8.95153 10.9348 8.90696 11.0774 8.96936 11.2691C9.30361 12.2897 9.63786 13.3281 9.96766 14.3576C10.0568 14.6339 10.2529 14.6651 10.3955 14.6651H10.4089C10.6183 14.6606 10.8501 14.6606 11.1353 14.6606C11.2779 14.6606 11.4205 14.6606 11.5632 14.6606C11.7058 14.6606 11.8484 14.6606 11.991 14.6606H12.1693C12.2539 14.6606 12.7085 14.6606 12.8511 14.6606C13.1676 14.6606 13.4082 14.6606 13.6355 14.6651C13.7692 14.6651 13.9475 14.6339 14.0277 14.3843C14.3575 13.3503 14.7007 12.2986 15.0438 11.2602C15.1062 11.073 15.0617 10.9348 14.9012 10.8189C14.0143 10.1816 13.1185 9.53096 12.2361 8.88474C12.1871 8.84463 12.1069 8.79561 12.0044 8.79561ZM17.8783 4.50827C17.8248 4.50827 17.7758 4.5261 17.7357 4.55729L13.0383 7.97112C12.9759 8.01569 12.9358 8.09145 12.9358 8.17167C12.9358 8.25189 12.9715 8.3232 13.0383 8.37222L21.0024 14.1481C21.0425 14.1793 21.096 14.1971 21.145 14.1971C21.2609 14.1971 21.359 14.1169 21.3857 14.0055C22.1745 10.5114 20.8242 6.71879 18.0298 4.55729C17.9852 4.5261 17.9318 4.50827 17.8783 4.50827ZM11.9999 2.40471C10.1103 2.40471 8.25629 2.95734 6.78112 3.96455C6.69199 4.02695 6.65188 4.13836 6.68753 4.24532L6.84797 4.74447C7.39169 6.41128 7.9354 8.08254 8.48358 9.77162C8.51477 9.87413 8.60836 9.94098 8.71532 9.94098C8.76881 9.94098 8.81783 9.92315 8.85794 9.89196L16.8265 4.10717C16.8934 4.05814 16.9335 3.97792 16.929 3.8977C16.9246 3.81302 16.88 3.74172 16.8087 3.69715C15.3647 2.85484 13.7024 2.40471 11.9999 2.40471Z" fill="white"/>
</svg>
