<svg width="140" height="140" viewBox="0 0 140 140" fill="none" xmlns="http://www.w3.org/2000/svg">
<path d="M79.0002 20C79.1039 20.0699 79.2153 20.1275 79.3322 20.1719C83.3654 21.1953 85.6779 24.1113 85.6877 28.291C85.7072 35.9395 85.6877 43.5898 85.6877 51.2383C85.6877 53.3223 85.6877 55.4062 85.6877 57.4883C85.6877 58.7148 85.1467 59.4043 84.2287 59.3965C83.3107 59.3887 82.7639 58.6836 82.7639 57.4688C82.7639 47.8008 82.7639 38.1335 82.7639 28.4668C82.7639 27.0078 82.4533 25.6953 81.4553 24.5957C80.6135 23.668 79.5588 23.0332 78.3205 22.9844C76.2443 22.8945 74.1643 22.959 72.0217 22.959C71.8049 24.0664 71.592 25.1406 71.3811 26.2168C70.715 29.6445 68.092 31.9141 64.6057 31.9336C58.1278 31.9727 51.6499 31.9727 45.1721 31.9336C41.7014 31.9141 39.0529 29.6172 38.3889 26.2051C38.1838 25.1523 37.9846 24.1016 37.7736 23.0371C35.5158 23.0371 33.26 22.8242 31.0646 23.0938C28.5393 23.4023 27.0314 25.5566 27.0314 28.2812C27.0236 39.0547 27.0236 49.8288 27.0314 60.6035C27.0314 77.4961 27.0861 94.3926 26.9885 111.285C26.9689 114.939 29.5275 117.131 32.7795 117.109C47.6545 117.02 62.5295 117.072 77.4064 117.068C80.0412 117.068 82.0471 115.607 82.6174 113.23C82.7414 112.593 82.7912 111.942 82.7658 111.293C82.7749 103.447 82.7749 95.6016 82.7658 87.7578C82.7658 85.7852 83.1232 85.4297 85.0998 85.4297H88.4709C88.4709 84.9023 88.4611 84.4316 88.4709 83.959C88.5314 81.1074 90.4494 79.2031 93.2912 79.1894C95.7326 79.1777 98.174 79.1894 100.615 79.1894H101.553C101.772 77.4766 102.174 76.8945 103.088 76.8867C104.033 76.8867 104.49 77.5273 104.637 79.1875C106.529 79.0625 108.426 79.2578 109.571 80.9883C110.129 81.834 110.547 82.9609 110.547 83.9609C110.547 86.8359 108.594 88.1738 104.246 88.416C104.545 88.7402 104.758 88.9883 104.988 89.2188C108.186 92.4199 111.395 95.6094 114.58 98.8223C115.916 100.17 116.297 101.811 115.684 103.59C115.071 105.369 113.731 106.41 111.852 106.625C110.289 106.801 108.996 106.211 107.899 105.107C104.795 101.992 101.68 98.8926 98.5822 95.7812C98.3598 95.5121 98.1636 95.2224 97.9963 94.916L97.6486 95.1465C97.6486 95.6562 97.6643 96.166 97.6486 96.6738C97.5432 99.3633 95.6467 101.283 93.0939 101.293C90.4943 101.305 88.549 99.373 88.4904 96.6328C88.4416 94.2578 88.4787 91.8809 88.4768 89.5039V88.4141H85.6936V89.5469C85.6936 96.7734 85.6936 104 85.6936 111.227C85.6936 115.951 83.7131 118.561 79.1408 119.883C79.0861 119.898 79.0471 119.965 79.0002 120.008H30.9533C26.5412 119.082 24.01 115.762 24.0353 110.4C24.1643 83.7969 24.0939 57.1934 24.0939 30.5879C24.0939 29.6445 24.0744 28.7012 24.1076 27.7598C24.2033 25.0254 25.3752 22.8496 27.6623 21.3906C28.6506 20.752 29.8498 20.4512 30.9533 20H79.0002ZM91.3986 90.209C91.3986 92.2578 91.3869 94.3105 91.3986 96.3574C91.4084 97.6582 91.9846 98.3418 93.0353 98.3516C94.0861 98.3613 94.6896 97.6699 94.7072 96.3984C94.7268 94.9023 94.7189 93.4062 94.7072 91.9062C94.7072 91.125 94.7404 90.3672 95.5803 90.0098C96.4201 89.6523 97.0451 90.1074 97.633 90.6992C101.625 94.7122 105.627 98.7168 109.639 102.713C109.879 102.977 110.146 103.215 110.436 103.424C110.763 103.648 111.159 103.746 111.553 103.701C111.947 103.656 112.311 103.47 112.578 103.178C112.847 102.887 113 102.509 113.01 102.113C113.019 101.718 112.884 101.332 112.629 101.029C112.441 100.805 112.239 100.593 112.024 100.395C107.953 96.3203 103.881 92.248 99.8068 88.1777C99.2912 87.6641 98.9377 87.1152 99.2619 86.3574C99.5861 85.5996 100.18 85.4219 100.924 85.4277C102.518 85.4395 104.112 85.4395 105.707 85.4277C106.906 85.4277 107.692 84.7246 107.66 83.7285C107.629 82.7676 106.879 82.1172 105.707 82.1152C101.607 82.1061 97.5054 82.1061 93.4025 82.1152C92.0021 82.1152 91.3986 82.7324 91.3889 84.1523C91.3889 86.1738 91.3986 88.1914 91.3986 90.209ZM69.0334 22.9688H40.7678C40.9514 23.9453 41.1115 24.8613 41.3029 25.7793C41.7033 27.707 43.1877 28.9961 45.1545 29.0039C51.6649 29.0286 58.1753 29.0286 64.6857 29.0039C66.5666 29.0039 68.0471 27.75 68.4611 25.9297C68.6682 24.9805 68.8283 24.0195 69.0334 22.9688Z" fill="white"/>
<path d="M38.1247 55.6738C38.1247 51.832 38.1012 47.9902 38.1247 44.1503C38.1462 41.498 39.8024 39.5253 42.3317 39.0332C42.5889 38.9818 42.8507 38.9569 43.113 38.9589C43.9782 38.9726 44.5817 39.5 44.6481 40.2773C44.7184 41.123 44.2106 41.7226 43.2926 41.873C41.6286 42.1484 41.0544 42.7949 41.0544 44.4843C41.0465 51.97 41.0465 59.457 41.0544 66.9453C41.0544 68.8359 41.8356 69.5996 43.734 69.6015C51.1898 69.6015 58.6442 69.6015 66.0973 69.6015C67.9274 69.6015 68.7477 68.8203 68.7516 67C68.7633 59.4804 68.7633 51.9615 68.7516 44.4433C68.7516 42.6855 67.9176 41.8867 66.1598 41.8847C61.1794 41.8847 56.1989 41.8847 51.2184 41.8847C50.926 41.8961 50.6333 41.8909 50.3415 41.8691C49.5114 41.7714 49.0524 41.2675 48.986 40.457C48.9216 39.6992 49.5407 39.0351 50.3649 38.9726C50.9801 38.9257 51.6012 38.957 52.2184 38.957C56.9059 38.957 61.5934 38.957 66.2809 38.957C69.4313 38.957 71.6442 41.0097 71.6657 44.1484C71.7204 51.8619 71.7204 59.5761 71.6657 67.291C71.6462 70.4375 69.4508 72.5253 66.32 72.5293C58.7028 72.541 51.0856 72.541 43.4684 72.5293C40.2868 72.5293 38.1481 70.3945 38.1266 67.1953C38.1051 63.3593 38.1227 59.5136 38.1247 55.6738Z" fill="url(#paint0_linear_320_651)"/>
<path d="M59.4688 93.7287C59.4688 96.0724 59.4688 98.4162 59.4688 100.76C59.4688 105.621 56.0449 109.449 51.1973 110.029C48.1914 110.391 45.5332 109.639 43.2227 107.647C41.3496 106.031 40.2754 104.033 40.2734 101.526C40.2656 96.187 40.2656 90.8485 40.2734 85.5099C40.2734 84.4123 40.8145 83.7912 41.6953 83.7795C42.5762 83.7677 43.1895 84.4201 43.1914 85.5588C43.2051 90.5392 43.1914 95.5197 43.1914 100.5C43.1914 103.783 44.6569 105.905 47.5879 106.867C50.3359 107.774 53.8945 106.658 55.5703 104.369C56.3145 103.352 56.5469 102.201 56.5469 100.963C56.5326 95.8849 56.5326 90.8068 56.5469 85.7287C56.5283 85.3424 56.5881 84.9564 56.7227 84.5939C57.0215 83.9103 57.6152 83.6642 58.334 83.8322C59.1641 84.0275 59.4688 84.6252 59.4688 85.4279C59.4674 88.1961 59.4674 90.963 59.4688 93.7287Z" fill="url(#paint1_linear_320_651)"/>
<path d="M66.6195 96.8497C66.6195 93.1759 66.6195 89.5021 66.6195 85.8282C66.6195 85.3849 66.5999 84.8165 66.848 84.5275C67.1624 84.1622 67.762 83.8068 68.2015 83.8497C68.6409 83.8927 69.1234 84.3673 69.3987 84.7794C69.5941 85.0861 69.5355 85.5939 69.5355 86.0138C69.5355 93.2963 69.5355 100.579 69.5355 107.861C69.5355 108.024 69.5355 108.186 69.5355 108.348C69.4925 109.5 68.9495 110.123 68.0198 110.106C67.1312 110.082 66.6175 109.484 66.6136 108.367C66.6116 104.522 66.6195 100.686 66.6195 96.8497Z" fill="url(#paint2_linear_320_651)"/>
<path d="M55.3692 56.4607C57.7442 56.4607 60.1192 56.4178 62.4903 56.4978C62.7657 56.5279 63.0319 56.6145 63.2722 56.7523C63.5125 56.8901 63.7218 57.0761 63.8868 57.2986C64.1016 57.6248 64.0176 58.365 63.7735 58.7127C63.6106 58.9042 63.41 59.0601 63.1842 59.1707C62.9584 59.2812 62.7122 59.3441 62.461 59.3553C57.6485 59.4002 52.836 59.3963 48.0216 59.3728C47.045 59.3728 46.4083 58.7166 46.4161 57.8943C46.4239 57.0721 47.0606 56.4744 48.0528 56.4666C50.4923 56.449 52.9298 56.4607 55.3692 56.4607Z" fill="url(#paint3_linear_320_651)"/>
<path d="M58.6816 53.8359C57.416 53.8359 56.1426 53.8516 54.8848 53.8359C53.9082 53.8203 53.2676 53.2285 53.2695 52.3945C53.2695 51.6133 53.8809 50.9492 54.791 50.9355C57.3874 50.8978 59.9837 50.8978 62.5801 50.9355C62.7766 50.9287 62.9725 50.9615 63.1561 51.0319C63.3397 51.1023 63.5073 51.209 63.6488 51.3454C63.7904 51.4819 63.9031 51.6454 63.9802 51.8263C64.0573 52.0072 64.0973 52.2018 64.0977 52.3984C64.0977 53.2344 63.4629 53.8203 62.4785 53.8359C61.2109 53.8516 59.9473 53.8359 58.6816 53.8359Z" fill="url(#paint4_linear_320_651)"/>
<path d="M89.1404 60.2146C89.6599 60.2146 90.1814 60.1931 90.7029 60.2146C91.4841 60.2556 91.9802 60.6951 92.0701 61.4666C92.1736 62.2947 91.7634 62.9588 90.9607 63.0291C89.7042 63.1433 88.4399 63.1433 87.1834 63.0291C86.4216 62.9607 86.0115 62.3123 86.0759 61.5447C86.1482 60.7459 86.6365 60.2459 87.4841 60.2127C88.0408 60.199 88.5935 60.2146 89.1404 60.2146Z" fill="white"/>
<path d="M82.2559 62.6114C82.0435 62.9398 81.8085 63.253 81.5528 63.5489C81.002 64.1348 80.3809 64.6388 79.8379 65.2345C79.2168 65.9259 78.4707 66.1212 77.7813 65.668C77.0918 65.2149 76.8555 64.3165 77.4336 63.627C78.2233 62.6546 79.1389 61.7916 80.1563 61.0606C81.0664 60.4298 82.2852 61.252 82.2559 62.6114Z" fill="white"/>
<path d="M104.571 69.9316C104.571 70.4824 104.612 71.0371 104.571 71.584C104.564 71.7714 104.52 71.9555 104.442 72.1259C104.363 72.2962 104.252 72.4494 104.114 72.5765C103.976 72.7036 103.815 72.8021 103.639 72.8664C103.463 72.9307 103.275 72.9595 103.088 72.9512C102.901 72.9533 102.715 72.9178 102.542 72.8467C102.368 72.7757 102.211 72.6706 102.079 72.5376C101.947 72.4046 101.844 72.2465 101.774 72.0726C101.704 71.8987 101.67 71.7127 101.674 71.5254C101.639 70.4883 101.641 69.4473 101.674 68.4102C101.699 67.5508 102.274 66.9668 103.051 66.9258C103.828 66.8848 104.51 67.4922 104.578 68.3711C104.617 68.8887 104.578 69.4102 104.578 69.9336L104.571 69.9316Z" fill="white"/>
<path d="M97.9292 60.0137C98.98 60.4043 100.064 60.7109 101.072 61.1855C101.253 61.2634 101.415 61.3785 101.549 61.5234C101.682 61.6683 101.783 61.8397 101.846 62.0264C101.909 62.2131 101.931 62.4109 101.912 62.607C101.893 62.803 101.833 62.9928 101.736 63.1641C101.355 63.875 100.574 64.0742 99.7222 63.75C99.0678 63.4871 98.3886 63.2908 97.6949 63.1641C96.6402 62.998 96.0015 62.4727 96.023 61.625C96.0445 60.7285 96.7456 60.1914 97.9292 60.0137Z" fill="white"/>
<path d="M76.4259 72.7131C76.4259 72.1642 76.3966 71.6115 76.4259 71.0627C76.4806 70.2716 76.9474 69.8088 77.7267 69.7482C78.5548 69.6838 79.1798 70.0998 79.2501 70.9201C79.351 72.1124 79.3562 73.3109 79.2657 74.5041C79.2071 75.3166 78.6173 75.7697 77.7833 75.7287C76.9493 75.6877 76.4728 75.2091 76.4161 74.3713C76.3829 73.8224 76.4161 73.2697 76.4161 72.7189L76.4259 72.7131Z" fill="white"/>
<path d="M77.953 79.6973C78.7342 79.752 79.1522 80.2325 79.3202 81.0255C79.5018 81.8712 79.7108 82.711 79.9491 83.5391C80.1873 84.3673 79.9334 85.1016 79.2186 85.4298C78.4373 85.7794 77.7967 85.5372 77.369 84.8575C76.6347 83.6982 76.3095 82.3265 76.4452 80.961C76.5077 80.1739 77.119 79.6778 77.953 79.6973Z" fill="white"/>
<path d="M47.9297 50.9277C48.1248 50.9323 48.3169 50.9763 48.4945 51.057C48.6721 51.1378 48.8316 51.2536 48.9633 51.3976C49.0951 51.5415 49.1963 51.7106 49.261 51.8947C49.3257 52.0788 49.3525 52.274 49.3398 52.4687C49.3351 52.6557 49.2931 52.8399 49.2162 53.0104C49.1393 53.181 49.0291 53.3344 48.8921 53.4618C48.7551 53.5891 48.5941 53.6878 48.4184 53.7521C48.2427 53.8163 48.056 53.8448 47.8691 53.8359C47.4926 53.83 47.133 53.6787 46.8654 53.4137C46.5979 53.1487 46.4431 52.7905 46.4336 52.4141C46.4382 52.0196 46.5976 51.6427 46.8775 51.3647C47.1573 51.0867 47.5352 50.9298 47.9297 50.9277Z" fill="url(#paint5_linear_320_651)"/>
<path d="M75.049 27.5451C75.072 27.2674 75.1768 27.0027 75.35 26.7844C75.5232 26.5661 75.7571 26.4039 76.0223 26.3183C76.2875 26.2327 76.5721 26.2274 76.8403 26.3032C77.1084 26.379 77.3482 26.5325 77.5293 26.7443C77.7105 26.956 77.8249 27.2167 77.8582 27.4933C77.8915 27.77 77.8422 28.0504 77.7165 28.2991C77.5908 28.5478 77.3943 28.7537 77.1518 28.891C76.9093 29.0283 76.6316 29.0907 76.3536 29.0705C76.1663 29.0601 75.9831 29.0118 75.815 28.9287C75.6468 28.8455 75.4973 28.7291 75.3754 28.5866C75.2534 28.444 75.1616 28.2782 75.1055 28.0992C75.0494 27.9203 75.0302 27.7317 75.049 27.5451Z" fill="white"/>
<path d="M54.8555 27.6602C53.9161 27.6602 52.9747 27.6836 52.0372 27.6602C51.1289 27.6289 50.5157 27.0234 50.5098 26.2305C50.5039 25.4375 51.1094 24.7812 52.0137 24.7637C53.9252 24.7246 55.8373 24.7246 57.75 24.7637C58.6739 24.7812 59.2618 25.4004 59.2696 26.209C59.2696 27.0508 58.6602 27.6387 57.6758 27.666C56.7364 27.6816 55.7969 27.6602 54.8555 27.6602Z" fill="white"/>
<defs>
<linearGradient id="paint0_linear_320_651" x1="38.1143" y1="72.5381" x2="72.797" y2="71.3719" gradientUnits="userSpaceOnUse">
<stop stop-color="#F9F295"/>
<stop offset="0.348958" stop-color="#E0AA3E"/>
<stop offset="0.703125" stop-color="#FAF398"/>
<stop offset="1" stop-color="#B88A44"/>
</linearGradient>
<linearGradient id="paint1_linear_320_651" x1="40.2676" y1="110.117" x2="60.1024" y2="109.631" gradientUnits="userSpaceOnUse">
<stop stop-color="#F9F295"/>
<stop offset="0.348958" stop-color="#E0AA3E"/>
<stop offset="0.703125" stop-color="#FAF398"/>
<stop offset="1" stop-color="#B88A44"/>
</linearGradient>
<linearGradient id="paint2_linear_320_651" x1="66.6133" y1="110.106" x2="69.6422" y2="110.095" gradientUnits="userSpaceOnUse">
<stop stop-color="#F9F295"/>
<stop offset="0.348958" stop-color="#E0AA3E"/>
<stop offset="0.703125" stop-color="#FAF398"/>
<stop offset="1" stop-color="#B88A44"/>
</linearGradient>
<linearGradient id="paint3_linear_320_651" x1="46.416" y1="59.3899" x2="63.8943" y2="55.874" gradientUnits="userSpaceOnUse">
<stop stop-color="#F9F295"/>
<stop offset="0.348958" stop-color="#E0AA3E"/>
<stop offset="0.703125" stop-color="#FAF398"/>
<stop offset="1" stop-color="#B88A44"/>
</linearGradient>
<linearGradient id="paint4_linear_320_651" x1="53.2695" y1="53.8429" x2="64.2922" y2="52.4759" gradientUnits="userSpaceOnUse">
<stop stop-color="#F9F295"/>
<stop offset="0.348958" stop-color="#E0AA3E"/>
<stop offset="0.703125" stop-color="#FAF398"/>
<stop offset="1" stop-color="#B88A44"/>
</linearGradient>
<linearGradient id="paint5_linear_320_651" x1="46.4336" y1="53.8375" x2="49.4373" y2="53.7366" gradientUnits="userSpaceOnUse">
<stop stop-color="#F9F295"/>
<stop offset="0.348958" stop-color="#E0AA3E"/>
<stop offset="0.703125" stop-color="#FAF398"/>
<stop offset="1" stop-color="#B88A44"/>
</linearGradient>
</defs>
</svg>
