<svg width="140" height="140" viewBox="0 0 140 140" fill="none" xmlns="http://www.w3.org/2000/svg">
<path d="M92.9922 20C93.2441 20.3262 93.5957 20.6172 93.7266 20.9766C94.1172 22.0762 93.3711 22.918 92.043 22.9297C85.5156 22.9297 78.9876 22.9297 72.459 22.9297C71.7785 22.9223 71.0987 22.9759 70.4277 23.0898C66.7168 23.7676 63.9824 26.8906 63.9316 30.668C63.8613 36.1992 63.8965 41.7324 63.9316 47.2695C63.9683 47.6679 64.1564 48.037 64.457 48.3008C66.7461 50.2266 67.8516 52.6719 67.8457 55.6543C67.8457 60.7324 67.8574 65.8105 67.8281 70.8887C67.8281 71.5762 67.9922 72.0352 68.6738 72.1836C69.8691 72.4394 71.0703 72.8496 72.2715 72.8652C77.8887 72.9375 83.5078 72.8965 89.1269 72.8984C90.7676 72.8984 91.1992 73.3359 91.2031 74.9824C91.2031 76.5742 91.2031 78.168 91.2031 79.9766C91.6074 79.6875 91.8828 79.5039 92.1445 79.3027C94.6211 77.4062 97.1094 75.5254 99.5664 73.5977C100.167 73.0985 100.935 72.8447 101.715 72.8867C102.979 72.9277 104.254 72.9023 105.514 72.8965C110.477 72.8769 113.891 69.4688 113.898 64.4805C113.911 55.1055 113.911 45.7344 113.898 36.3672C113.898 34.6094 113.916 32.8516 113.898 31.0938C113.82 26.3535 110.391 22.9609 105.646 22.9297C104.51 22.9297 103.373 22.916 102.236 22.9297C101.432 22.9414 100.623 22.9551 100.283 22.0352C99.9648 21.1836 100.359 20.5391 100.99 19.9961H107.229C108.064 20.2363 108.918 20.4258 109.732 20.7266C113.91 22.2754 116.777 26.2168 116.795 30.6699C116.838 42.1556 116.838 53.6432 116.795 65.1328C116.762 70.957 112.068 75.5586 106.131 75.8105C105.904 75.833 105.676 75.833 105.449 75.8105C102.617 75.3535 100.371 76.3613 98.2422 78.248C95.9648 80.2695 93.4219 81.9941 91.0039 83.8574C90.4375 84.2949 89.8809 84.6387 89.1387 84.2754C88.3574 83.9023 88.2695 83.2383 88.2754 82.4785C88.2949 80.3047 88.2754 78.1309 88.2754 75.9199C81.4512 75.4394 74.6543 76.4453 67.8906 75.252V82.6016H68.9629C72.6016 82.6016 76.2441 82.7324 79.875 82.5703C84.582 82.3594 87.9453 85.6094 87.6582 90.4316C87.541 92.4101 87.6582 94.4004 87.627 96.3848C87.6055 97.582 86.748 98.2246 85.6914 97.8965C84.9102 97.6504 84.7148 97.0254 84.7148 96.2851C84.7148 94.1693 84.7148 92.054 84.7148 89.9395C84.7031 87.0254 83.2402 85.5391 80.3457 85.5352C74.3691 85.526 68.3926 85.526 62.416 85.5352C59.4863 85.5352 58.0215 87 58.0176 89.9004C58.0098 95.89 58.0098 101.88 58.0176 107.869C58.0176 110.693 59.5371 112.188 62.3652 112.189C65.4186 112.189 68.472 112.189 71.5254 112.189C73.3711 112.189 73.7383 112.559 73.7461 114.408C73.7461 114.701 73.7461 114.994 73.7461 115.436C73.9854 115.313 74.2181 115.178 74.4434 115.031C75.0076 114.648 75.5465 114.228 76.0566 113.775C77.3457 112.527 78.8047 112.043 80.6309 112.148C83.0684 112.287 84.6367 110.639 84.7109 108.182C84.7344 107.369 84.6914 106.553 84.7402 105.742C84.793 104.824 85.3047 104.359 86.1641 104.354C87.0234 104.348 87.6074 104.812 87.6055 105.721C87.6055 107.178 87.6699 108.678 87.3516 110.08C87.0291 111.523 86.2166 112.811 85.0522 113.723C83.8878 114.635 82.4435 115.115 80.9648 115.082C79.7086 115.029 78.4818 115.471 77.5488 116.314C76.0527 117.598 74.4668 118.775 72.9199 119.996H71.7481C70.9902 119.41 70.7305 118.652 70.8066 117.705C70.873 116.898 70.8203 116.082 70.8203 115.121H69.7402C67.2012 115.121 64.6719 115.121 62.1387 115.121C57.9727 115.104 55.125 112.268 55.0977 108.051C55.0664 103.07 55.0977 98.0898 55.0977 93.1094V91.9258C54.6602 92.2402 54.3848 92.4277 54.1211 92.6328C52.1133 94.1797 50.1081 95.7305 48.1055 97.2852C47.5391 97.7285 46.9707 98.0527 46.2363 97.7129C45.4551 97.3516 45.3594 96.6719 45.3691 95.9141C45.3867 94.3262 45.3691 92.7383 45.3691 91.0059H44.1367C40.2305 91.0059 36.3379 91.0332 32.4395 91.0059C27.7266 90.9648 24.1758 88.0762 23.3184 83.6543C23.2305 83.1743 23.1873 82.6872 23.1895 82.1992C23.1803 77.3164 23.1803 72.4336 23.1895 67.5508C23.1895 66.3691 23.7969 65.7812 24.8281 65.8926C25.6543 65.9824 26.0918 66.5215 26.1035 67.5527C26.123 69.1797 26.1035 70.8086 26.1035 72.4355C26.1035 75.4961 26.1035 78.5547 26.1035 81.6152C26.1133 85.5898 28.5664 88.0605 32.5488 88.0801C37.041 88.0996 41.5156 88.0801 45.998 88.0801C47.9297 88.0801 48.2871 88.4355 48.2891 90.3477C48.2891 91.2852 48.2891 92.2246 48.2891 93.3145C48.623 93.1094 48.8398 93 49.0312 92.8535C50.9355 91.3867 52.8457 89.9238 54.7305 88.4297C55.0183 88.1857 55.2315 87.8655 55.3457 87.5059C56.2637 84.6191 58.5742 82.7891 61.6074 82.6387C62.6699 82.5879 63.7363 82.6387 64.9141 82.6387V81.457C64.9141 72.8945 64.9141 64.3333 64.9141 55.7734C64.9082 51.8359 62.3828 49.2969 58.4414 49.2969C49.7995 49.2891 41.1576 49.2891 32.5156 49.2969C28.6094 49.2969 26.1172 51.7988 26.0977 55.6934C26.0977 56.5391 26.1133 57.3867 26.0977 58.2324C26.0703 59.3262 25.543 59.8828 24.5977 59.8691C23.6523 59.8555 23.1738 59.3438 23.1914 58.2715C23.2148 56.6797 23.1172 55.0566 23.4023 53.5078C23.7673 51.5199 24.814 49.7214 26.3624 48.4223C27.9107 47.1232 29.8637 46.4047 31.8848 46.3906C40.9824 46.3359 50.0781 46.3691 59.1758 46.3789C59.7207 46.3789 60.2656 46.4824 60.9336 46.5488C60.9531 46.1836 60.9863 45.8457 60.9863 45.5078C60.9863 40.8841 60.9863 36.2617 60.9863 31.6406C60.9863 25.4668 64.3066 21.3965 70.3301 20.1309C70.4205 20.0982 70.5065 20.0542 70.5859 20H92.9922Z" fill="white"/>
<path d="M46.4593 73.8788H42.9554C42.6807 75.5064 42.4053 77.1307 42.1293 78.7518C41.9339 79.9452 41.3031 80.5097 40.3714 80.3554C39.4613 80.2011 39.055 79.4237 39.2582 78.2225C39.4945 76.8143 39.7308 75.4061 39.9964 73.8202H37.0668C36.6136 73.8202 36.1566 73.8417 35.6996 73.8007C34.7738 73.7206 34.2191 73.1268 34.2484 72.2948C34.2757 71.5018 34.8168 70.9452 35.7113 70.912C36.9105 70.869 38.1136 70.8944 39.3148 70.8905H40.4711L41.057 67.2987C39.2367 67.2987 37.555 67.3143 35.8734 67.2987C34.8636 67.287 34.2621 66.7343 34.2464 65.8788C34.2289 64.994 34.8695 64.3944 35.9164 64.3827C37.7621 64.3632 39.6097 64.3827 41.5433 64.3827C41.8089 62.7948 42.0648 61.2577 42.3246 59.7362C42.3607 59.4783 42.4115 59.2227 42.4769 58.9706C42.7211 58.1249 43.3441 57.705 44.1507 57.8651C44.9867 58.0331 45.3871 58.6034 45.2992 59.4159C45.1722 60.5878 44.9515 61.7284 44.7718 62.8847C44.7015 63.3339 44.6351 63.7811 44.555 64.3085H48.0472C48.2816 62.9218 48.5179 61.5194 48.7562 60.1171C48.8148 59.7636 48.8617 59.4081 48.9515 59.0604C49.1605 58.1698 49.8187 57.7147 50.6546 57.8632C51.4535 58.0038 51.9476 58.7186 51.8089 59.6093C51.5726 61.1483 51.307 62.6835 51.0277 64.3807C52.3949 64.3807 53.682 64.3378 54.9613 64.4042C55.4437 64.4276 56.0765 64.5702 56.3461 64.9003C56.6156 65.2304 56.7992 66.0018 56.6156 66.3808C56.4726 66.6166 56.2792 66.8179 56.0492 66.9702C55.8193 67.1225 55.5585 67.222 55.2855 67.2616C53.7386 67.3729 52.18 67.3026 50.5589 67.3026C50.3636 68.4862 50.1683 69.5956 49.9437 70.9003H52.8734C53.6839 70.9003 54.4964 70.8749 55.307 70.9198C56.2152 70.9686 56.7406 71.5058 56.7679 72.3026C56.7972 73.1444 56.2562 73.7733 55.3226 73.8026C53.6683 73.8554 52.0023 73.8534 50.3558 73.8163C49.6761 73.8007 49.389 73.9784 49.305 74.7089C49.1468 76.0936 48.8695 77.4667 48.6195 78.8417C48.4105 79.9843 47.7933 80.5116 46.8851 80.3651C45.9769 80.2186 45.5707 79.4608 45.7543 78.3456C45.9769 76.8964 46.2035 75.455 46.4593 73.8788ZM47.5394 67.3046C46.4437 67.3046 45.4457 67.289 44.4496 67.3222C44.3484 67.339 44.2531 67.3807 44.172 67.4434C44.0909 67.5061 44.0265 67.5879 43.9847 67.6815C43.7894 68.7147 43.6312 69.7577 43.4613 70.8163H46.9769C47.1605 69.6386 47.3441 68.5292 47.5394 67.3046Z" fill="url(#paint0_linear_320_649)"/>
<path d="M79.7483 97.6913C79.7483 99.6444 79.0901 101.42 77.6253 102.65C75.9007 104.099 73.969 105.308 72.0765 106.543C71.7425 106.762 71.0725 106.764 70.7093 106.576C68.5374 105.471 66.4124 104.267 64.7893 102.381C63.1663 100.494 62.5745 98.3495 63.1936 95.9354C64.0686 92.5194 67.7874 90.9882 70.846 92.7147C70.9847 92.7887 71.1375 92.8325 71.2944 92.8433C71.4512 92.8541 71.6086 92.8316 71.7561 92.7772C75.5901 90.7245 79.7757 93.2831 79.7483 97.6913ZM65.8811 97.6913C65.8811 98.8222 66.2561 99.8632 67.0979 100.57C68.3323 101.607 69.6897 102.5 71.014 103.428C71.1043 103.483 71.2064 103.516 71.312 103.524C71.4176 103.532 71.5236 103.515 71.6214 103.474C73.094 102.377 74.6565 101.361 75.9632 100.088C76.9397 99.1425 77.094 97.7577 76.5823 96.4354C76.4381 96.0336 76.1795 95.6826 75.8384 95.4258C75.4972 95.169 75.0885 95.0176 74.6624 94.9901C74.2911 94.9326 73.9112 94.9869 73.571 95.1463C73.2308 95.3056 72.9457 95.5626 72.7522 95.8847C71.8499 97.2147 70.887 97.2186 69.9475 95.9022C69.4514 95.205 68.8167 94.8534 67.9554 94.9472C66.7034 95.08 65.8987 96.16 65.8987 97.6893L65.8811 97.6913Z" fill="white"/>
<path d="M82.8027 63.4728C82.166 63.6447 81.5488 63.9416 80.9258 63.9572C78.582 64.0158 76.25 63.9865 73.9121 63.9787C72.5664 63.9787 72.0898 63.51 72.0879 62.1682C72.0801 56.5054 72.0801 50.8413 72.0879 45.176C72.0879 43.8244 72.5527 43.3596 73.9023 43.3517C76.2734 43.3381 78.6445 43.3244 81.0137 43.3654C81.5605 43.3654 82.1055 43.6057 82.875 43.7873C84.3223 42.0627 86.043 40.2717 87.4316 38.256C88.1641 37.1974 88.3594 35.7424 88.7324 34.4533C88.8945 33.9006 88.8164 33.2678 89.0098 32.7307C89.1896 32.1855 89.5299 31.7073 89.9861 31.3588C90.4423 31.0103 90.9931 30.8077 91.5664 30.7775C92.137 30.6995 92.7178 30.8011 93.2281 31.0681C93.7384 31.3351 94.1529 31.7544 94.4141 32.2678C96.0996 35.3068 96.3672 38.4826 95.2246 41.7717C95.0898 42.1623 94.9473 42.5529 94.7715 43.0471C97.1016 43.0471 99.3359 43.0471 101.57 43.0471C104.168 43.0471 105.701 44.5646 105.705 47.1486C105.713 51.6395 105.713 56.1317 105.705 60.6252C105.705 62.9084 104.289 64.5881 102.059 64.6193C97.125 64.6916 92.1855 64.7014 87.2539 64.549C85.7383 64.4982 84.2578 63.8381 82.8027 63.4728ZM91.9082 33.8439C91.8008 33.9767 91.7441 34.0197 91.7266 34.0744C91.699 34.1677 91.6839 34.2642 91.6816 34.3615C91.5488 37.3303 90.3145 39.7971 88.3379 41.9611C86.6595 43.8153 85.0052 45.6948 83.375 47.5998C83.0849 47.9312 82.9108 48.3481 82.8789 48.7873C82.8398 52.1727 82.8398 55.5581 82.8789 58.9435C82.9215 59.3702 83.1247 59.7647 83.4473 60.0471C84.8145 61.2189 86.4375 61.7228 88.2129 61.7287C92.6309 61.7404 97.0495 61.7404 101.469 61.7287C102.555 61.7287 102.768 61.4943 102.768 60.3947C102.768 56.0314 102.768 51.6695 102.768 47.3088C102.768 46.1369 102.596 45.9826 101.381 45.9787C98.5547 45.9787 95.7266 45.9787 92.9004 45.9592C91.3203 45.9494 90.7168 45.0412 91.293 43.59C91.748 42.4435 92.2793 41.3205 92.6328 40.1428C93.291 37.9689 93.0254 35.883 91.9082 33.8439ZM79.8926 46.3439H75.0781V60.9924H79.8945L79.8926 46.3439Z" fill="url(#paint1_linear_320_649)"/>
<defs>
<linearGradient id="paint0_linear_320_649" x1="34.2461" y1="80.3891" x2="57.5001" y2="79.6084" gradientUnits="userSpaceOnUse">
<stop stop-color="#F9F295"/>
<stop offset="0.348958" stop-color="#E0AA3E"/>
<stop offset="0.703125" stop-color="#FAF398"/>
<stop offset="1" stop-color="#B88A44"/>
</linearGradient>
<linearGradient id="paint1_linear_320_649" x1="72.082" y1="64.67" x2="106.803" y2="63.5125" gradientUnits="userSpaceOnUse">
<stop stop-color="#F9F295"/>
<stop offset="0.348958" stop-color="#E0AA3E"/>
<stop offset="0.703125" stop-color="#FAF398"/>
<stop offset="1" stop-color="#B88A44"/>
</linearGradient>
</defs>
</svg>
