<svg width="140" height="140" viewBox="0 0 140 140" fill="none" xmlns="http://www.w3.org/2000/svg">
<path d="M26.6835 64.9686V96.7069H64.0038C64.3515 96.7069 64.7011 96.6873 65.0448 96.7186C65.9725 96.8026 66.6171 97.4725 66.6366 98.3397C66.6561 99.2479 65.9882 99.951 65.0116 100.037C64.7694 100.058 64.5253 100.047 64.2811 100.047H25.6268C23.7948 100.047 23.2987 99.5409 23.2987 97.6815C23.2987 85.3286 23.2987 72.9751 23.2987 60.6209C23.2827 60.3429 23.2892 60.064 23.3183 59.787C23.4667 58.8827 24.0058 58.3553 24.9257 58.2987C25.3486 58.2805 25.7618 58.4288 26.0765 58.7118C26.3913 58.9948 26.5826 59.3899 26.6093 59.8123C26.662 60.3612 26.6093 60.9198 26.6093 61.5506H34.1327C33.8222 61.2127 33.5858 60.9373 33.3319 60.6795C30.3612 57.6952 27.3632 54.7518 24.4413 51.7264C23.8647 51.1028 23.4461 50.35 23.2206 49.5311C22.1483 45.7206 21.1718 41.8748 20.164 38.0526C19.7323 36.4022 20.1132 35.7733 21.7831 35.3182L62.1698 24.492C67.5604 23.0454 72.9511 21.5942 78.3417 20.1385C80.328 19.6092 80.9081 19.9256 81.4296 21.8788C82.4491 25.7056 83.4712 29.5311 84.496 33.3553C84.9667 35.1131 84.6112 35.744 82.8241 36.2245C68.4608 40.0916 54.0949 43.9562 39.7265 47.8182C39.3806 47.8846 39.0574 48.0379 38.787 48.2635H84.1542C86.2069 48.2635 86.6522 48.7108 86.6522 50.7713C86.6522 54.7388 86.6522 58.7056 86.6522 62.6717C86.6522 64.4452 86.1288 64.9666 84.3554 64.9666H26.6835V64.9686ZM51.1815 41.2752C53.1581 40.742 54.9472 40.2147 56.7597 39.7948C57.5409 39.6131 57.9979 39.2088 58.3827 38.5291C60.1698 35.3495 62.0077 32.1991 63.8261 29.037C64.1308 28.5057 64.4257 27.9706 64.8358 27.2381C62.7597 27.7987 60.8808 28.2577 59.035 28.8299C58.4996 29.003 58.0389 29.3529 57.7284 29.8221C55.6737 33.2811 53.6815 36.7967 51.6737 40.285C51.5253 40.5428 51.4081 40.8182 51.1815 41.2752ZM53.5936 30.2674C51.4765 30.826 49.5604 31.2889 47.6776 31.8592C47.175 32.0363 46.7487 32.3812 46.4706 32.8358C44.4081 36.3319 42.3964 39.867 40.3729 43.3827C40.2284 43.6346 40.1132 43.9022 39.9081 44.3163C42.1112 43.7303 44.1464 43.1893 46.1718 42.619C46.4251 42.5244 46.6373 42.344 46.7714 42.1092C49.0116 38.2245 51.2499 34.3436 53.5936 30.2674ZM42.3202 33.2811C40.1718 33.867 38.3339 34.3123 36.5214 34.8729C35.9839 35.0395 35.519 35.3838 35.203 35.8495C33.1308 39.3358 31.1327 42.867 29.1015 46.3866C28.9628 46.6288 28.8593 46.8905 28.6561 47.3182C29.4257 47.1112 29.9882 46.9627 30.5487 46.8084C32.0839 46.3866 33.9042 46.3338 35.0722 45.4413C36.2714 44.5194 36.8456 42.7733 37.664 41.3709C39.1796 38.7596 40.6718 36.1424 42.3202 33.2811ZM62.3827 38.2577C64.4823 37.703 66.3339 37.2674 68.1464 36.6952C68.7135 36.5083 69.2004 36.1344 69.5272 35.6346C71.5839 32.1776 73.5722 28.6815 75.5819 25.1932C75.7382 24.9217 75.8593 24.6307 76.0604 24.2166C74.4179 24.66 72.9706 25.1678 71.4804 25.4178C69.9901 25.6678 69.0936 26.4334 68.3749 27.7616C66.4843 31.2498 64.453 34.6483 62.3827 38.2577ZM28.9491 51.6053C31.3847 54.0291 33.5741 56.2127 35.7714 58.3905C36.8573 59.4666 37.7851 60.9295 39.0917 61.4823C40.3612 62.0194 42.0214 61.619 43.5214 61.6268C44.2499 61.6268 44.9765 61.6268 45.9276 61.6268C42.5761 58.2655 39.4374 55.1112 36.287 51.9706C36.1003 51.777 35.8527 51.6536 35.5858 51.6209C33.4765 51.5936 31.3768 51.6053 28.9491 51.6053ZM57.6268 61.6248C55.4179 59.4159 53.4315 57.4217 51.4354 55.4354C50.1561 54.162 49.0643 52.41 47.5292 51.7713C45.994 51.1327 43.9745 51.6131 42.1698 51.6034H40.703C44.0409 54.9569 47.1776 58.1112 50.328 61.2538C50.5122 61.4496 50.7587 61.5752 51.0253 61.6092C53.1249 61.6366 55.2323 61.6248 57.6268 61.6248ZM69.0663 61.6248C69.0077 61.4413 69.0058 61.3651 68.9667 61.326C65.8534 58.201 62.7356 55.076 59.6132 51.951C59.4555 51.7747 59.2415 51.6587 59.0077 51.6229C56.8729 51.5995 54.7362 51.6073 52.5624 51.6073C52.621 51.787 52.6229 51.8631 52.66 51.9022C55.7746 55.0272 58.8944 58.1522 62.0194 61.2772C62.2419 61.4806 62.5288 61.5995 62.83 61.6131C64.8749 61.6385 66.9237 61.6268 69.0663 61.6268V61.6248ZM80.9804 61.6248C77.5819 58.2264 74.3944 55.035 71.1991 51.8592C71.0838 51.7327 70.9274 51.651 70.7577 51.6288C68.5936 51.6131 66.4276 51.617 64.0038 51.617C67.3944 55.0096 70.58 58.203 73.7811 61.3827C73.9612 61.5359 74.1893 61.6209 74.4257 61.6229C76.4999 61.6327 78.58 61.6268 80.9765 61.6268L80.9804 61.6248ZM79.037 25.8592L73.6347 35.2342L81.0116 33.2401C80.3515 30.7733 79.7304 28.4608 79.037 25.8592ZM25.664 45.6698L31.0585 36.2948L23.6757 38.2928C24.3339 40.744 24.9647 43.0995 25.664 45.6698ZM83.3065 51.6834H76.285L83.2987 58.703L83.3065 51.6834Z" fill="white"/>
<path d="M84.9338 116.754V113.412H77.4084C72.6604 113.412 69.9865 110.733 69.9865 105.99V90.8439C69.9865 90.5646 69.9729 90.2853 69.9865 90.0079C70.0666 89.0196 70.7522 88.3536 71.6643 88.3634C72.5764 88.3732 73.2698 89.045 73.299 90.045C73.3401 91.4005 73.3127 92.7599 73.3127 94.1153C73.3127 98.187 73.3127 102.259 73.3127 106.332C73.3127 108.736 74.6506 110.07 77.0608 110.07C89.0074 110.07 100.955 110.07 112.905 110.07C115.166 110.07 116.405 108.967 116.66 106.75C116.785 105.682 117.475 105.016 118.406 105.063C119.383 105.111 120.006 105.881 119.987 107.016C119.924 110.418 117.01 113.32 113.508 113.395C111.043 113.445 108.576 113.408 106.112 113.408H105.043V116.75H106.133C109.503 116.75 112.872 116.75 116.24 116.75C117.557 116.75 118.319 117.375 118.321 118.416C118.322 119.457 117.555 120.086 116.244 120.086C102.072 120.086 87.9013 120.086 73.7307 120.086C72.4162 120.086 71.6545 119.459 71.6545 118.418C71.6545 117.377 72.4143 116.752 73.7307 116.75C77.0653 116.75 80.4 116.75 83.7346 116.75L84.9338 116.754ZM88.3596 116.68H101.567V113.469H88.3596V116.68Z" fill="url(#paint0_linear_320_650)"/>
<path d="M120 91.3926C120 94.1406 120 96.8887 120 99.6387C120 100.947 119.363 101.717 118.326 101.711C117.289 101.705 116.672 100.941 116.67 99.6211C116.67 94.3672 116.67 89.1133 116.67 83.8594C116.67 81.3047 115.373 80.0254 112.834 79.9961C111.447 79.9805 110.035 80.0605 108.685 79.8203C105.623 79.2734 103.498 76.7051 103.342 73.6074C103.219 71.207 101.957 69.9844 99.5781 69.9805C96.4882 69.9805 93.3977 69.9805 90.3066 69.9805C88.0644 69.9805 86.7617 71.252 86.6562 73.4961C86.4824 77.1875 83.6581 79.9414 79.9726 79.9922C78.8964 80.0098 77.8242 79.9824 76.7441 79.9922C74.8554 80.0273 73.5371 81.2422 73.33 83.1172C73.1913 84.3711 72.5488 85.0566 71.5605 84.9961C70.5214 84.9336 69.9199 84.0918 69.998 82.8223C70.1262 81.1945 70.8454 79.67 72.0201 78.5359C73.1948 77.4019 74.7437 76.7368 76.3749 76.666C77.5195 76.627 78.666 76.666 79.8124 76.6504C81.8574 76.625 83.2148 75.3203 83.3281 73.3008C83.539 69.3086 86.2988 66.6465 90.2597 66.6328C93.4199 66.6224 96.58 66.6224 99.7402 66.6328C103.707 66.6465 106.461 69.3066 106.67 73.3027C106.771 75.2715 108.125 76.6094 110.078 76.6484C111.187 76.6719 112.301 76.6367 113.41 76.6582C115.152 76.6795 116.816 77.3812 118.048 78.6132C119.279 79.8453 119.98 81.5102 120 83.252C120 83.3203 120 83.3906 120 83.459V91.3926Z" fill="url(#paint1_linear_320_650)"/>
<path d="M101.676 36.5705C103.309 36.5705 104.941 36.5569 106.572 36.5705C108.406 36.5901 109.871 37.3518 110.85 38.9143C111.168 39.4221 111.449 39.5295 112.021 39.3635C113.354 38.9729 114.705 38.6623 116.055 38.344C117.404 38.0256 118.316 38.7229 118.326 40.1252C118.347 43.3257 118.347 46.5276 118.326 49.7307C118.316 51.1233 117.396 51.8127 116.041 51.4885C114.686 51.1643 113.342 50.842 112.006 50.4709C111.51 50.3342 111.211 50.3401 110.9 50.8459C109.871 52.5334 108.307 53.2776 106.352 53.2717C103.191 53.2717 100.029 53.2717 96.8691 53.2717C93.8105 53.2561 91.6855 51.1408 91.6621 48.0959C91.6465 45.9722 91.6465 43.8498 91.6621 41.7287C91.6855 38.7307 93.8105 36.6018 96.7832 36.5725C98.4121 36.5569 100.043 36.5705 101.676 36.5705ZM101.602 49.9338C103.199 49.9338 104.797 49.9475 106.395 49.9338C107.691 49.9182 108.311 49.3049 108.322 48.008C108.34 45.9559 108.34 43.9032 108.322 41.8498C108.311 40.5471 107.697 39.926 106.402 39.9201C103.242 39.9045 100.082 39.9045 96.9219 39.9201C95.6191 39.9201 95.0059 40.5412 94.9941 41.842C94.9759 43.8941 94.9759 45.9468 94.9941 48.0002C95.0059 49.303 95.6172 49.9182 96.9121 49.9319C98.4746 49.9475 100.039 49.9338 101.602 49.9338ZM111.697 46.9533L114.955 47.7619V42.0705L111.697 42.8869V46.9533Z" fill="white"/>
<path d="M106.656 95.0488C106.654 96.5885 106.349 98.1128 105.756 99.534C105.164 100.955 104.297 102.245 103.204 103.331C102.112 104.416 100.816 105.275 99.3913 105.858C97.9663 106.441 96.4401 106.737 94.9004 106.729C88.5547 106.719 83.3145 101.445 83.3203 95.0781C83.3185 93.5389 83.62 92.0143 84.2075 90.5916C84.795 89.1689 85.657 87.8758 86.7444 86.7863C87.8317 85.6968 89.123 84.8322 90.5446 84.2419C91.9661 83.6515 93.49 83.347 95.0293 83.3457C101.428 83.3418 106.662 88.6094 106.656 95.0488ZM103.322 95.0371C103.322 90.4629 99.6113 86.707 95.0684 86.6856C93.4126 86.6662 91.7884 87.1395 90.4022 88.0453C89.016 88.9512 87.9304 90.2486 87.2833 91.7729C86.6361 93.2971 86.4568 94.9793 86.7679 96.6057C87.079 98.2322 87.8666 99.7294 89.0306 100.907C90.1946 102.085 91.6825 102.89 93.3051 103.22C94.9278 103.551 96.612 103.391 98.1437 102.762C99.6755 102.133 100.986 101.062 101.908 99.687C102.83 98.3115 103.322 96.693 103.322 95.0371Z" fill="url(#paint2_linear_320_650)"/>
<path d="M46.639 79.9473C46.639 77.3047 46.639 74.6621 46.639 72.0195C46.6488 70.2617 47.7797 69.5234 49.3265 70.293C54.6664 72.9492 59.9906 75.6328 65.3226 78.3008C66.0472 78.6641 66.6312 79.123 66.6312 80.0117C66.6312 80.9004 66.0453 81.3496 65.3207 81.7129C60.014 84.3574 54.7211 87.0234 49.4144 89.666C47.7426 90.498 46.6449 89.7793 46.6371 87.8769C46.6332 85.2344 46.639 82.5898 46.639 79.9473ZM50.0297 85.625L61.2465 79.9961L50.0297 74.375V85.625Z" fill="white"/>
<path d="M95.0842 73.3201C96.1252 73.3201 97.1682 73.2986 98.2092 73.3201C99.2502 73.3416 99.9768 74.0271 99.9826 74.9724C99.9885 75.9178 99.2873 76.6287 98.2248 76.6424C96.0725 76.671 93.9195 76.671 91.7658 76.6424C90.6975 76.6287 90.008 75.9373 89.9943 74.99C89.9807 74.0427 90.6857 73.3494 91.7521 73.3201C92.8615 73.2986 93.9729 73.3201 95.0842 73.3201Z" fill="url(#paint3_linear_320_650)"/>
<path d="M81.6426 105.057C81.6426 105.384 81.5454 105.705 81.3634 105.977C81.1814 106.25 80.9226 106.463 80.6198 106.588C80.3171 106.714 79.9839 106.747 79.6623 106.683C79.3408 106.62 79.0453 106.462 78.8132 106.231C78.5812 105.999 78.4229 105.704 78.3585 105.383C78.2941 105.061 78.3264 104.728 78.4513 104.425C78.5762 104.122 78.7881 103.862 79.0603 103.68C79.3325 103.497 79.6527 103.399 79.9805 103.398C80.419 103.403 80.8383 103.58 81.1488 103.889C81.4593 104.199 81.6365 104.618 81.6426 105.057Z" fill="url(#paint4_linear_320_650)"/>
<path d="M95.0001 90.0332C95.9883 90.0352 96.9538 90.3296 97.775 90.8793C98.5962 91.4291 99.2363 92.2096 99.6147 93.1226C99.993 94.0355 100.093 95.04 99.9011 96.0095C99.7095 96.979 99.2353 97.8701 98.5381 98.5705C97.841 99.2709 96.9521 99.7493 95.9835 99.9454C95.0149 100.141 94.01 100.046 93.0953 99.6724C92.1806 99.2983 91.3971 98.6619 90.8435 97.8433C90.2899 97.0246 89.991 96.0605 89.9844 95.0723C89.9811 94.4116 90.1084 93.7567 90.359 93.1454C90.6095 92.534 90.9785 91.9782 91.4446 91.5099C91.9107 91.0417 92.4648 90.6701 93.0749 90.4167C93.6851 90.1633 94.3394 90.0329 95.0001 90.0332ZM94.963 93.375C94.6325 93.3778 94.3103 93.479 94.0375 93.6657C93.7648 93.8523 93.5538 94.116 93.4314 94.423C93.3091 94.73 93.2809 95.0665 93.3506 95.3896C93.4202 95.7127 93.5845 96.0077 93.8224 96.2371C94.0604 96.4665 94.3613 96.6198 94.6867 96.6775C95.0121 96.7352 95.3473 96.6947 95.6497 96.5612C95.952 96.4276 96.2077 96.2071 96.3842 95.9276C96.5607 95.6482 96.65 95.3226 96.6407 94.9922C96.6265 94.5587 96.4444 94.1476 96.1328 93.8459C95.8212 93.5441 95.4045 93.3753 94.9708 93.375H94.963Z" fill="url(#paint5_linear_320_650)"/>
<defs>
<linearGradient id="paint0_linear_320_650" x1="69.9805" y1="120.086" x2="121.524" y2="117.354" gradientUnits="userSpaceOnUse">
<stop stop-color="#F9F295"/>
<stop offset="0.348958" stop-color="#E0AA3E"/>
<stop offset="0.703125" stop-color="#FAF398"/>
<stop offset="1" stop-color="#B88A44"/>
</linearGradient>
<linearGradient id="paint1_linear_320_650" x1="69.9912" y1="101.711" x2="121.563" y2="99.2395" gradientUnits="userSpaceOnUse">
<stop stop-color="#F9F295"/>
<stop offset="0.348958" stop-color="#E0AA3E"/>
<stop offset="0.703125" stop-color="#FAF398"/>
<stop offset="1" stop-color="#B88A44"/>
</linearGradient>
<linearGradient id="paint2_linear_320_650" x1="83.3203" y1="106.729" x2="107.414" y2="105.92" gradientUnits="userSpaceOnUse">
<stop stop-color="#F9F295"/>
<stop offset="0.348958" stop-color="#E0AA3E"/>
<stop offset="0.703125" stop-color="#FAF398"/>
<stop offset="1" stop-color="#B88A44"/>
</linearGradient>
<linearGradient id="paint3_linear_320_650" x1="89.9941" y1="76.6638" x2="100.216" y2="75.6401" gradientUnits="userSpaceOnUse">
<stop stop-color="#F9F295"/>
<stop offset="0.348958" stop-color="#E0AA3E"/>
<stop offset="0.703125" stop-color="#FAF398"/>
<stop offset="1" stop-color="#B88A44"/>
</linearGradient>
<linearGradient id="paint4_linear_320_650" x1="78.3262" y1="106.715" x2="81.7502" y2="106.6" gradientUnits="userSpaceOnUse">
<stop stop-color="#F9F295"/>
<stop offset="0.348958" stop-color="#E0AA3E"/>
<stop offset="0.703125" stop-color="#FAF398"/>
<stop offset="1" stop-color="#B88A44"/>
</linearGradient>
<linearGradient id="paint5_linear_320_650" x1="89.9844" y1="100.045" x2="100.321" y2="99.6974" gradientUnits="userSpaceOnUse">
<stop stop-color="#F9F295"/>
<stop offset="0.348958" stop-color="#E0AA3E"/>
<stop offset="0.703125" stop-color="#FAF398"/>
<stop offset="1" stop-color="#B88A44"/>
</linearGradient>
</defs>
</svg>
