<svg width="140" height="140" viewBox="0 0 140 140" fill="none" xmlns="http://www.w3.org/2000/svg">
<path d="M119.889 100.563C119.882 99.746 119.812 98.931 119.678 98.1252C118.989 93.8752 115.426 92.0491 111.561 93.9592C108.772 95.3264 106.02 95.301 103.215 93.9494C102.354 93.5343 101.422 93.2871 100.469 93.2209C98.5159 93.0998 97.0295 94.0901 95.8772 95.7327C95.717 95.4885 95.6077 95.342 95.5217 95.1916C93.0478 90.7424 90.5803 86.2925 88.1194 81.842C88.012 81.6467 87.8577 81.4377 87.8616 81.2385C87.9202 78.5647 87.9124 75.8909 88.1233 73.2307C88.2268 71.9358 89.4202 71.4729 90.6526 71.9768C91.5784 72.3576 92.4788 72.8186 93.4338 73.0842C96.5335 73.9436 99.5315 73.5979 102.418 72.1858C104.176 71.3244 105.125 71.8108 105.489 73.7483C105.58 74.258 105.612 74.7776 105.657 75.2971C105.754 76.4201 106.494 77.1623 107.494 77.1272C108.494 77.092 109.252 76.3108 109.198 75.1741C109.158 74.1726 109.019 73.1775 108.783 72.2034C107.936 68.8459 104.471 67.2483 101.334 68.7151C100.738 69.0252 100.123 69.2979 99.4924 69.5315C97.0374 70.3342 94.6897 70.0198 92.387 68.8694C88.801 67.0842 85.1917 68.9573 84.5002 72.9026C84.4045 73.4416 84.3362 73.9826 84.2561 74.5159L82.7502 73.5159H57.2503L55.7249 74.4924C55.6526 73.9924 55.5901 73.4827 55.5061 72.9807C54.8909 69.2151 51.3616 67.0491 48.1038 68.6584C44.8049 70.2873 41.7131 70.3108 38.426 68.6584C37.7973 68.3482 37.1107 68.173 36.4102 68.1442C35.7097 68.1154 35.011 68.2336 34.3589 68.4912C33.7069 68.7487 33.116 69.14 32.6243 69.6397C32.1327 70.1395 31.7511 70.7367 31.5042 71.3928C31.0569 72.6213 30.9319 73.9963 30.8303 75.3147C30.7503 76.3596 31.5745 77.1096 32.5413 77.1311C33.5081 77.1526 34.2405 76.4455 34.3538 75.3889C34.428 74.7248 34.4592 74.053 34.5901 73.4006C34.8909 71.9143 35.9573 71.3576 37.3245 72.0334C41.2835 74.0256 45.221 74.0393 49.1838 72.053C50.594 71.3459 51.7854 71.8869 51.9397 73.4612C52.1487 75.5979 52.1174 77.758 52.1682 79.9065C52.1537 80.1267 52.0749 80.3379 51.9417 80.5139C48.926 85.0608 45.9006 89.6018 42.8069 94.2502C41.0491 93.1233 39.2366 92.7034 37.4475 93.6311C34.1878 95.3225 31.0667 95.3166 27.7717 93.6584C24.842 92.1819 21.3987 93.8987 20.5647 97.0803C20.2933 98.0899 20.1464 99.1288 20.1272 100.174C20.0842 106.047 20.0999 111.924 20.1096 117.803C20.1096 119.338 20.7463 119.983 22.2581 119.992C24.3753 120.004 26.4911 120.004 28.6057 119.992C29.9729 119.992 30.7073 119.383 30.7424 118.264C30.7815 117.106 30.01 116.434 28.6038 116.428C26.9846 116.428 25.3616 116.428 23.721 116.428C23.6995 116.114 23.678 115.934 23.678 115.756C23.678 110.547 23.678 105.34 23.6917 100.131C23.7047 99.5392 23.778 98.9503 23.9104 98.3733C24.2112 96.9514 25.2776 96.3733 26.5647 97.0256C30.6038 99.0647 34.6096 99.0608 38.6331 97.008C39.3772 96.6291 40.1018 96.6409 40.7366 97.383C38.8049 100.293 36.8713 103.153 35.0081 106.061C34.6365 106.647 34.4263 107.321 34.3987 108.014C34.3362 111.248 34.3655 114.487 34.3713 117.721C34.3713 119.397 34.9807 120.004 36.6565 120.004C57.7021 120.004 78.7496 120.004 99.7991 120.004C101.471 120.004 102.08 119.395 102.084 117.721C102.084 114.522 102.114 111.324 102.063 108.127C102.045 107.43 101.87 106.746 101.553 106.125C100.469 104.039 99.2659 102.031 98.1838 99.9534C98.0139 99.6291 98.1213 99.0901 98.2483 98.6994C98.3753 98.3088 98.6799 98.0119 98.9241 97.6858C99.635 96.7092 100.346 96.5334 101.434 97.0119C102.108 97.3127 102.772 97.6584 103.471 97.8909C106.768 98.9748 109.977 98.7053 113.09 97.1877C114.848 96.3323 115.813 96.7971 116.164 98.7502C116.275 99.4085 116.329 100.075 116.326 100.742C116.342 105.541 116.326 110.338 116.326 115.135V116.424C113.434 116.424 110.662 116.424 107.885 116.424C106.453 116.424 105.692 117.055 105.688 118.205C105.684 119.356 106.438 119.985 107.881 119.989C111.112 119.989 114.341 119.989 117.569 119.989C119.301 119.989 119.889 119.387 119.893 117.629C119.899 111.943 119.898 106.254 119.889 100.563ZM40.1057 104.766C46.0497 95.831 51.9892 86.8928 57.9241 77.9514C58.3147 77.3655 58.7053 77.1135 59.4319 77.1174C66.4436 77.1467 73.4573 77.1389 80.469 77.1291C81.0452 77.1291 81.4768 77.1682 81.8225 77.7952C86.8316 86.9045 91.8635 96.0009 96.9182 105.084C97.0042 105.235 97.0706 105.403 97.2014 105.67H39.5842C39.7913 105.319 39.9338 105.035 40.1057 104.766ZM98.4592 109.35V116.367H38.0139V109.358L98.4592 109.35ZM61.092 71.3108V70.9377C61.092 66.553 61.0784 62.1662 61.1038 57.7795C61.108 56.925 61.2062 56.0735 61.3967 55.2405C61.442 55.0008 61.5396 54.7741 61.6824 54.5765C61.8253 54.3788 62.0099 54.215 62.2233 54.0968C62.4366 53.9786 62.6733 53.9088 62.9166 53.8925C63.16 53.8761 63.4039 53.9136 63.6311 54.0022C65.1272 54.5198 66.5999 55.094 68.1663 55.6741C67.1487 59.0159 66.1038 62.4475 65.0569 65.8791C64.5256 67.6194 64.6038 67.8752 66.0081 69.0295C66.8987 69.7619 67.7913 70.4846 68.678 71.2209C69.5647 71.9573 70.4163 71.9494 71.303 71.2502C72.3499 70.4201 73.3909 69.5803 74.4631 68.7854C75.3733 68.1135 75.5667 67.2893 75.2346 66.2463C74.1858 62.9534 73.1663 59.6487 72.1487 56.3635C72.0745 56.1213 72.0237 55.8694 71.967 55.6487C73.5295 55.0764 75.012 54.4455 76.5549 53.9827C77.4729 53.7073 78.2737 54.1252 78.5667 55.0959C78.7754 55.7702 78.8891 56.4703 78.9045 57.176C78.9299 62.4494 78.9182 65.883 78.9182 71.1604C78.9211 71.2105 78.9211 71.2607 78.9182 71.3108H82.4944C82.4944 66.3323 82.5178 63.0764 82.4768 57.969C82.4736 56.7825 82.338 55.6 82.0725 54.4436C81.2268 50.9494 77.7385 49.3791 74.4866 50.9377C73.9266 51.2252 73.3478 51.4745 72.7542 51.6838C70.2522 52.5002 67.8831 52.1194 65.5432 50.9592C62.2503 49.3244 58.7893 50.9592 57.926 54.5393C57.6727 55.6608 57.5475 56.8075 57.553 57.9573C57.5159 63.0647 57.5354 66.3186 57.5354 71.3108H61.092ZM68.7463 65.9143C69.1956 64.6389 69.5647 63.3342 69.967 62.0432L70.1897 62.0764C70.5803 63.344 70.9163 64.633 71.3909 65.8674C71.7483 66.7951 70.9788 66.9475 70.5413 67.2698C70.3862 67.3502 70.214 67.3922 70.0393 67.3922C69.8646 67.3922 69.6924 67.3502 69.5374 67.2698C69.094 66.9826 68.4553 66.7366 68.7463 65.9143Z" fill="white"/>
<path d="M27.2363 59.2869C27.2363 59.947 27.2148 60.4588 27.2363 60.9783C27.293 62.1502 27.9512 62.8162 29.1426 62.8494C30.2188 62.8806 31.291 62.8494 32.3711 62.8631C33.584 62.8904 34.3613 63.617 34.3477 64.6658C34.334 65.7146 33.5664 66.4041 32.3262 66.4236C31.1758 66.4431 30.0254 66.4548 28.875 66.4236C26.0117 66.3357 23.6895 64.0798 23.6816 61.2048C23.6504 49.2257 23.6504 37.2465 23.6816 25.2673C23.6914 22.3025 26.0547 20.031 29.0645 20.0154C33.9648 19.9861 38.8652 19.9998 43.7656 19.9998H110.143C114.307 19.9998 116.334 22.0466 116.334 26.2498C116.334 37.6326 116.334 49.0147 116.334 60.3963C116.334 64.2713 114.201 66.4177 110.357 66.4216C109.393 66.4216 108.426 66.449 107.463 66.4099C106.396 66.367 105.672 65.6404 105.652 64.6716C105.629 63.6599 106.375 62.9002 107.5 62.8611C108.502 62.8259 109.504 62.8611 110.506 62.8494C112.16 62.8377 112.76 62.2224 112.77 60.5388C112.77 60.1697 112.77 59.8005 112.77 59.2791C111.025 59.2791 109.334 59.2947 107.641 59.2791C106.514 59.2654 105.781 58.6619 105.66 57.7166C105.523 56.6404 106.33 55.7498 107.545 55.7263C109.244 55.6951 110.943 55.7263 112.715 55.7263C112.736 55.2791 112.768 54.9197 112.768 54.5545C112.768 45.0688 112.768 35.5838 112.768 26.0994C112.768 24.1189 112.232 23.5798 110.268 23.5798H29.748C27.7695 23.5779 27.2266 24.1111 27.2266 26.0779C27.2266 35.5675 27.2266 45.0525 27.2266 54.533V55.7166H30.8828C31.291 55.7166 31.6992 55.7166 32.1074 55.7166C33.5215 55.7302 34.3359 56.3689 34.3516 57.4744C34.3672 58.5798 33.543 59.2732 32.1543 59.281C30.5625 59.2947 28.9727 59.2869 27.2363 59.2869Z" fill="url(#paint0_linear_320_647)"/>
<path d="M34.3613 30.7928V45.5858C34.3613 47.0741 34.373 48.5623 34.3613 50.0487C34.3457 51.3416 33.627 52.1502 32.5508 52.1307C31.5117 52.1112 30.8086 51.3299 30.8066 50.0975C30.7949 43.1444 30.7949 36.1912 30.8066 29.2381C30.8066 27.7928 31.4707 27.1522 32.9395 27.1463C36.3555 27.1346 39.7754 27.1463 43.1836 27.1463H106.523C108.725 27.1463 109.201 27.6248 109.201 29.8201C109.201 36.3631 109.201 42.9074 109.201 49.453C109.201 49.7498 109.217 50.0487 109.201 50.3455C109.121 51.408 108.404 52.1268 107.443 52.1346C106.482 52.1424 105.729 51.4237 105.664 50.3768C105.625 49.7088 105.652 49.0389 105.652 48.369V30.7909L34.3613 30.7928Z" fill="url(#paint1_linear_320_647)"/>
<path d="M77.1248 43.2578C77.114 44.6652 76.6866 46.0379 75.8966 47.2027C75.1065 48.3674 73.9892 49.2721 72.6856 49.8026C71.3819 50.3331 69.9504 50.4656 68.5715 50.1835C67.1927 49.9013 65.9283 49.2171 64.9378 48.2171C63.9474 47.2171 63.2753 45.9463 63.0063 44.5648C62.7374 43.1833 62.8836 41.7531 63.4265 40.4546C63.9694 39.1561 64.8848 38.0475 66.0571 37.2686C67.2293 36.4897 68.606 36.0755 70.0135 36.0781C71.908 36.089 73.7209 36.8511 75.0541 38.1971C76.3874 39.5432 77.1321 41.3633 77.1248 43.2578ZM69.9998 39.6504C69.2925 39.6501 68.601 39.8599 68.0132 40.2534C67.4254 40.6468 66.9678 41.206 66.6984 41.8601C66.4291 42.5141 66.3603 43.2335 66.5006 43.9268C66.6409 44.62 66.9841 45.2559 67.4866 45.7537C67.9891 46.2516 68.6282 46.5888 69.3228 46.7226C70.0173 46.8565 70.736 46.7809 71.3875 46.5055C72.039 46.2301 72.5939 45.7672 72.9819 45.1758C73.3698 44.5843 73.5732 43.8909 73.5662 43.1836C73.5519 42.2453 73.1705 41.3499 72.5039 40.6894C71.8372 40.0289 70.9382 39.6559 69.9998 39.6504Z" fill="white"/>
<path d="M50.3942 61.127C50.3807 62.5344 49.9507 63.9062 49.1584 65.0695C48.3661 66.2327 47.2471 67.1352 45.9424 67.6632C44.6378 68.1912 43.206 68.321 41.8277 68.0362C40.4494 67.7514 39.1863 67.0647 38.1978 66.0629C37.2093 65.061 36.5396 63.7889 36.2733 62.4069C36.0069 61.0249 36.1559 59.5949 36.7013 58.2975C37.2467 57 38.1641 55.8932 39.3379 55.1165C40.5117 54.3399 41.8891 53.9283 43.2965 53.9336C45.1913 53.9476 47.003 54.713 48.3338 56.0617C49.6646 57.4105 50.4056 59.2323 50.3942 61.127ZM46.8298 61.127C46.8386 60.4221 46.6381 59.7305 46.2535 59.1397C45.8689 58.5489 45.3176 58.0856 44.6694 57.8084C44.0212 57.5312 43.3054 57.4527 42.6125 57.5828C41.9197 57.7128 41.2811 58.0456 40.7775 58.539C40.274 59.0324 39.9283 59.6641 39.7842 60.3542C39.64 61.0442 39.704 61.7615 39.9679 62.4152C40.2318 63.0689 40.6838 63.6295 41.2667 64.026C41.8495 64.4226 42.5369 64.6372 43.2419 64.6426C44.18 64.6403 45.08 64.2717 45.7503 63.6154C46.4205 62.959 46.8079 62.0668 46.8298 61.129V61.127Z" fill="white"/>
<path d="M103.855 61.0625C103.855 62.47 103.437 63.8456 102.655 65.016C101.874 66.1864 100.763 67.099 99.4629 67.6387C98.1631 68.1785 96.7325 68.3212 95.3517 68.0488C93.9708 67.7765 92.7016 67.1012 91.7041 66.1083C90.7065 65.1154 90.0254 63.8494 89.7466 62.4698C89.4679 61.0902 89.6039 59.659 90.1376 58.3567C90.6713 57.0544 91.5788 55.9393 92.7455 55.1521C93.9122 54.3649 95.2859 53.9409 96.6934 53.9336C98.5882 53.93 100.407 54.6788 101.75 56.0156C103.093 57.3524 103.85 59.1676 103.855 61.0625ZM100.291 61.0625C100.286 60.3574 100.072 59.6696 99.6763 59.0862C99.2802 58.5029 98.7199 58.0502 98.0663 57.7857C97.4127 57.5212 96.6952 57.4567 96.0049 57.6004C95.3146 57.7441 94.6825 58.0895 94.1887 58.5929C93.695 59.0963 93.3618 59.7349 93.2314 60.4279C93.101 61.1208 93.1793 61.8369 93.4564 62.4853C93.7334 63.1337 94.1968 63.6852 94.7876 64.07C95.3785 64.4547 96.0703 64.6554 96.7754 64.6465C97.7144 64.6266 98.6082 64.2397 99.2654 63.5686C99.9225 62.8976 100.291 61.9959 100.291 61.0567V61.0625Z" fill="white"/>
<path d="M32.5605 93.209C31.1493 93.2082 29.77 92.7892 28.5968 92.0048C27.4236 91.2205 26.5092 90.106 25.9692 88.8022C25.4291 87.4984 25.2876 86.0637 25.5626 84.6795C25.8375 83.2954 26.5165 82.0237 27.5139 81.0253C28.5112 80.0268 29.7821 79.3464 31.166 79.07C32.5499 78.7935 33.9847 78.9334 35.2891 79.4721C36.5935 80.0107 37.709 80.9238 38.4946 82.0962C39.2803 83.2685 39.7008 84.6474 39.7031 86.0586C39.7021 87.9533 38.9495 89.7703 37.6104 91.1108C36.2714 92.4513 34.4553 93.2059 32.5605 93.209ZM32.4121 89.6348C33.1186 89.6691 33.8193 89.4927 34.4253 89.128C35.0313 88.7632 35.5153 88.2267 35.8157 87.5863C36.1161 86.946 36.2195 86.2309 36.1127 85.5317C36.0059 84.8325 35.6937 84.1808 35.2157 83.6594C34.7378 83.138 34.1157 82.7704 33.4285 82.6033C32.7412 82.4362 32.0198 82.477 31.3558 82.7207C30.6918 82.9644 30.1152 83.4 29.6992 83.972C29.2833 84.5441 29.0467 85.2268 29.0195 85.9336C28.9915 86.8709 29.3304 87.7821 29.964 88.4733C30.5976 89.1645 31.4759 89.5813 32.4121 89.6348Z" fill="white"/>
<path d="M107.473 78.9317C108.884 78.9386 110.262 79.3638 111.431 80.1533C112.601 80.9429 113.511 82.0615 114.045 83.3678C114.579 84.674 114.714 86.1094 114.433 87.4924C114.152 88.8754 113.467 90.144 112.465 91.138C111.463 92.132 110.189 92.8067 108.804 93.0769C107.419 93.3471 105.985 93.2006 104.683 92.656C103.381 92.1114 102.269 91.193 101.489 90.0171C100.709 88.8411 100.295 87.4602 100.299 86.0489C100.308 84.1542 101.068 82.3404 102.413 81.0059C103.758 79.6715 105.578 78.9254 107.473 78.9317ZM107.461 82.5C106.753 82.4896 106.059 82.6897 105.465 83.075C104.872 83.4602 104.406 84.0132 104.128 84.6637C103.849 85.3141 103.771 86.0327 103.901 86.7281C104.032 87.4234 104.367 88.0642 104.863 88.5689C105.359 89.0736 105.994 89.4195 106.686 89.5626C107.379 89.7057 108.099 89.6396 108.755 89.3726C109.41 89.1057 109.971 88.6499 110.367 88.0633C110.762 87.4767 110.975 86.7857 110.977 86.0782C110.973 85.1411 110.603 84.2427 109.946 83.5743C109.29 82.9059 108.398 82.5204 107.461 82.5Z" fill="white"/>
<path d="M68.7655 102.141C62.5312 102.141 56.2968 102.141 50.0624 102.141C49.1991 102.141 48.4296 102.039 47.9589 101.205C47.4589 100.32 47.8144 99.5918 48.3183 98.8379C52.0539 93.2493 55.7746 87.6504 59.4804 82.041C60.0937 81.1113 60.8085 80.6738 61.9472 80.6738C67.1789 80.7155 72.4114 80.7155 77.6444 80.6738C78.8163 80.6738 79.5741 81.0801 80.1444 82.123C83.2304 87.7559 86.3632 93.3613 89.4706 98.9824C90.4765 100.803 89.6815 102.107 87.58 102.107C81.3078 102.132 75.0364 102.143 68.7655 102.141ZM52.8944 98.502H85.039C84.9882 98.338 84.9269 98.1775 84.8554 98.0215C82.4296 93.6387 80.0155 89.25 77.539 84.8945C77.3437 84.5645 76.7304 84.3086 76.3085 84.3086C72.0116 84.2656 67.7011 84.3086 63.3983 84.2637C62.6054 84.2637 62.1405 84.4785 61.6991 85.1563C58.9999 89.291 56.246 93.3887 53.5136 97.5C53.3104 97.8008 53.1327 98.1113 52.8944 98.502Z" fill="url(#paint2_linear_320_647)"/>
<defs>
<linearGradient id="paint0_linear_320_647" x1="23.6582" y1="66.4429" x2="119.021" y2="60.0452" gradientUnits="userSpaceOnUse">
<stop stop-color="#F9F295"/>
<stop offset="0.348958" stop-color="#E0AA3E"/>
<stop offset="0.703125" stop-color="#FAF398"/>
<stop offset="1" stop-color="#B88A44"/>
</linearGradient>
<linearGradient id="paint1_linear_320_647" x1="30.7979" y1="52.1347" x2="110.953" y2="43.6798" gradientUnits="userSpaceOnUse">
<stop stop-color="#F9F295"/>
<stop offset="0.348958" stop-color="#E0AA3E"/>
<stop offset="0.703125" stop-color="#FAF398"/>
<stop offset="1" stop-color="#B88A44"/>
</linearGradient>
<linearGradient id="paint2_linear_320_647" x1="47.7178" y1="102.141" x2="91.1323" y2="99.2725" gradientUnits="userSpaceOnUse">
<stop stop-color="#F9F295"/>
<stop offset="0.348958" stop-color="#E0AA3E"/>
<stop offset="0.703125" stop-color="#FAF398"/>
<stop offset="1" stop-color="#B88A44"/>
</linearGradient>
</defs>
</svg>
