<svg width="140" height="140" viewBox="0 0 140 140" fill="none" xmlns="http://www.w3.org/2000/svg">
<path d="M36.7363 30.0137C36.7363 28.752 36.7129 27.6426 36.7363 26.5352C36.7314 24.774 37.4263 23.083 38.6682 21.8341C39.9101 20.5853 41.5972 19.8809 43.3584 19.876C45.1196 19.8711 46.8106 20.566 48.0595 21.8079C49.3083 23.0498 50.0127 24.7369 50.0176 26.4981C50.0488 27.6348 50.0176 28.7715 50.0176 29.959H63.3594C63.3594 28.8028 63.332 27.6387 63.3594 26.4727C63.4098 24.9034 64.0147 23.4027 65.0666 22.2371C66.1185 21.0715 67.5494 20.3162 69.1053 20.1055C70.6612 19.8948 72.2414 20.2422 73.5655 21.086C74.8896 21.9298 75.8718 23.2155 76.3379 24.7149C76.527 25.455 76.6286 26.2147 76.6406 26.9785C76.6914 27.9414 76.6523 28.9102 76.6523 29.9453H89.9609C89.9609 28.8555 89.9492 27.7969 89.9609 26.7227C90.0117 22.9492 92.9277 20.0157 96.6133 20.0157C100.299 20.0157 103.207 22.9453 103.254 26.7266C103.27 27.7676 103.254 28.8086 103.254 30.0137H104.275C106.666 30.0137 109.057 29.9981 111.447 30.0137C116.256 30.0528 119.873 33.6407 119.879 38.459C119.901 52.7285 119.901 66.9981 119.879 81.2676C119.879 82.5742 119.242 83.3399 118.205 83.3321C117.168 83.3242 116.559 82.5625 116.557 81.2442C116.557 72.39 116.557 63.5358 116.557 54.6817V53.3985H23.4258V54.4668C23.4258 71.1335 23.4258 87.8002 23.4258 104.467C23.4258 107.982 25.457 110.008 28.9824 110.01C43.9564 110.01 58.9258 110.01 73.8906 110.01C74.2031 110.01 74.5137 110.01 74.8262 110.01C75.9434 110.053 76.6719 110.742 76.6426 111.719C76.6133 112.656 75.9082 113.291 74.834 113.336C74.5918 113.346 74.3477 113.336 74.1055 113.336H29.0938C23.5469 113.34 20.0996 109.877 20.0996 104.303C20.0996 82.5358 20.0996 60.7676 20.0996 38.9981C20.0996 33.4922 23.5605 30.0137 29.041 30.0137C31.5645 30.0117 34.0859 30.0137 36.7363 30.0137ZM50.0391 33.3692C50.0391 34.4317 50.0391 35.3965 50.0391 36.3614C50.0176 40.3789 47.1543 43.3614 43.3437 43.3418C39.5859 43.3223 36.7539 40.3399 36.7344 36.3789C36.7344 35.3867 36.7344 34.3946 36.7344 33.3457C33.9629 33.3457 31.334 33.3457 28.7031 33.3457C25.5332 33.3594 23.4395 35.459 23.4297 38.6446C23.4199 42.1172 23.4297 45.5879 23.4297 49.0606C23.4297 49.3594 23.4668 49.6582 23.4863 49.9239H116.564C116.564 45.9512 116.602 42.0625 116.551 38.1758C116.52 35.7481 114.688 33.584 112.275 33.4336C109.316 33.2383 106.338 33.3887 103.264 33.3887C103.264 34.4707 103.273 35.5039 103.264 36.5352C103.225 40.3926 100.334 43.3457 96.6016 43.3399C92.8691 43.334 89.9961 40.3731 89.9609 36.5137C89.9609 35.4844 89.9609 34.4531 89.9609 33.418H76.6406C76.6406 34.5899 76.666 35.7051 76.6406 36.8125C76.5879 38.75 75.8594 40.4102 74.3828 41.6641C72.2656 43.4629 69.8555 43.8828 67.3086 42.7422C64.7617 41.6016 63.4688 39.543 63.3594 36.7598C63.3125 35.6328 63.3594 34.502 63.3594 33.3692H50.0391ZM40.0586 31.627C40.0586 33.2246 40.0586 34.8203 40.0586 36.416C40.0723 38.5196 41.4844 40.0235 43.4102 40.0078C45.2969 39.9922 46.6953 38.5078 46.7051 36.4649C46.7207 33.2735 46.7207 30.0834 46.7051 26.8946C46.6953 24.8555 45.2891 23.3789 43.4043 23.3574C41.4707 23.3457 40.0723 24.8379 40.0586 26.9492C40.0508 28.5039 40.0586 30.0664 40.0586 31.627ZM73.3203 31.6641C73.3203 30.0684 73.332 28.4707 73.3203 26.875C73.2988 24.8418 71.8926 23.3594 70 23.3496C68.1074 23.3399 66.6797 24.8164 66.6797 26.8496C66.6641 30.0762 66.6641 33.3041 66.6797 36.5332C66.6797 38.5449 68.1504 40.0293 70.0391 40.0078C71.8867 39.9883 73.2969 38.5215 73.3223 36.5586C73.3398 34.9278 73.3203 33.2969 73.3203 31.6641ZM93.2812 31.5938C93.2812 33.2246 93.2695 34.8555 93.2812 36.4766C93.3008 38.5059 94.7129 39.9922 96.6016 39.9922C98.4902 39.9922 99.9219 38.5117 99.9219 36.4766C99.9375 33.2487 99.9375 30.0209 99.9219 26.793C99.9199 24.8047 98.4531 23.3203 96.5625 23.3496C94.709 23.375 93.3125 24.834 93.2891 26.8047C93.2695 28.3985 93.2852 29.9981 93.2852 31.5938H93.2812Z" fill="white"/>
<path d="M98.3203 76.6778C110.148 76.6602 119.902 86.4199 119.904 98.2735C119.898 110.25 110.219 120 98.3399 120C86.2871 120 76.6602 110.324 76.6602 98.1973C76.6407 86.3809 86.3926 76.6953 98.3203 76.6778ZM98.3203 116.672C108.281 116.686 116.543 108.469 116.582 98.4864C116.623 88.3301 108.445 80.0156 98.4082 80.0137C95.9932 80.0011 93.5995 80.4662 91.3649 81.3822C89.1303 82.2983 87.099 83.6472 85.3877 85.3514C83.6765 87.0555 82.3192 89.0813 81.3938 91.3121C80.4685 93.5428 79.9935 95.9346 79.9961 98.3496C79.961 108.436 88.1836 116.66 98.3067 116.68L98.3203 116.672Z" fill="url(#paint0_linear_320_652)"/>
<path d="M40.0254 73.3418C38.9512 73.3418 37.877 73.3594 36.8047 73.3418C34.8516 73.3028 33.4492 71.9336 33.4141 70.0039C33.3815 68.3399 33.3815 66.6745 33.4141 65.0078C33.4512 63.1153 34.8281 61.7207 36.7109 61.6875C38.9277 61.6504 41.1445 61.6543 43.3613 61.6875C45.291 61.7149 46.6816 63.1211 46.7051 65.0703C46.7324 66.7005 46.7324 68.3321 46.7051 69.9649C46.6699 71.918 45.291 73.2949 43.3516 73.3399C42.2422 73.3633 41.1348 73.3418 40.0254 73.3418ZM43.3457 65.0606H36.7969V69.9434H43.3496L43.3457 65.0606Z" fill="url(#paint1_linear_320_652)"/>
<path d="M60.0059 73.3418C58.8965 73.3418 57.7871 73.3672 56.6855 73.3418C56.2501 73.3421 55.8189 73.2563 55.4167 73.0893C55.0145 72.9224 54.6493 72.6776 54.342 72.3691C54.0347 72.0605 53.7914 71.6943 53.6261 71.2914C53.4609 70.8885 53.3768 70.4569 53.3789 70.0215C53.3451 68.3574 53.3451 66.6921 53.3789 65.0254C53.416 63.084 54.8066 61.7051 56.7617 61.6855C58.944 61.6608 61.1263 61.6608 63.3086 61.6855C65.2422 61.7109 66.6289 63.1094 66.6699 65.0488C66.6986 66.6803 66.6986 68.3119 66.6699 69.9434C66.6367 71.9434 65.248 73.3066 63.2324 73.3398C62.1523 73.3574 61.0801 73.3418 60.0059 73.3418ZM56.7188 69.9238H63.2793V65.0898H56.7188V69.9238Z" fill="url(#paint2_linear_320_652)"/>
<path d="M79.9844 61.6775C81.0918 61.6775 82.2012 61.656 83.3047 61.6775C85.1836 61.7263 86.5762 63.1053 86.625 64.9861C86.6621 66.6521 86.6582 68.3181 86.625 69.9842C86.5898 71.8787 85.2207 73.2908 83.3496 73.326C81.0983 73.365 78.8464 73.365 76.5938 73.326C75.7322 73.3208 74.9073 72.9764 74.2979 72.3674C73.6884 71.7583 73.3435 70.9336 73.3379 70.072C73.2975 68.3793 73.2975 66.6788 73.3379 64.9705C73.3789 63.0857 74.7676 61.7263 76.6582 61.6795C77.7656 61.656 78.875 61.6775 79.9844 61.6775ZM76.7012 69.9529H83.2363V65.0857H76.7012V69.9529Z" fill="white"/>
<path d="M99.8826 73.3418C98.8084 73.3418 97.7342 73.3613 96.6619 73.3418C94.7186 73.3008 93.3221 71.9219 93.2889 69.9863C93.2596 68.3203 93.2537 66.6543 93.2889 64.9883C93.286 64.5524 93.37 64.1204 93.5361 63.7175C93.7022 63.3145 93.9471 62.9488 94.2562 62.6416C94.5654 62.3344 94.9328 62.092 95.3368 61.9285C95.7408 61.765 96.1734 61.6837 96.6092 61.6895C98.8227 61.6556 101.04 61.6556 103.26 61.6895C103.695 61.6851 104.127 61.7672 104.53 61.931C104.933 62.0948 105.3 62.3371 105.609 62.6438C105.918 62.9506 106.163 63.3156 106.329 63.7177C106.496 64.1198 106.581 64.551 106.58 64.9863C106.617 66.6875 106.621 68.3887 106.58 70.0879C106.57 70.9489 106.223 71.7717 105.613 72.3794C105.003 72.9871 104.179 73.3313 103.318 73.3379C102.174 73.3691 101.029 73.3398 99.8826 73.3418ZM96.6541 69.9375H103.178V65.0664H96.6541V69.9375Z" fill="white"/>
<path d="M40.0254 76.6776C41.1348 76.6776 42.2422 76.6581 43.3457 76.6776C45.2773 76.7206 46.666 78.1073 46.6992 80.0526C46.7266 81.6828 46.7266 83.3137 46.6992 84.9452C46.666 86.8983 45.293 88.3007 43.3555 88.33C41.1406 88.3612 38.9219 88.3651 36.7148 88.33C34.8418 88.2987 33.4551 86.8905 33.418 85.0097C33.3854 83.343 33.3854 81.677 33.418 80.0116C33.4512 78.0741 34.8438 76.7186 36.7969 76.6815C37.877 76.66 38.9453 76.6776 40.0254 76.6776ZM36.8066 80.0546V84.9257H43.3281V80.0546H36.8066Z" fill="white"/>
<path d="M60.0681 76.6777C61.1756 76.6777 62.2849 76.6503 63.3885 76.6777C64.2493 76.6847 65.0732 77.0287 65.6836 77.6358C66.294 78.2429 66.6424 79.0649 66.6541 79.9257C66.6971 81.6601 66.7029 83.3964 66.6541 85.1308C66.6375 85.9745 66.2937 86.7788 65.6953 87.3739C65.097 87.9689 64.2909 88.3083 63.4471 88.3203C61.1619 88.3697 58.8754 88.3697 56.5877 88.3203C55.7442 88.3073 54.9386 87.9676 54.3405 87.3728C53.7423 86.7779 53.3983 85.9742 53.3806 85.1308C53.3299 83.3964 53.3357 81.6581 53.3806 79.9238C53.3894 79.063 53.7364 78.2403 54.3467 77.6333C54.957 77.0262 55.7816 76.6837 56.6424 76.6796C57.781 76.6503 58.9256 76.6777 60.0681 76.6777ZM63.2674 84.9667V80.0585H56.7498V84.9667H63.2674Z" fill="white"/>
<path d="M40.0703 103.34C38.9961 103.34 37.9219 103.355 36.8496 103.34C34.8437 103.307 33.4414 101.93 33.4121 99.9414C33.3874 98.3099 33.3874 96.679 33.4121 95.0488C33.4453 93.0957 34.8262 91.7109 36.7695 91.6855C38.9531 91.6569 41.1354 91.6569 43.3164 91.6855C45.3047 91.7109 46.6797 93.1152 46.707 95.1309C46.7279 96.7259 46.7279 98.3223 46.707 99.9199C46.6777 101.93 45.2988 103.303 43.2949 103.342C42.2188 103.357 41.1445 103.34 40.0703 103.34ZM43.3203 99.9902V95.082H36.8164V99.9902H43.3203Z" fill="white"/>
<path d="M60.014 103.338C58.9065 103.338 57.7972 103.363 56.6936 103.338C54.8128 103.289 53.4163 101.906 53.3733 100.031C53.3382 98.3301 53.3323 96.6289 53.3733 94.9297C53.3764 94.0653 53.7225 93.2375 54.3356 92.6281C54.9486 92.0187 55.7785 91.6776 56.6429 91.6797C58.8942 91.6406 61.1455 91.6406 63.3968 91.6797C64.2587 91.6822 65.0848 92.0248 65.6955 92.633C66.3063 93.2412 66.6523 94.0658 66.6585 94.9277C66.7015 96.6602 66.7073 98.3984 66.6585 100.133C66.6365 100.975 66.2905 101.777 65.6925 102.371C65.0944 102.965 64.2903 103.306 63.4476 103.322C62.3011 103.371 61.1565 103.338 60.014 103.338ZM63.2601 99.9707V95.0645H56.7581V99.9707H63.2601Z" fill="white"/>
<path d="M76.7014 80.0077V84.912C76.8967 84.994 77.1174 85.0722 77.3245 85.1776C78.1057 85.5683 78.4573 86.2206 78.2502 87.0604C78.0432 87.9003 77.4397 88.3241 76.5686 88.3358C74.9573 88.3593 73.4163 86.9511 73.3518 85.2597C73.2795 83.4218 73.2776 81.578 73.3518 79.7401C73.3916 78.9317 73.7359 78.1682 74.3157 77.6033C74.8954 77.0384 75.6676 76.714 76.4768 76.6952C78.7268 76.6405 80.9807 76.6601 83.2327 76.6952C84.2815 76.7089 84.9788 77.4413 84.9573 78.3866C84.9358 79.3319 84.2307 79.996 83.1604 80.0097C81.0491 80.0253 78.9358 80.0077 76.7014 80.0077Z" fill="white"/>
<path d="M94.8929 104.479C96.1448 103.186 97.1898 102.08 98.2601 101.002C101.295 97.954 104.33 94.9117 107.366 91.8752C107.576 91.6447 107.805 91.4323 108.051 91.2405C108.807 90.7092 109.565 90.7541 110.211 91.4104C110.823 92.0315 110.869 92.7639 110.385 93.4944C110.202 93.7468 109.994 93.9798 109.764 94.1897C105.384 98.5842 101.002 102.976 96.6175 107.365C95.2991 108.684 94.6058 108.688 93.3089 107.389C91.2015 105.281 89.0706 103.197 87.0159 101.037C86.6136 100.614 86.2718 99.8655 86.3284 99.3205C86.4671 97.9534 88.1194 97.5256 89.1859 98.5569C90.8304 100.147 92.4319 101.781 94.0394 103.408C94.3069 103.678 94.5159 104.004 94.8929 104.479Z" fill="url(#paint3_linear_320_652)"/>
<defs>
<linearGradient id="paint0_linear_320_652" x1="76.6602" y1="120" x2="121.308" y2="118.502" gradientUnits="userSpaceOnUse">
<stop stop-color="#F9F295"/>
<stop offset="0.348958" stop-color="#E0AA3E"/>
<stop offset="0.703125" stop-color="#FAF398"/>
<stop offset="1" stop-color="#B88A44"/>
</linearGradient>
<linearGradient id="paint1_linear_320_652" x1="33.3896" y1="73.3508" x2="47.1537" y2="72.8229" gradientUnits="userSpaceOnUse">
<stop stop-color="#F9F295"/>
<stop offset="0.348958" stop-color="#E0AA3E"/>
<stop offset="0.703125" stop-color="#FAF398"/>
<stop offset="1" stop-color="#B88A44"/>
</linearGradient>
<linearGradient id="paint2_linear_320_652" x1="53.3535" y1="73.3531" x2="67.1196" y2="72.8248" gradientUnits="userSpaceOnUse">
<stop stop-color="#F9F295"/>
<stop offset="0.348958" stop-color="#E0AA3E"/>
<stop offset="0.703125" stop-color="#FAF398"/>
<stop offset="1" stop-color="#B88A44"/>
</linearGradient>
<linearGradient id="paint3_linear_320_652" x1="86.3223" y1="108.359" x2="111.478" y2="107.179" gradientUnits="userSpaceOnUse">
<stop stop-color="#F9F295"/>
<stop offset="0.348958" stop-color="#E0AA3E"/>
<stop offset="0.703125" stop-color="#FAF398"/>
<stop offset="1" stop-color="#B88A44"/>
</linearGradient>
</defs>
</svg>
