<svg width="140" height="140" viewBox="0 0 140 140" fill="none" xmlns="http://www.w3.org/2000/svg">
<path d="M23.1916 90.199H20.0002C19.9464 87.5385 20.2525 84.8829 20.9103 82.3045C21.3479 80.542 21.8919 78.8077 22.5392 77.1111C24.2033 72.7849 25.9396 68.4861 27.674 64.1873C28.8947 61.1619 31.1076 59.3045 34.3674 58.9353C37.7931 58.5564 40.4592 59.9431 42.3029 62.8533C44.1922 65.8337 46.0575 68.8285 47.8986 71.8377C48.0281 72.0843 48.2188 72.2936 48.4524 72.4454C48.6859 72.5973 48.9546 72.6866 49.2326 72.7048C51.465 72.9744 53.6896 73.3201 55.9123 73.6619C58.633 74.0798 60.4748 76.3591 60.301 79.0564C60.1291 81.7087 57.9455 83.7439 55.1818 83.7615C51.0803 83.7869 46.9787 83.7615 42.8771 83.7791C41.9592 83.7791 41.3596 83.4138 40.9611 82.5955C40.1968 80.9655 39.3359 79.3826 38.383 77.8552C37.6213 82.0212 36.8615 86.1892 36.0744 90.4959L32.9103 89.947C33.301 87.7478 33.6916 85.6111 34.0822 83.4744C34.7482 79.8025 35.4279 76.1345 36.0783 72.4587C36.2287 71.6033 36.6213 70.9939 37.5041 70.865C38.3869 70.7361 38.9357 71.2556 39.3107 72.0173C40.592 74.6091 41.9006 77.1853 43.1623 79.7849C43.4318 80.3416 43.7482 80.5662 44.381 80.5525C47.8752 80.5193 51.3693 80.5408 54.8635 80.5349C56.1779 80.5349 56.9885 79.8845 57.0646 78.8123C57.1369 77.7947 56.4592 77.0369 55.2072 76.8416C52.6857 76.4509 50.1642 76.0603 47.6349 75.742C46.7385 75.6287 46.1857 75.2048 45.7287 74.4627C43.758 71.2556 41.7267 68.0837 39.7658 64.8709C38.6115 62.9763 37.0314 61.9119 34.7834 62.1365C32.6076 62.3552 31.3185 63.6814 30.5431 65.6521C28.9084 69.8552 27.2267 74.033 25.5529 78.2029C24.0246 82.0193 23.2237 86.088 23.1916 90.199Z" fill="url(#paint0_linear_320_733)"/>
<path d="M107.075 89.9495L103.909 90.5178C103.504 88.3362 103.11 86.2327 102.725 84.1252C102.34 82.0178 101.977 79.9631 101.569 77.6995C101.392 77.9383 101.228 78.1861 101.077 78.4416C100.368 79.8531 99.6657 81.2678 98.9691 82.6858C98.8239 83.0264 98.5772 83.314 98.2627 83.5094C97.9481 83.7047 97.581 83.7984 97.2113 83.7776C93.0121 83.7678 88.8129 83.8049 84.6136 83.758C83.3565 83.7 82.1657 83.1773 81.2721 82.2912C80.3784 81.4051 79.8457 80.2187 79.7771 78.9621C79.7085 77.7055 80.1089 76.4682 80.9008 75.4901C81.6927 74.5119 82.8195 73.8627 84.0629 73.6682C86.2894 73.3498 88.5121 72.9827 90.7445 72.7248C91.4496 72.6448 91.7992 72.3108 92.1351 71.7659C93.9359 68.8479 95.7679 65.9494 97.5707 63.0334C99.4261 60.0315 102.094 58.5412 105.608 58.9319C108.953 59.2971 111.166 61.2405 112.381 64.3577C114.405 69.553 116.514 74.7092 118.436 79.9514C119.621 83.1916 119.989 86.6194 120.016 90.1526H116.875C116.727 88.6487 116.717 87.0901 116.395 85.6018C115.862 83.1467 115.299 80.6721 114.442 78.3205C112.862 73.9983 111.049 69.7639 109.364 65.4846C108.606 63.5705 107.289 62.3596 105.213 62.1389C103.053 61.9143 101.465 62.8655 100.33 64.6916C98.3324 67.9221 96.2992 71.1369 94.3148 74.3694C93.8226 75.1741 93.2328 75.6369 92.2562 75.758C89.7172 76.0666 87.2054 76.4631 84.6839 76.8557C83.5121 77.0393 82.8519 77.8108 82.9261 78.8088C82.9945 79.8577 83.7855 80.5334 85.0179 80.5373C88.5785 80.5491 92.141 80.5217 95.7015 80.5588C96.3304 80.5588 96.5785 80.2912 96.8207 79.7952C98.0785 77.2307 99.3754 74.6858 100.633 72.1213C101.024 71.3303 101.526 70.7366 102.477 70.8694C103.428 71.0022 103.768 71.6682 103.926 72.5549C104.94 78.3108 106 84.0627 107.075 89.9495Z" fill="url(#paint1_linear_320_733)"/>
<path d="M55.4702 116.055H52.3159C52.2796 115.8 52.2568 115.544 52.2476 115.287C52.2964 112.357 52.107 109.406 52.4663 106.52C52.937 102.73 56.3198 99.9824 60.1441 99.9551C66.6948 99.9082 73.2469 99.9082 79.8003 99.9551C81.8947 99.9774 83.897 100.82 85.3779 102.301C86.8588 103.782 87.7003 105.784 87.7222 107.879C87.7691 110.57 87.732 113.262 87.732 116.027H84.5093V114.961C84.5093 112.639 84.5347 110.314 84.4995 107.992C84.4605 105.281 82.3902 103.191 79.6851 103.18C73.2346 103.155 66.7834 103.155 60.3316 103.18C57.5718 103.189 55.5073 105.287 55.4781 108.063C55.4527 110.387 55.4781 112.709 55.4781 115.031L55.4702 116.055Z" fill="white"/>
<path d="M60.3167 87.8888C60.0335 81.7521 64.4183 78.0705 68.5081 77.422C74.0394 76.5451 79.3636 80.7755 79.641 86.4201C79.7484 88.5451 79.7093 90.6544 78.7874 92.6486C77.8699 94.6507 76.2988 96.2813 74.3322 97.2725C72.3656 98.2638 70.1204 98.5569 67.9652 98.1037C63.6292 97.2111 60.4105 93.299 60.3109 88.799C60.3089 88.463 60.3167 88.1271 60.3167 87.8888ZM76.4398 87.7912C76.4398 87.5314 76.4398 87.2052 76.4398 86.8595C76.4013 85.2828 75.7898 83.7742 74.7196 82.6156C73.6495 81.457 72.194 80.7279 70.6253 80.5646C69.0385 80.4024 67.4485 80.841 66.1692 81.7938C64.8899 82.7465 64.0143 84.1443 63.7152 85.7111C63.519 86.8723 63.4743 88.054 63.5824 89.2267C63.8265 92.4982 66.6429 95.0529 69.9124 95.0861C73.2933 95.131 76.7249 92.3849 76.4456 87.7912H76.4398Z" fill="white"/>
<path d="M93.3711 67.0234L90.3769 68.1953C89.7441 66.5781 89.1133 65.0273 88.5371 63.457C88.3418 62.9375 88.0918 62.75 87.5215 62.75C75.8288 62.7695 64.1361 62.7695 52.4434 62.75C51.8574 62.75 51.6289 62.9648 51.4414 63.4727C50.8555 65.0352 50.2305 66.5977 49.6055 68.1895L46.5918 67.0176C47.5 64.7422 48.3242 62.4805 49.3262 60.3066C49.5215 59.877 50.4414 59.582 51.0332 59.5703C54.5254 59.5039 58.0215 59.5371 61.5156 59.5371H88.6406C90.2539 59.5371 90.5273 59.7207 91.1074 61.209C91.8516 63.1035 92.5898 65.0098 93.3711 67.0234Z" fill="white"/>
<path d="M58.6973 57.8692H55.3516C55.4746 55.0333 55.3223 52.1817 55.7891 49.4356C56.375 45.9434 59.7246 43.4278 63.2813 43.3809C67.75 43.3262 72.2207 43.3184 76.6875 43.3809C78.6781 43.4226 80.5808 44.2093 82.0196 45.5856C83.4585 46.9619 84.3289 48.8277 84.459 50.8145C84.5898 53.125 84.4824 55.4512 84.4824 57.8458H81.2832C81.2832 57.2403 81.2617 56.6446 81.2832 56.0489C81.6328 47.4395 80.4336 46.2657 71.8008 46.586C69.1836 46.6817 66.5586 46.5977 63.9375 46.6016C60.7148 46.6016 58.7051 48.6036 58.6953 51.8086C58.6934 53.7891 58.6973 55.7735 58.6973 57.8692Z" fill="white"/>
<path d="M78.0488 32.8692C78.0488 37.5704 75.5527 40.8321 71.3495 41.6094C66.7109 42.4669 62.1698 38.9395 61.9745 34.2012C61.9081 32.6387 61.9648 30.9981 62.3886 29.5137C63.4472 25.8321 67.2948 23.4825 70.9823 24.0176C74.9784 24.6036 77.9101 27.8087 78.0429 31.7559C78.0585 32.129 78.0488 32.5001 78.0488 32.8692ZM65.1581 32.8809C65.1581 33.1505 65.1581 33.42 65.1581 33.6895C65.1707 34.8935 65.6278 36.0504 66.4414 36.938C67.2551 37.8255 68.368 38.3811 69.5663 38.4981C70.7681 38.6121 71.9684 38.2667 72.9257 37.5314C73.8831 36.7962 74.5265 35.7257 74.7265 34.5352C74.896 33.4736 74.9059 32.3927 74.7558 31.3282C74.6593 30.6444 74.4163 29.9895 74.0433 29.4082C73.6704 28.827 73.1764 28.3331 72.595 27.9604C72.0137 27.5876 71.3587 27.3448 70.6748 27.2485C69.991 27.1522 69.2944 27.2047 68.6327 27.4024C66.3417 28.0665 65.1503 29.9434 65.1523 32.8907L65.1581 32.8809Z" fill="white"/>
<path d="M39.3887 41.7481C40.4583 41.7454 41.5178 41.9551 42.5058 42.3649C43.4938 42.7748 44.3906 43.3767 45.1442 44.1357C45.8979 44.8948 46.4933 45.7959 46.8961 46.7868C47.2989 47.7777 47.5009 48.8387 47.4906 49.9082C47.4803 50.9778 47.2577 52.0347 46.8359 53.0176C46.414 54.0005 45.8012 54.89 45.0331 55.6343C44.2649 56.3786 43.3566 56.9631 42.3609 57.3537C41.3652 57.7444 40.3018 57.9336 39.2324 57.9102C34.8418 57.8751 31.2656 54.2305 31.2735 49.8008C31.2822 47.657 32.1421 45.6044 33.6638 44.0943C35.1856 42.5842 37.2448 41.7403 39.3887 41.7481ZM44.1738 49.8497C44.1764 48.8962 43.897 47.9633 43.3707 47.1682C42.8444 46.3732 42.0947 45.7515 41.216 45.3815C40.3372 45.0114 39.3687 44.9095 38.4322 45.0886C37.4957 45.2676 36.633 45.7196 35.9528 46.3877C35.2725 47.0558 34.805 47.9101 34.6091 48.8432C34.4131 49.7763 34.4975 50.7466 34.8516 51.6318C35.2057 52.5171 35.8137 53.2779 36.5991 53.8185C37.3845 54.3591 38.3123 54.6553 39.2656 54.67C39.9047 54.6767 40.5387 54.5572 41.1315 54.3184C41.7243 54.0796 42.2641 53.7262 42.7201 53.2784C43.1761 52.8306 43.5392 52.2973 43.7886 51.7089C44.0381 51.1205 44.169 50.4887 44.1738 49.8497Z" fill="url(#paint2_linear_320_733)"/>
<path d="M100.684 41.7481C101.754 41.7432 102.814 41.9509 103.804 42.3592C104.793 42.7674 105.691 43.3681 106.447 44.1263C107.202 44.8845 107.799 45.7852 108.203 46.7761C108.608 47.7669 108.811 48.8283 108.802 49.8984C108.793 50.9686 108.572 52.0263 108.151 53.0102C107.73 53.9941 107.117 54.8846 106.349 55.6299C105.581 56.3752 104.673 56.9606 103.677 57.3521C102.681 57.7435 101.617 57.9333 100.547 57.9102C96.1543 57.879 92.5723 54.2384 92.5781 49.8106C92.5809 48.749 92.7928 47.6984 93.2017 46.7187C93.6106 45.7389 94.2084 44.8493 94.9611 44.1007C95.7137 43.352 96.6065 42.7589 97.5884 42.3553C98.5702 41.9516 99.622 41.7453 100.684 41.7481ZM105.479 49.7794C105.469 48.8251 105.178 47.895 104.641 47.106C104.104 46.317 103.346 45.7044 102.462 45.3455C101.578 44.9865 100.607 44.8972 99.6722 45.0887C98.7373 45.2803 97.88 45.7441 97.2082 46.4219C96.5364 47.0996 96.0802 47.961 95.8969 48.8975C95.7136 49.834 95.8115 50.8039 96.1783 51.6849C96.5451 52.5658 97.1643 53.3186 97.958 53.8484C98.7517 54.3782 99.6844 54.6614 100.639 54.6622C101.277 54.6601 101.909 54.5321 102.498 54.2855C103.087 54.0389 103.622 53.6784 104.072 53.2249C104.521 52.7713 104.877 52.2335 105.118 51.6423C105.36 51.051 105.482 50.418 105.479 49.7794Z" fill="url(#paint3_linear_320_733)"/>
<path d="M48.9937 103.203V106.35C48.6891 106.369 48.4078 106.406 48.1148 106.406C44.2867 106.406 40.4599 106.406 36.6344 106.406C35.0426 106.406 34.5113 105.875 34.4996 104.307C34.4996 104.273 34.4996 104.24 34.4996 104.207C34.1104 100.147 34.8598 96.0586 36.6637 92.4004C37.7457 90.1465 38.5191 87.7441 39.4566 85.3457L42.4312 86.5176C42.3043 86.873 42.2047 87.1777 42.0875 87.4785C40.9156 90.4492 39.8805 93.4707 38.5719 96.3691C37.568 98.5723 37.7633 100.799 37.7555 103.205L48.9937 103.203Z" fill="white"/>
<path d="M91.0137 106.393V103.191H102.25C102.107 101.17 102.572 99.2285 101.758 97.2891C100.404 94.0703 99.1934 90.7891 97.9238 87.5234C97.8047 87.2148 97.6992 86.9004 97.5605 86.5137L100.471 85.3652C100.607 85.6523 100.748 85.9043 100.852 86.1699C102.299 89.8613 103.756 93.5488 105.17 97.2539C105.368 97.8189 105.469 98.4131 105.469 99.0117C105.506 100.863 105.494 102.723 105.469 104.566C105.459 105.637 104.914 106.354 103.961 106.361C99.6738 106.414 95.3789 106.393 91.0137 106.393Z" fill="white"/>
<defs>
<linearGradient id="paint0_linear_320_733" x1="19.9941" y1="90.4959" x2="61.5915" y2="88.7126" gradientUnits="userSpaceOnUse">
<stop stop-color="#F9F295"/>
<stop offset="0.348958" stop-color="#E0AA3E"/>
<stop offset="0.703125" stop-color="#FAF398"/>
<stop offset="1" stop-color="#B88A44"/>
</linearGradient>
<linearGradient id="paint1_linear_320_733" x1="79.7695" y1="90.5178" x2="121.293" y2="88.7423" gradientUnits="userSpaceOnUse">
<stop stop-color="#F9F295"/>
<stop offset="0.348958" stop-color="#E0AA3E"/>
<stop offset="0.703125" stop-color="#FAF398"/>
<stop offset="1" stop-color="#B88A44"/>
</linearGradient>
<linearGradient id="paint2_linear_320_733" x1="31.2734" y1="57.9121" x2="48.0172" y2="57.3473" gradientUnits="userSpaceOnUse">
<stop stop-color="#F9F295"/>
<stop offset="0.348958" stop-color="#E0AA3E"/>
<stop offset="0.703125" stop-color="#FAF398"/>
<stop offset="1" stop-color="#B88A44"/>
</linearGradient>
<linearGradient id="paint3_linear_320_733" x1="92.5781" y1="57.9121" x2="109.329" y2="57.3468" gradientUnits="userSpaceOnUse">
<stop stop-color="#F9F295"/>
<stop offset="0.348958" stop-color="#E0AA3E"/>
<stop offset="0.703125" stop-color="#FAF398"/>
<stop offset="1" stop-color="#B88A44"/>
</linearGradient>
</defs>
</svg>
