<svg width="140" height="140" viewBox="0 0 140 140" fill="none" xmlns="http://www.w3.org/2000/svg">
<path d="M96.3672 119.922C94.6348 119.36 93.6777 118.143 93.2148 116.406C92.8242 114.967 92.2598 113.578 91.8574 112.143C91.6621 111.434 91.2969 111.276 90.6113 111.278C79.804 111.297 68.9928 111.302 58.1777 111.291C49.2546 111.291 40.3314 111.291 31.4082 111.291C26.9336 111.291 23.541 108.723 22.6191 104.621C22.4601 103.825 22.3887 103.013 22.4062 102.201C22.3945 80.717 22.3945 59.2378 22.4062 37.7638C22.4062 32.2853 25.9824 28.7365 31.4551 28.7228C33.0176 28.7228 34.5801 28.7228 36.1426 28.7228C38.793 28.7443 40.3691 30.3244 40.4062 32.9885C40.418 33.8595 40.4062 34.7287 40.4062 35.6564H89.582V34.6486C89.582 32.3049 89.5352 29.9611 89.5957 27.631C89.6973 23.7385 92.3301 20.7756 96.1465 20.1662C99.5801 19.6095 103.152 21.758 104.283 25.1486C104.577 26.1091 104.729 27.1071 104.736 28.1115C104.799 30.6056 104.756 33.1017 104.756 35.717C106.844 35.717 108.857 35.7052 110.859 35.717C111.768 35.717 112.693 35.6994 113.58 35.8576C114.614 36.0372 115.56 36.5522 116.272 37.3232C116.984 38.0942 117.423 39.0782 117.52 40.1232C117.565 40.5775 117.586 41.0339 117.58 41.4904C117.58 62.8446 117.583 84.1935 117.59 105.537C117.59 107.158 117.312 108.641 116.109 109.824C115.055 110.863 113.766 111.295 112.301 111.295C109.402 111.295 106.504 111.313 103.605 111.281C102.979 111.281 102.686 111.477 102.506 112.076C102.074 113.539 101.502 114.961 101.109 116.432C100.645 118.17 99.6836 119.381 97.9395 119.922H96.3672ZM40.4199 38.6955V68.633C40.4199 76.7202 40.4199 84.8088 40.4199 92.8986C40.4199 95.7384 38.8418 97.2912 36.002 97.299C34.2109 97.299 32.4199 97.2697 30.6289 97.3127C29.3336 97.3633 28.0984 97.8725 27.1437 98.7493C26.1889 99.626 25.5766 100.813 25.416 102.1C25.0039 105.635 27.5645 108.367 31.3281 108.367C50.7643 108.375 70.1999 108.375 89.6348 108.367C89.9121 108.367 90.1895 108.328 90.5938 108.297C89.0684 104.658 89.6172 100.92 89.6055 97.2463C89.5625 78.1447 89.556 59.0438 89.5859 39.9435V38.6955H40.4199ZM101.836 102.127V55.8752C101.823 55.5177 101.829 55.1598 101.854 54.8029C101.87 54.4556 102.019 54.1278 102.269 53.8861C102.519 53.6445 102.852 53.5072 103.199 53.5021C103.529 53.4605 103.862 53.5439 104.133 53.7359C104.403 53.928 104.592 54.2146 104.662 54.5392C104.749 54.9505 104.783 55.3713 104.762 55.7912C104.762 69.8888 104.762 83.9871 104.762 98.0861C104.762 101.477 105.117 104.91 103.875 108.197C103.865 108.221 103.896 108.258 103.93 108.344C106.859 108.344 109.818 108.385 112.773 108.322C113.863 108.299 114.531 107.512 114.637 106.416C114.672 106.061 114.664 105.701 114.664 105.346V41.7072C114.664 41.4474 114.664 41.1877 114.664 40.926C114.604 39.4162 113.85 38.6662 112.34 38.6447C111.168 38.6271 109.996 38.6447 108.824 38.6447H104.766V39.8166C104.766 42.4474 104.766 45.0783 104.766 47.7092C104.766 48.881 104.242 49.5177 103.332 49.5431C102.375 49.5685 101.844 48.9201 101.84 47.6916C101.84 45.8439 101.84 43.9963 101.84 42.0998H98.7109V102.119L101.836 102.127ZM25.3809 96.0158C26.8066 95.4924 28.1797 94.7228 29.6328 94.5177C31.5859 94.2424 33.5938 94.3927 35.5781 94.3771C37.3262 94.3615 37.4883 94.217 37.4883 92.506V57.1271C37.4883 49.1688 37.4883 41.2098 37.4883 33.2502C37.4883 31.9064 37.2305 31.6525 35.8945 31.6486C34.2995 31.6486 32.7038 31.6486 31.1074 31.6486C29.7402 31.6486 28.4727 32.0217 27.3965 32.9064C25.834 34.1877 25.334 35.881 25.3359 37.84C25.3516 56.9806 25.3555 76.1154 25.3477 95.2443C25.3457 95.5607 25.375 95.8752 25.3809 96.0158ZM92.5938 42.0861V102.135H95.6465V42.0861H92.5938ZM92.582 32.2892H101.816C101.816 30.6193 101.877 29.0295 101.801 27.4474C101.751 26.2998 101.276 25.2117 100.469 24.3947C99.6612 23.5778 98.5786 23.0904 97.4316 23.0275C95.0098 22.9045 92.8711 24.5763 92.6172 27.0314C92.4395 28.7541 92.582 30.5099 92.582 32.2892ZM92.6367 105.123C93.8828 108.928 95.0781 112.627 96.3262 116.309C96.4238 116.596 96.9316 116.99 97.1484 116.936C97.3511 116.877 97.5391 116.776 97.7 116.639C97.8609 116.502 97.9911 116.333 98.082 116.143C98.8105 114.096 99.459 112.022 100.127 109.955C100.641 108.367 101.143 106.776 101.67 105.123H92.6367ZM92.5703 39.0314H101.75V35.3459H92.5703V39.0314Z" fill="white"/>
<path d="M64.3594 86.8301C64.3594 81.6348 64.3594 76.5039 64.3418 71.373C64.3315 71.2229 64.2886 71.0768 64.2161 70.9449C64.1436 70.813 64.0432 70.6985 63.9219 70.6094C59.5104 68.0456 55.0911 65.4987 50.6641 62.9688C50.6172 62.9434 50.543 62.9688 50.3438 62.9688C50.3438 64.25 50.418 65.541 50.3086 66.8164C50.2382 67.3706 49.951 67.8742 49.5098 68.2168C49.1855 68.4355 48.4453 68.3652 48.0977 68.125C47.75 67.8848 47.4707 67.2754 47.4512 66.8184C47.3789 65.0996 47.3965 63.375 47.4375 61.6543C47.4727 60.1016 48.2188 58.9395 49.5664 58.1641C54.2695 55.4531 58.9733 52.7435 63.6777 50.0352C65.1309 49.1973 66.5742 49.2012 68.0273 50.0352C72.7005 52.7331 77.3763 55.4264 82.0547 58.1152C83.5781 58.9902 84.2832 60.293 84.2773 62.0488C84.2552 67.3431 84.2552 72.6387 84.2773 77.9355C84.2773 79.7344 83.5547 81.043 81.9961 81.9355C77.3659 84.5879 72.7441 87.25 68.1309 89.9219C66.5684 90.8262 65.0742 90.8086 63.5215 89.9063C58.9121 87.2279 54.2936 84.5658 49.666 81.9199C48.209 81.0859 47.4414 79.8672 47.416 78.1973C47.3965 76.834 47.3965 75.4668 47.416 74.0957C47.4336 73.0117 47.9785 72.375 48.8477 72.3516C49.752 72.3281 50.3203 72.9863 50.3359 74.127C50.3535 75.3926 50.2793 76.666 50.373 77.9258C50.4082 78.4043 50.6758 79.0684 51.0508 79.293C55.3613 81.832 59.7129 84.3106 64.0547 86.7988C64.1035 86.8301 64.1758 86.8145 64.3594 86.8301ZM81.3281 62.8594C81.1484 62.9262 80.9724 63.0025 80.8008 63.0879C76.4902 65.5684 72.1738 68.041 67.8848 70.5586C67.7191 70.6822 67.5822 70.8404 67.4838 71.0222C67.3853 71.204 67.3275 71.405 67.3145 71.6113C67.2773 76.4531 67.2891 81.293 67.291 86.1348C67.291 86.375 67.3281 86.6152 67.3496 86.8848C67.4712 86.8603 67.5903 86.8244 67.7051 86.7773C71.9876 84.3151 76.2708 81.8516 80.5547 79.3867C81.1797 79.0313 81.3359 78.5254 81.3359 77.8477C81.3164 74.0801 81.3262 70.3105 81.3262 66.541L81.3281 62.8594ZM79.7793 60.2344C79.4297 60.0156 79.168 59.8438 78.8945 59.6855C74.9023 57.3828 70.8867 55.0996 66.9199 52.7656C66.1387 52.3125 65.5371 52.3223 64.7715 52.7656C60.9629 55 57.125 57.1855 53.2988 59.3906C52.8613 59.6426 52.4258 59.9004 51.9121 60.1992C52.0365 60.3062 52.1669 60.406 52.3027 60.498C56.6602 63.0137 61.0137 65.5391 65.3887 68.0195C65.6602 68.1738 66.2012 68.0879 66.5039 67.916C70.7109 65.5254 74.9023 63.1035 79.0879 60.6895C79.2949 60.5625 79.4961 60.4141 79.7793 60.2344Z" fill="url(#paint0_linear_320_648)"/>
<defs>
<linearGradient id="paint0_linear_320_648" x1="47.4014" y1="90.5916" x2="85.4827" y2="89.4451" gradientUnits="userSpaceOnUse">
<stop stop-color="#F9F295"/>
<stop offset="0.348958" stop-color="#E0AA3E"/>
<stop offset="0.703125" stop-color="#FAF398"/>
<stop offset="1" stop-color="#B88A44"/>
</linearGradient>
</defs>
</svg>
