<svg width="140" height="140" viewBox="0 0 140 140" fill="none" xmlns="http://www.w3.org/2000/svg">
<path d="M78.3674 20.0918C80.2503 20.625 81.5921 21.9102 82.9241 23.2598C86.9605 27.3509 91.0269 31.4167 95.1233 35.457C95.8326 36.1249 96.3929 36.935 96.7675 37.8343C97.1421 38.7336 97.3226 39.7019 97.2971 40.6758C97.262 48.6035 97.2835 56.5293 97.2815 64.457C97.3054 64.7832 97.2903 65.111 97.2366 65.4336C97.051 66.1836 96.5393 66.6055 95.76 66.5859C94.9807 66.5664 94.4983 66.1035 94.3733 65.3301C94.3405 65.0056 94.3333 64.6791 94.3518 64.3535C94.3518 56.5879 94.3518 48.8229 94.3518 41.0586V39.7891C93.9612 39.7637 93.6116 39.7246 93.2717 39.7246C90.7053 39.7246 88.1389 39.7246 85.5706 39.7246C80.8596 39.7031 77.6799 36.541 77.6506 31.8379C77.6311 28.9512 77.6506 26.0625 77.6506 23.0312H33.6409C30.4534 23.0312 28.6174 24.8613 28.6174 28.041C28.6174 53.61 28.6174 79.1784 28.6174 104.746C28.6174 107.871 30.4651 109.725 33.5784 109.732C38.3557 109.746 43.1331 109.732 47.9085 109.748C48.3772 109.748 48.9182 109.801 49.2971 110.035C50.2366 110.621 50.0784 112.051 49.0647 112.492C48.7318 112.618 48.3774 112.677 48.0217 112.666C43.1155 112.676 38.2092 112.703 33.301 112.666C29.5276 112.637 26.5706 110.232 25.8284 106.641C25.7094 105.937 25.6616 105.223 25.6858 104.51C25.678 79.1035 25.678 53.6973 25.6858 28.291C25.6799 23.9062 27.5706 21.4316 31.8088 20.2109C31.8635 20.1953 31.9065 20.1328 31.9553 20.0918H78.3674ZM80.6878 25.3887C80.6878 27.9492 80.5667 30.5078 80.7288 33.0469C80.8499 34.9551 82.5491 36.5625 84.4905 36.6719C86.9456 36.8125 89.4143 36.7188 91.8772 36.7207C91.9085 36.7207 91.9397 36.627 91.9358 36.6348L80.6878 25.3887Z" fill="white"/>
<path d="M91.0217 111.744C90.3264 115.508 87.01 117.199 83.6311 115.703C83.5881 115.74 83.5139 115.772 83.5002 115.821C82.4768 119.592 79.1272 120.977 75.7776 119.024C74.7444 118.418 73.7131 117.805 72.6877 117.198C70.0002 119.805 66.1096 119.473 64.1799 115.809C62.7678 116.26 61.3401 116.301 59.9748 115.569C58.6096 114.836 57.7991 113.664 57.4358 112.194C53.7522 111.719 52.8303 111.051 51.7717 108.102C47.0334 108.584 43.7639 102.975 48.2815 98.2873C47.9748 98.2873 47.6155 98.1819 47.3674 98.3049C45.2502 99.3518 43.2346 99.1584 41.262 97.9319C40.4338 97.4182 39.5764 96.9553 38.7502 96.4397C37.0901 95.4084 36.5823 93.633 37.5588 91.9768C41.6695 84.982 45.803 78.0009 49.9592 71.0334C50.9358 69.3831 52.7522 68.9456 54.4358 69.885C55.4846 70.4709 56.5198 71.0803 57.5295 71.7268C59.342 72.885 60.2522 74.5745 60.2092 76.7151C60.1955 77.3655 60.3811 77.7092 60.9436 78.0041C61.5407 78.3385 62.2036 78.5386 62.886 78.5906C63.5684 78.6425 64.2539 78.545 64.8948 78.3049C65.7776 77.9827 66.6526 77.6526 67.5237 77.2834C70.0315 76.2053 72.4612 76.3459 74.7932 77.7522C75.0628 77.9231 75.3681 78.0296 75.6854 78.0635C76.0028 78.0974 76.3237 78.0577 76.6233 77.9475C77.7952 77.5901 79.0256 77.3811 80.1956 77.0041C82.2639 76.342 84.2209 76.5979 86.1604 77.469C86.9753 77.8713 87.8303 78.1868 88.7112 78.4104C89.5354 78.5881 90.4143 78.5217 91.3791 78.5686C91.3186 78.1213 91.2912 77.9123 91.258 77.7014C90.8557 75.0393 91.8596 72.9084 94.1721 71.5256C95.092 70.9768 96.0002 70.4084 96.9358 69.885C98.6233 68.9397 100.424 69.3616 101.412 71.0178C105.571 77.9853 109.708 84.9644 113.822 91.9553C114.778 93.5764 114.334 95.4241 112.721 96.3538C111.099 97.2885 109.42 98.1221 107.696 98.8498C107.123 99.092 106.297 99.0452 105.694 98.8342C104.416 98.3811 103.614 99.0881 102.703 99.7209C104.031 101.729 104.248 103.77 102.821 105.74C101.422 107.668 99.4553 108.143 97.1037 107.514C96.7932 108.912 96.1877 110.143 94.969 110.971C93.7873 111.776 92.4788 112.014 91.0217 111.744ZM72.8362 80.0784C71.6838 79.4612 70.6409 79.3518 69.5725 79.7034C68.6799 79.9963 67.7991 80.3303 66.928 80.6799C65.4983 81.2659 64.0295 81.76 62.4807 81.4807C61.2873 81.2659 60.137 80.8147 58.8811 80.4416L49.7873 95.7952L49.9299 96.0803C50.3206 96.0217 50.7463 96.0315 51.1018 95.885C53.2053 95.0823 55.3987 95.6272 56.8264 97.3459C56.9846 97.5413 57.1526 97.7112 57.3147 97.8928C60.0862 95.4573 64.5022 96.2893 65.7444 100.592C67.5354 100.442 69.0647 100.983 70.2248 102.416C71.385 103.85 71.51 105.469 71.0666 107.184C72.7776 107.649 74.0198 108.551 74.6916 110.145C75.3635 111.739 75.1194 113.242 74.3557 114.756C75.3987 115.377 76.3655 115.969 77.3479 116.535C78.5647 117.235 79.7131 117.016 80.3186 115.992C80.9241 114.969 80.5588 113.844 79.3791 113.115C78.4924 112.573 77.5686 112.09 76.7131 111.502C76.0373 111.037 75.8791 110.33 76.2952 109.612C76.7112 108.893 77.3655 108.692 78.1409 109.004C78.407 109.124 78.6636 109.265 78.9084 109.424C80.8616 110.58 82.8147 111.75 84.7678 112.895C85.9807 113.602 87.1311 113.365 87.7346 112.326C88.3381 111.287 87.9455 110.19 86.758 109.459C86.5627 109.338 86.3674 109.229 86.1721 109.114C84.1057 107.89 82.0386 106.666 79.9709 105.442C79.3127 105.051 78.883 104.465 79.1741 103.754C79.4173 103.253 79.8459 102.865 80.3694 102.674C80.7366 102.555 81.303 102.836 81.7053 103.065C84.5666 104.731 87.4104 106.428 90.26 108.115C91.9885 109.139 93.1428 109.092 93.8323 107.946C94.5452 106.774 94.0666 105.746 92.3303 104.719L85.3752 100.6C84.7053 100.209 84.0178 99.8284 83.3674 99.4026C82.5862 98.8928 82.4026 98.0842 82.8342 97.3772C83.2659 96.6702 84.0491 96.4846 84.8772 96.9006C85.1077 97.0178 85.3284 97.1584 85.551 97.2913C89.4338 99.5894 93.3173 101.888 97.2014 104.188C97.528 104.399 97.8755 104.576 98.2385 104.715C98.5312 104.815 98.8435 104.843 99.1493 104.797C99.4551 104.752 99.7455 104.634 99.9965 104.453C100.247 104.273 100.452 104.035 100.592 103.759C100.732 103.484 100.805 103.179 100.803 102.869C100.815 101.893 100.217 101.352 99.4514 100.899C93.2743 97.2528 87.1005 93.5972 80.9299 89.9319C80.803 89.8557 80.6623 89.7991 80.4944 89.717C80.3909 89.9319 80.3245 90.0745 80.2541 90.2151C80.1838 90.3557 80.1155 90.5081 80.0334 90.6487C78.9026 92.6565 77.2092 93.8284 74.8948 94.0237C72.6565 94.219 71.219 92.8948 71.1838 90.6545C71.1663 89.1604 71.2151 87.6643 71.1721 86.1721C71.1155 83.9944 71.2639 81.8811 72.8362 80.0784ZM74.2659 91.2522C74.9748 91.008 75.676 90.8772 76.258 90.5413C77.3928 89.887 77.8069 88.7834 77.9163 87.512C78.051 85.9397 79.0315 85.4436 80.4084 86.217C80.7756 86.4241 81.135 86.6467 81.4983 86.8616C87.4228 90.3681 93.3472 93.87 99.2717 97.3674C99.5862 97.553 100.074 97.7209 100.373 97.6057C100.959 97.383 101.467 96.9553 102.057 96.5823C101.35 95.383 100.676 94.2385 100 93.0979C99.092 91.5608 98.1233 90.0549 97.3088 88.469C97.1958 88.2004 97.1412 87.9109 97.1486 87.6196C97.156 87.3284 97.2253 87.042 97.3518 86.7795C97.5471 86.4299 98.2991 86.1936 98.7522 86.2502C99.1702 86.3108 99.633 86.7776 99.8811 87.1838C101.36 89.5901 102.774 92.0354 104.225 94.4573C105.047 95.8245 106.373 96.4416 107.686 95.8616C108.998 95.2815 110.158 94.4846 111.471 93.7366L98.7346 72.2405C97.633 72.8928 96.6506 73.4553 95.6877 74.0471C94.0549 75.0471 93.6604 76.5569 94.5959 78.2112C95.012 78.9456 95.4592 79.6623 95.8889 80.3889C96.592 81.5823 96.5354 82.4495 95.7209 82.9455C94.9065 83.4416 94.0862 83.1018 93.3772 81.926C93.1975 81.6252 93.0159 81.3264 92.803 80.9748C90.3889 81.9514 88.1155 81.5608 85.8674 80.553C85.3181 80.2719 84.7424 80.0455 84.1487 79.8772C83.4358 79.7151 82.6545 79.5178 81.9631 79.6487C80.2053 79.9827 78.4866 80.4573 76.7698 80.9416C75.4553 81.3147 74.3967 82.2014 74.3069 83.5549C74.1467 86.0315 74.2659 88.5276 74.2659 91.2522ZM52.6682 72.2541C52.4221 72.6448 52.2307 72.9416 52.053 73.2424L46.4416 82.7073C44.4143 86.1155 42.4143 89.5315 40.3713 92.9202C40.0041 93.5295 40.0237 93.8733 40.7014 94.1995C41.3791 94.5256 42.0452 94.9807 42.717 95.3713C44.6975 96.5334 46.137 96.178 47.2971 94.2229C49.2867 90.8739 51.2711 87.5217 53.2502 84.1663C54.4416 82.1565 55.6584 80.1604 56.8206 78.1331C57.7248 76.5549 57.3323 75.051 55.8069 74.0979C54.8166 73.4905 53.7991 72.9182 52.6682 72.2541ZM56.9651 109.182C57.2131 109.033 57.8381 108.854 58.1545 108.44C59.6441 106.487 61.0829 104.489 62.4709 102.446C63.0784 101.557 62.7854 100.479 61.9436 99.8596C61.1018 99.2405 59.9592 99.3049 59.3186 100.156C57.8108 102.149 56.3284 104.16 54.9612 106.246C54.135 107.512 55.1565 109.16 56.9573 109.182H56.9651ZM68.4123 105.666C68.3147 104.592 67.9065 103.908 67.0452 103.627C66.1116 103.311 65.3127 103.602 64.7346 104.397C63.4026 106.231 62.0725 108.069 60.7698 109.924C60.0295 110.979 60.2092 112.192 61.1428 112.838C62.0764 113.485 63.2444 113.244 64.0178 112.186C65.3199 110.406 66.6031 108.615 67.8674 106.813C68.0834 106.45 68.2633 106.068 68.4045 105.67L68.4123 105.666ZM51.385 105.11C51.5803 105.014 52.1233 104.914 52.3948 104.571C53.2561 103.523 54.0481 102.42 54.7659 101.27C55.2893 100.418 54.928 99.3479 54.1077 98.7971C53.7207 98.5192 53.2431 98.3978 52.7704 98.4572C52.2977 98.5166 51.865 98.7524 51.5588 99.1174C50.7545 100.09 50.0177 101.116 49.3538 102.19C48.5373 103.533 49.5432 105.156 51.3772 105.114L51.385 105.11ZM72.1487 111.897C72.1487 111.26 71.7698 110.608 70.9768 110.274C70.1838 109.94 69.3459 110.024 68.76 110.721C68.1311 111.46 67.5659 112.251 67.0705 113.086C66.6155 113.867 66.762 114.666 67.3831 115.322C67.6413 115.619 67.9873 115.827 68.3711 115.914C68.7548 116.002 69.1564 115.965 69.5178 115.809C70.3772 115.49 72.1174 113.033 72.1487 111.897Z" fill="url(#paint0_linear_320_646)"/>
<path d="M61.4827 58.9062H38.2834C37.9911 58.9186 37.6982 58.9134 37.4065 58.8906C37.0596 58.8717 36.7329 58.7216 36.4927 58.4705C36.2525 58.2195 36.117 57.8864 36.1135 57.539C36.0588 56.8144 36.4455 56.2871 37.1467 56.0683C37.4608 55.9912 37.7847 55.9609 38.1077 55.9785C53.6728 55.9785 69.2359 55.9785 84.7971 55.9785C85.1521 55.9598 85.5077 55.9994 85.8498 56.0957C86.5491 56.3339 86.8811 56.8769 86.8049 57.6074C86.7287 58.3379 86.2854 58.7793 85.5549 58.8867C85.2303 58.9169 84.9039 58.9234 84.5784 58.9062H61.4827Z" fill="white"/>
<path d="M61.4671 49.908H38.3597C38.0673 49.9194 37.7745 49.9142 37.4827 49.8924C36.6546 49.7928 36.0726 49.1619 36.0882 48.4041C36.1038 47.6463 36.6898 47.0486 37.5316 46.9842C37.8226 46.9627 38.1175 46.9842 38.4085 46.9842H84.5023C84.7952 46.9842 85.0882 46.9705 85.3792 46.9842C86.2444 47.0486 86.7913 47.6013 86.803 48.406C86.8148 49.2107 86.2698 49.7928 85.4261 49.8924C85.1343 49.9142 84.8415 49.9194 84.5491 49.908H61.4671Z" fill="white"/>
<path d="M49.5038 36.7754C53.203 36.7754 56.9029 36.7754 60.6034 36.7754C60.9601 36.7658 61.3171 36.7808 61.6718 36.8203C62.453 36.9317 62.8983 37.4414 62.9218 38.2012C62.9452 38.9609 62.5116 39.4844 61.7499 39.6543C61.4632 39.7059 61.1718 39.7262 60.8808 39.7149C53.3183 39.7149 45.7551 39.7149 38.1913 39.7149C37.8677 39.7256 37.5439 39.6987 37.2265 39.6348C36.9002 39.5799 36.606 39.4058 36.4007 39.1464C36.1954 38.887 36.0936 38.5606 36.1151 38.2305C36.1288 37.4746 36.5468 36.9453 37.3378 36.8242C37.6922 36.7815 38.0493 36.7652 38.4062 36.7754C42.1028 36.7728 45.802 36.7728 49.5038 36.7754Z" fill="white"/>
<defs>
<linearGradient id="paint0_linear_320_646" x1="37.0645" y1="119.906" x2="116.708" y2="115.811" gradientUnits="userSpaceOnUse">
<stop stop-color="#F9F295"/>
<stop offset="0.348958" stop-color="#E0AA3E"/>
<stop offset="0.703125" stop-color="#FAF398"/>
<stop offset="1" stop-color="#B88A44"/>
</linearGradient>
</defs>
</svg>
