<svg width="140" height="140" viewBox="0 0 140 140" fill="none" xmlns="http://www.w3.org/2000/svg">
<path d="M29.1189 74.1016V106.82H71.6326V105.703C71.6326 100.854 71.6326 96.0059 71.6326 91.1582C71.6326 90.2461 71.906 89.5273 72.8435 89.2656C73.9959 88.9414 74.9021 89.748 74.906 91.1035C74.9177 95.168 74.906 99.2305 74.906 103.293V106.883C75.9509 106.883 76.9275 106.871 77.9041 106.883C79.1853 106.902 79.8005 107.492 79.8084 108.756C79.8084 110.123 79.908 111.502 79.7244 112.846C79.1365 117.137 75.7634 120 71.3669 120C57.3591 120.009 43.3513 120.009 29.3435 120C28.7652 120 28.188 119.949 27.6189 119.846C25.7543 119.514 24.0636 118.543 22.8383 117.099C21.6129 115.655 20.9296 113.829 20.906 111.936C20.8845 110.877 20.8865 109.818 20.906 108.76C20.9275 107.492 21.5271 106.906 22.8103 106.887C23.7615 106.871 24.7127 106.887 25.8123 106.887V105.656C25.8123 94.8333 25.8123 84.0104 25.8123 73.1875C25.8123 71.2949 26.281 70.8223 28.156 70.8203H42.1638C43.5525 70.8203 44.3123 71.3945 44.3123 72.4375C44.3123 73.4805 43.5642 74.0957 42.199 74.0977C39.2042 74.0977 36.2055 74.0977 33.2029 74.0977L29.1189 74.1016ZM68.4373 116.656C74.367 117.156 77.4041 114.68 76.4119 110.238H24.1834C24.1834 110.928 24.1521 111.541 24.1834 112.152C24.3084 114.162 25.7166 116.059 27.6775 116.467C29.1775 116.771 30.7537 116.701 32.2888 116.799C32.4724 114.137 32.8084 113.404 33.9177 113.469C36.0427 113.59 35.5232 115.334 35.656 116.66H65.0037C65.2986 114.029 65.6111 113.453 66.7166 113.449C67.822 113.445 68.1736 114.039 68.4373 116.656Z" fill="white"/>
<path d="M81.1059 79.5549C78.7621 75.4904 76.5004 71.5627 74.2407 67.6408C74.0527 67.3562 73.8956 67.0524 73.7719 66.7346C73.6615 66.3934 73.6677 66.0252 73.7894 65.6879C73.9111 65.3506 74.1415 65.0634 74.4443 64.8713C74.747 64.6792 75.1051 64.5932 75.4621 64.6267C75.8191 64.6603 76.1548 64.8116 76.4164 65.0568C76.6511 65.3028 76.8485 65.5818 77.0024 65.8849C79.5258 70.256 82.044 74.6291 84.5571 79.0041C85.5141 80.6701 85.2348 81.4631 83.4574 82.1291L60.3383 90.8342C60.0864 90.9279 59.8403 91.0412 59.5219 91.176C60.5532 92.9904 61.6078 94.7346 62.5551 96.5373C63.1356 97.652 63.265 98.9472 62.9166 100.155C62.5682 101.362 61.7687 102.39 60.6837 103.024C59.5986 103.658 58.3112 103.85 57.0881 103.561C55.8651 103.272 54.8 102.524 54.1137 101.471C53.8696 101.102 53.6586 100.709 53.4379 100.326C52.5356 98.7639 51.6371 97.2014 50.7035 95.5959C50.141 95.9025 49.6469 96.1916 49.141 96.4494C46.6196 97.7267 44.2035 97.5666 41.9692 95.8088C41.5043 95.4455 41.225 95.4787 40.727 95.7092C39.7231 96.174 38.6821 96.7189 37.602 96.8498C35.3774 97.1193 33.434 95.7404 32.6938 93.6447C31.9535 91.549 32.6254 89.1525 34.5805 87.9963C35.8559 87.2404 36.4867 86.5685 36.3383 84.8967C36.143 82.7912 37.2582 81.0353 38.9809 79.7482C39.0605 79.6839 39.1455 79.6264 39.2348 79.5764C46.768 75.881 52.7582 70.0803 59.1801 64.8752C62.4653 62.2111 65.7055 59.4924 68.9653 56.799C70.35 55.6545 71.2524 55.8224 72.1684 57.3849C72.5981 58.1213 73.0395 58.8517 73.4399 59.6037C73.934 60.5392 73.7133 61.4631 72.9203 61.9338C72.1274 62.4045 71.2211 62.1681 70.6332 61.2892C70.4262 60.9826 70.2426 60.6564 69.975 60.2072L49.4672 77.1545L52.6293 82.6447C52.9535 83.2072 53.2973 83.758 53.6059 84.3303C54.102 85.2775 53.8989 86.1916 53.1137 86.674C52.2934 87.174 51.3305 86.9162 50.77 85.965C49.52 83.8517 48.309 81.715 47.0825 79.59C46.9985 79.4435 46.9028 79.3029 46.7348 79.0392L43.4008 80.9514C42.6332 81.3947 41.8539 81.8185 41.1059 82.2912C39.5219 83.2951 39.0375 85.1056 39.9477 86.7541C40.9724 88.6056 42.0271 90.4357 43.1117 92.2443C44.1215 93.924 45.9828 94.5197 47.6039 93.4435C54.3364 88.9826 62.0571 86.8459 69.4555 83.9435C73.2895 82.4416 77.1606 81.0373 81.1059 79.5549ZM53.5219 93.967C54.6489 95.9201 55.6821 97.7678 56.7602 99.5803C57.2621 100.428 58.1684 100.67 58.9575 100.264C59.6996 99.883 60.0922 98.9416 59.6684 98.1623C58.6176 96.2287 57.4828 94.342 56.3344 92.3537L53.5219 93.967ZM37.8793 89.7873C36.9028 90.4103 35.6137 90.6349 35.6782 92.0099C35.7159 92.2999 35.8167 92.578 35.9737 92.8247C36.1306 93.0714 36.3397 93.2806 36.5864 93.4377C37.7016 94.0139 38.5395 93.1486 39.4848 92.5724L37.8793 89.7873Z" fill="url(#paint0_linear_320_654)"/>
<path d="M119.092 36.4941C119.092 39.6348 119.092 42.7773 119.092 45.918C119.092 49.0586 117.036 51.1367 113.92 51.1406C107.54 51.1523 101.166 51.1523 94.7972 51.1406C91.7289 51.1406 89.6527 49.0645 89.639 46.0078C89.6253 42.9512 89.639 39.8633 89.639 36.7891C89.639 35.498 90.2582 34.752 91.2836 34.7578C92.3089 34.7637 92.9066 35.5137 92.9086 36.8086C92.9086 39.8145 92.9086 42.8184 92.9086 45.8223C92.9086 47.2891 93.4945 47.8613 94.9593 47.8633C101.231 47.8633 107.503 47.8633 113.774 47.8633C115.239 47.8633 115.815 47.2773 115.817 45.8125C115.817 39.5299 115.817 33.2474 115.817 26.9648C115.817 25.4941 115.241 24.918 113.774 24.916C107.502 24.916 101.23 24.916 94.9574 24.916C93.4847 24.916 92.9222 25.4883 92.9086 26.957C92.9086 27.8789 92.9281 28.8008 92.8988 29.7227C92.8656 30.7676 92.1996 31.459 91.2757 31.4629C90.3519 31.4668 89.6683 30.7793 89.6429 29.7344C89.6156 28.5742 89.5961 27.4102 89.6527 26.252C89.7699 23.7773 91.8128 21.6797 94.2894 21.6602C101.004 21.6081 107.719 21.6081 114.434 21.6602C117.037 21.6836 119.059 23.8828 119.082 26.5586C119.116 29.8691 119.092 33.1816 119.092 36.4941Z" fill="url(#paint1_linear_320_654)"/>
<path d="M104.348 72.4571C107.518 72.4571 110.687 72.4571 113.857 72.4571C117.027 72.4571 119.082 74.5098 119.092 77.7305C119.092 80.836 119.105 83.9434 119.092 87.0508C119.092 88.1543 118.379 88.8731 117.422 88.8496C116.5 88.8262 115.875 88.1328 115.828 87.0743C115.818 86.836 115.828 86.5977 115.828 86.3575C115.828 83.5241 115.828 80.6901 115.828 77.8555C115.828 76.3106 115.271 75.7461 113.746 75.7442C107.508 75.7442 101.27 75.7442 95.0332 75.7442C93.4863 75.7442 92.9219 76.2989 92.9199 77.8243C92.9199 84.0743 92.9199 90.3243 92.9199 96.5743C92.9199 98.1621 93.4727 98.6973 95.0937 98.6993C101.297 98.6993 107.5 98.6993 113.703 98.6993C115.287 98.6993 115.822 98.1446 115.83 96.5254C115.83 95.6719 115.814 94.8184 115.83 93.9649C115.857 92.8496 116.521 92.1368 117.484 92.1524C118.41 92.1661 119.066 92.8555 119.092 93.9102C119.117 95.0352 119.131 96.1641 119.092 97.2891C118.99 99.8282 116.943 101.938 114.42 101.957C107.74 102.008 101.06 102.008 94.3789 101.957C93.1316 101.939 91.9408 101.435 91.0606 100.551C90.1804 99.6669 89.6806 98.4739 89.668 97.2266C89.625 90.5703 89.625 83.9128 89.668 77.2539C89.6836 74.5821 91.8457 72.502 94.5508 72.4766C97.8047 72.4336 101.076 72.4571 104.348 72.4571Z" fill="white"/>
<path d="M20.9004 51.1445C20.9004 46.9427 20.9004 42.7415 20.9004 38.541C20.9004 36.9336 21.4395 36.3926 23.0488 36.3926C29.2533 36.3926 35.4583 36.3926 41.6641 36.3926C43.2676 36.3926 43.8125 36.9375 43.8125 38.541C43.8125 46.9408 43.8125 55.3392 43.8125 63.7363C43.8125 65.3418 43.2676 65.8848 41.6641 65.8848C35.4596 65.8848 29.2546 65.8848 23.0488 65.8848C21.4453 65.8848 20.9004 65.3398 20.9004 63.7363C20.8978 59.5423 20.8978 55.3451 20.9004 51.1445ZM40.4648 62.5781V39.752H24.2285V62.5781H40.4648Z" fill="white"/>
<path d="M47.086 34.7443C47.1153 26.5647 53.7403 19.9572 61.8712 20.0002C63.8105 20.0107 65.7287 20.4036 67.5159 21.1564C69.3032 21.9093 70.9244 23.0073 72.2867 24.3875C73.649 25.7678 74.7256 27.4032 75.455 29.2002C76.1844 30.9971 76.5521 32.9203 76.5372 34.8596C76.5079 42.9826 69.8321 49.5471 61.6505 49.508C53.6368 49.4592 47.0587 42.7932 47.086 34.7443ZM73.2579 34.7131C73.254 28.3986 68.088 23.2502 61.797 23.2776C60.2857 23.2832 58.7904 23.5871 57.3969 24.172C56.0033 24.7568 54.739 25.611 53.6763 26.6856C52.6137 27.7603 51.7737 29.0341 51.2045 30.4341C50.6353 31.8341 50.3481 33.3327 50.3595 34.844C50.377 41.0822 55.5352 46.2287 61.7735 46.2287C63.2854 46.2313 64.7829 45.935 66.1799 45.357C67.5769 44.7789 68.8458 43.9304 69.9138 42.8602C70.9818 41.7901 71.8277 40.5194 72.4029 39.1212C72.9782 37.723 73.2714 36.225 73.2657 34.7131H73.2579Z" fill="white"/>
<path d="M97.8205 87.1582C97.8336 85.8658 98.2292 84.6063 98.9572 83.5385C99.6853 82.4707 100.713 81.6425 101.912 81.1583C103.11 80.674 104.425 80.5555 105.69 80.8176C106.956 81.0798 108.115 81.7108 109.023 82.6312C109.93 83.5516 110.544 84.72 110.788 85.9892C111.032 87.2583 110.895 88.5713 110.394 89.7625C109.893 90.9537 109.05 91.9698 107.972 92.6826C106.893 93.3953 105.628 93.7729 104.336 93.7675C102.596 93.7546 100.932 93.0511 99.71 91.8118C98.4881 90.5724 97.8085 88.8985 97.8205 87.1582ZM107.633 87.1933C107.629 86.5458 107.433 85.914 107.069 85.378C106.706 84.8421 106.192 84.4261 105.591 84.1829C104.991 83.9397 104.332 83.8802 103.698 84.0119C103.064 84.1436 102.484 84.4606 102.03 84.9228C101.577 85.3849 101.27 85.9713 101.151 86.6077C101.031 87.244 101.102 87.9016 101.357 88.4972C101.611 89.0927 102.036 89.5993 102.579 89.9527C103.122 90.3061 103.757 90.4905 104.404 90.4824C105.267 90.4645 106.087 90.1095 106.691 89.4936C107.294 88.8777 107.633 88.0498 107.633 87.1874V87.1933Z" fill="white"/>
<path d="M104.375 34.7087C106.926 34.8377 107.606 35.1931 107.639 36.3455C107.672 37.4978 106.959 37.908 104.373 38.0798C104.373 39.6228 104.373 41.1795 104.373 42.7341C104.373 43.6755 103.965 44.3201 103.043 44.5447C102.043 44.7869 101.133 43.9978 101.11 42.8474C101.078 41.2849 101.11 39.7224 101.11 38.0994C99.7835 37.8884 97.8675 38.4763 97.8948 36.3572C97.9222 34.3279 99.7503 34.8455 101.116 34.7185C101.116 34.0525 101.088 33.4451 101.116 32.8416C101.176 31.6373 101.68 30.498 102.529 29.642C103.378 28.786 104.513 28.2735 105.717 28.2029C106.873 28.1502 108.035 28.1658 109.194 28.2029C110.231 28.2302 110.916 28.9236 110.903 29.8552C110.889 30.7869 110.196 31.4334 109.145 31.4646C108.26 31.49 107.371 31.4646 106.487 31.4646C104.899 31.4646 104.367 32.0193 104.364 33.6384C104.364 33.9802 104.375 34.3123 104.375 34.7087Z" fill="url(#paint2_linear_320_654)"/>
<path d="M88.1098 69.1779C87.018 69.1779 86.309 68.592 86.2016 67.7131C86.0961 66.8615 86.686 66.1057 87.6469 65.9084C90.281 65.3667 92.9177 64.8342 95.5571 64.3107C96.7289 64.0783 97.5864 64.5529 97.7992 65.5178C98.0258 66.5412 97.4496 67.3225 96.2153 67.5803C93.6762 68.1115 91.1371 68.6174 88.6098 69.1291C88.4445 69.157 88.2774 69.1733 88.1098 69.1779Z" fill="url(#paint3_linear_320_654)"/>
<path d="M84.9198 47.6716C84.6268 48.281 84.5077 48.6794 84.2733 48.9959C82.7421 51.0792 81.1945 53.1475 79.6307 55.2009C78.9061 56.156 77.955 56.324 77.1679 55.6931C76.3808 55.0623 76.3358 54.1775 77.0214 53.2478C78.5839 51.1449 80.1522 49.0492 81.7265 46.9607C82.1991 46.3357 82.8788 45.9724 83.5917 46.3572C84.121 46.6423 84.4882 47.2283 84.9198 47.6716Z" fill="url(#paint4_linear_320_654)"/>
<path d="M91.5058 56.0313C91.1151 56.5977 90.8944 57.129 90.5038 57.4356C88.412 59.0626 86.287 60.6485 84.1522 62.2169C83.2948 62.8477 82.3769 62.7149 81.8085 61.9649C81.2401 61.2149 81.3671 60.2481 82.2616 59.5665C84.3437 57.9805 86.4433 56.42 88.5351 54.8497C89.121 54.4044 89.8007 54.2051 90.4159 54.6661C90.83 54.9825 91.0937 55.5059 91.5058 56.0313Z" fill="url(#paint5_linear_320_654)"/>
<path d="M32.3594 49.5078C33.416 49.5078 34.4727 49.4843 35.5293 49.5078C36.586 49.5312 37.2598 50.2109 37.2559 51.1406C37.252 52.0703 36.5684 52.7539 35.5215 52.7675C33.4082 52.7949 31.2949 52.7949 29.1817 52.7675C28.1367 52.7539 27.4512 52.0624 27.4551 51.1328C27.459 50.2031 28.1406 49.5351 29.1895 49.5078C30.2383 49.4804 31.3028 49.5078 32.3594 49.5078Z" fill="white"/>
<path d="M32.3555 59.3379C31.2988 59.3379 30.2402 59.3613 29.1855 59.3379C28.1309 59.3145 27.4551 58.6367 27.4551 57.707C27.4551 56.7773 28.1387 56.0918 29.1855 56.0781C31.2988 56.0534 33.4121 56.0534 35.5254 56.0781C36.5723 56.0918 37.2559 56.7754 37.2559 57.707C37.2559 58.6387 36.5684 59.3086 35.5254 59.3379C34.4824 59.3672 33.4121 59.3379 32.3555 59.3379Z" fill="white"/>
<path d="M33.9996 46.2168C33.4137 46.2168 32.8278 46.2539 32.2614 46.2168C31.8472 46.1972 31.4566 46.0185 31.1709 45.7179C30.8853 45.4173 30.7267 45.0181 30.7282 44.6035C30.7165 44.1877 30.8693 43.784 31.1535 43.4802C31.4376 43.1763 31.8301 42.9968 32.2457 42.9805C33.402 42.9258 34.5641 42.9258 35.7203 42.9805C36.1364 42.9932 36.5306 43.1692 36.8179 43.4704C37.1052 43.7716 37.2624 44.1737 37.2555 44.5898C37.2602 45.0046 37.105 45.4053 36.822 45.7087C36.539 46.012 36.1501 46.1947 35.736 46.2188C35.1618 46.2559 34.5797 46.2148 33.9996 46.2168Z" fill="white"/>
<path d="M56.9137 34.6837C56.9137 33.1466 56.8942 31.6114 56.9137 30.0763C56.9391 28.5138 58.0719 27.7911 59.484 28.4845C62.6286 30.0294 65.7731 31.5782 68.8688 33.2189C69.3727 33.4884 69.9118 34.2462 69.9059 34.7696C69.9001 35.2931 69.3434 36.0333 68.8317 36.3048C65.736 37.9435 62.5915 39.4943 59.445 41.0372C58.0426 41.7228 56.9333 40.9845 56.9059 39.3927C56.8786 37.8009 56.9137 36.2521 56.9137 34.6837ZM60.2145 37.004L64.6872 34.7482L60.2047 32.5001L60.2145 37.004Z" fill="white"/>
<defs>
<linearGradient id="paint0_linear_320_654" x1="32.4004" y1="103.692" x2="86.795" y2="101.669" gradientUnits="userSpaceOnUse">
<stop stop-color="#F9F295"/>
<stop offset="0.348958" stop-color="#E0AA3E"/>
<stop offset="0.703125" stop-color="#FAF398"/>
<stop offset="1" stop-color="#B88A44"/>
</linearGradient>
<linearGradient id="paint1_linear_320_654" x1="89.6162" y1="51.1494" x2="120.057" y2="50.1275" gradientUnits="userSpaceOnUse">
<stop stop-color="#F9F295"/>
<stop offset="0.348958" stop-color="#E0AA3E"/>
<stop offset="0.703125" stop-color="#FAF398"/>
<stop offset="1" stop-color="#B88A44"/>
</linearGradient>
<linearGradient id="paint2_linear_320_654" x1="97.8945" y1="44.5885" x2="111.331" y2="44.2306" gradientUnits="userSpaceOnUse">
<stop stop-color="#F9F295"/>
<stop offset="0.348958" stop-color="#E0AA3E"/>
<stop offset="0.703125" stop-color="#FAF398"/>
<stop offset="1" stop-color="#B88A44"/>
</linearGradient>
<linearGradient id="paint3_linear_320_654" x1="86.1895" y1="69.1779" x2="98.1638" y2="68.225" gradientUnits="userSpaceOnUse">
<stop stop-color="#F9F295"/>
<stop offset="0.348958" stop-color="#E0AA3E"/>
<stop offset="0.703125" stop-color="#FAF398"/>
<stop offset="1" stop-color="#B88A44"/>
</linearGradient>
<linearGradient id="paint4_linear_320_654" x1="76.54" y1="56.0675" x2="85.1945" y2="55.8204" gradientUnits="userSpaceOnUse">
<stop stop-color="#F9F295"/>
<stop offset="0.348958" stop-color="#E0AA3E"/>
<stop offset="0.703125" stop-color="#FAF398"/>
<stop offset="1" stop-color="#B88A44"/>
</linearGradient>
<linearGradient id="paint5_linear_320_654" x1="81.4648" y1="62.6187" x2="91.8259" y2="62.1929" gradientUnits="userSpaceOnUse">
<stop stop-color="#F9F295"/>
<stop offset="0.348958" stop-color="#E0AA3E"/>
<stop offset="0.703125" stop-color="#FAF398"/>
<stop offset="1" stop-color="#B88A44"/>
</linearGradient>
</defs>
</svg>
