<svg width="140" height="140" viewBox="0 0 140 140" fill="none" xmlns="http://www.w3.org/2000/svg">
<path d="M20 104.543C20.8594 102.85 22.5176 103.469 24.002 103.266V101.871C24.002 85.5638 24.002 69.2572 24.002 52.9512C24.002 50.7793 24.4961 48.8281 26.0371 47.2305C27.4219 45.7813 29.127 44.9707 31.1484 44.9629C36.681 44.9421 42.2148 44.9421 47.75 44.9629C48.8066 44.9629 49.4707 45.5488 49.4766 46.4023C49.4766 47.3008 48.7988 47.8828 47.6738 47.8828C42.4329 47.8906 37.1921 47.8906 31.9512 47.8828C28.6562 47.8828 26.9414 49.5762 26.9414 52.8555C26.9414 69.293 26.9414 85.7298 26.9414 102.166V103.326H30.6523C31.4668 103.326 32.2793 103.326 33.0938 103.326C34.4336 103.326 35.0762 103.818 35.0469 104.801C35.0176 105.783 34.3789 106.252 33.0273 106.254C29.7096 106.254 26.3952 106.254 23.084 106.254C22.3516 108.988 24.084 111.484 26.8379 111.723C27.1289 111.748 27.4238 111.742 27.7168 111.742H112.287C114.859 111.742 116.557 110.543 116.975 108.371C117.102 107.717 117.051 107.029 117.086 106.25H115.635C90.7025 106.25 65.7676 106.25 40.8301 106.25C40.4081 106.269 39.9853 106.245 39.5684 106.178C38.8008 106.018 38.3633 105.482 38.4062 104.713C38.4492 103.91 38.9238 103.396 39.7734 103.346C40.1289 103.322 40.4883 103.332 40.8477 103.332H111.746C113.059 103.332 113.059 103.332 113.059 102.016C113.059 90.8177 113.059 79.6198 113.059 68.4219C113.046 68.0308 113.059 67.6394 113.098 67.25C113.207 66.4121 113.74 65.959 114.555 65.9707C115.322 65.9805 115.836 66.4219 115.945 67.2148C115.987 67.604 116.002 67.9955 115.99 68.3867C115.99 79.5846 115.99 90.7825 115.99 101.98V103.277C117.477 103.473 119.133 102.863 119.992 104.555V108.656C118.916 113.164 115.568 114.727 111.387 114.727C83.6328 114.645 55.877 114.684 28.123 114.684C27.6992 114.684 27.2754 114.699 26.8535 114.668C23.9473 114.439 21.8242 113.053 20.5859 110.385C20.3601 109.815 20.1645 109.235 20 108.645L20 104.543Z" fill="white"/>
<path d="M107.137 97.3848V53.7461H106.1C101.119 53.7461 96.1389 53.7461 91.1585 53.7461C90.7707 53.7626 90.3826 53.7192 90.0081 53.6172C89.303 53.3848 88.9768 52.8359 89.0608 52.0996C89.1448 51.3633 89.5921 50.8477 90.3304 50.8457C96.4827 50.821 102.635 50.821 108.787 50.8457C109.524 50.8457 109.975 51.334 110.078 52.0723C110.117 52.4283 110.13 52.7866 110.119 53.1445C110.119 68.0859 110.119 83.0267 110.119 97.9668C110.119 100.088 109.821 100.383 107.68 100.383H32.305C31.9794 100.395 31.6535 100.39 31.3284 100.369C30.469 100.283 29.9612 99.8242 29.8929 98.9355C29.8714 98.6445 29.8753 98.3496 29.8753 98.0566V53.1348C29.8753 52.8418 29.8753 52.5488 29.8929 52.2578C29.9847 51.3359 30.4788 50.834 31.4202 50.832C37.4736 50.8177 43.5283 50.8177 49.5843 50.832C50.5608 50.832 51.1878 51.4551 51.1663 52.3086C51.1448 53.1621 50.4847 53.748 49.4241 53.75C44.3134 53.7604 39.2028 53.7604 34.0921 53.75H32.8694V97.3848H107.137Z" fill="url(#paint0_linear_320_653)"/>
<path d="M87.9965 43.2205C87.9965 52.7909 80.6781 60.4549 70.9086 61.1131C61.9731 61.7147 53.6996 54.8787 52.3832 45.8104C51.8648 42.2879 52.4083 38.6908 53.9442 35.4786C55.4801 32.2665 57.9388 29.5852 61.0061 27.7772C64.0734 25.9692 67.61 25.1167 71.1642 25.3286C74.7183 25.5405 78.1286 26.8071 80.9594 28.9666C81.3309 29.2296 81.674 29.5307 81.9828 29.8651C82.2135 30.1037 82.3459 30.4204 82.3539 30.7522C82.3618 31.084 82.2447 31.4066 82.0258 31.6561C81.5551 32.2616 80.9086 32.4373 80.2016 32.0467C79.9241 31.8753 79.6626 31.6792 79.4203 31.4608C70.9418 24.7498 58.3129 28.9471 55.5922 39.3768C53.4438 47.619 58.6781 56.1463 66.9203 57.8377C75.4379 59.5858 83.5219 54.0389 84.8793 45.5213C85.3527 42.6453 84.9604 39.6935 83.7524 37.0409C83.6723 36.8631 83.5805 36.6912 83.5043 36.5116C83.1137 35.6034 83.35 34.8026 84.1059 34.4237C84.9067 34.033 85.7035 34.3436 86.1703 35.2967C87.4004 37.7552 88.0264 40.4716 87.9965 43.2205Z" fill="url(#paint1_linear_320_653)"/>
<path d="M70.0995 92.7127C65.4771 92.7127 60.8547 92.7127 56.2323 92.7127C53.4745 92.7127 52.1972 91.41 52.1933 88.6307C52.1933 87.3631 52.1737 86.0916 52.1933 84.824C52.2343 82.8221 53.6464 81.3846 55.6366 81.3221C56.58 81.2928 57.5253 81.2986 58.4686 81.3221C59.4647 81.3455 60.0741 81.908 60.08 82.7733C60.0858 83.6385 59.494 84.2127 58.496 84.2401C57.6815 84.2615 56.8671 84.2654 56.0546 84.2401C55.4042 84.2186 55.0956 84.4608 55.1112 85.1463C55.1386 86.4158 55.1347 87.6854 55.1112 88.9549C55.1112 89.5408 55.371 89.7869 55.9315 89.7811C56.1268 89.7811 56.3222 89.7811 56.5175 89.7811H83.6718C85.0663 89.7811 85.0682 89.7811 85.0682 88.3631C85.0682 87.3553 85.0253 86.3436 85.0819 85.3377C85.1327 84.4568 84.7597 84.2264 83.9335 84.2303C77.8475 84.2537 71.7616 84.244 65.6737 84.242C64.1483 84.242 63.4667 83.8084 63.4393 82.8221C63.412 81.8025 64.1444 81.3143 65.7011 81.3143C71.8209 81.3143 77.9406 81.3143 84.0604 81.3143C86.6249 81.3143 87.9921 82.6678 88.0038 85.2068C88.0038 86.3475 88.0038 87.4861 88.0038 88.6248C88.0038 91.4412 86.7206 92.7088 83.871 92.7108C79.2785 92.716 74.688 92.7166 70.0995 92.7127Z" fill="white"/>
<path d="M67.512 42.2149C69.8968 39.8125 72.3226 37.3672 74.7503 34.9277C76.344 33.3262 77.1214 33.3301 78.7327 34.9395C79.6292 35.8359 80.5394 36.7207 81.4183 37.6328C82.4222 38.6777 82.4241 39.6777 81.3987 40.709C77.7972 44.3262 74.1865 47.9349 70.5667 51.5352C68.6956 53.3848 66.0979 53.3672 64.2054 51.5176C62.3128 49.668 60.4651 47.8066 58.6155 45.9336C57.5608 44.8652 57.5745 43.8711 58.6351 42.7891C59.6585 41.7441 60.6897 40.7051 61.7386 39.6875C62.7874 38.6699 63.7737 38.6973 64.8108 39.6875C65.6526 40.5 66.4788 41.3281 67.3147 42.1465C67.3323 42.1738 67.3694 42.1738 67.512 42.2149ZM61.305 44.3633C63.0335 46.1211 64.7308 47.9141 66.5062 49.625C67.1312 50.2266 67.9104 50.0586 68.5198 49.4512C71.93 46.0527 75.3323 42.6426 78.6761 39.2949L76.678 37.1465C74.1175 39.707 71.5999 42.2441 69.0608 44.7637C67.8987 45.916 66.9222 45.9141 65.7737 44.7637C64.9534 43.9473 64.1624 43.1035 63.3675 42.2832L61.305 44.3633Z" fill="url(#paint2_linear_320_653)"/>
<path d="M55.7832 69.7832C55.7785 71.6214 55.2291 73.4169 54.2043 74.9429C53.1795 76.4689 51.7253 77.6568 50.0256 78.3566C48.3258 79.0564 46.4568 79.2366 44.6547 78.8744C42.8525 78.5123 41.1982 77.624 39.9007 76.3219C38.6033 75.0198 37.7209 73.3623 37.3652 71.5589C37.0095 69.7555 37.1963 67.8871 37.9022 66.1899C38.608 64.4926 39.8012 63.0427 41.3308 62.0233C42.8604 61.004 44.6579 60.461 46.4961 60.4629C48.9621 60.4722 51.3239 61.4582 53.0645 63.205C54.8051 64.9519 55.7827 67.3172 55.7832 69.7832ZM52.8535 69.8047C52.8539 68.5474 52.4819 67.3182 51.7845 66.2721C51.0871 65.226 50.0955 64.4099 48.9349 63.9266C47.7742 63.4434 46.4964 63.3147 45.2627 63.5567C44.0289 63.7988 42.8945 64.4008 42.0025 65.2869C41.1105 66.1729 40.5009 67.3032 40.2505 68.5353C40.0001 69.7673 40.1202 71.046 40.5957 72.2099C41.0711 73.3738 41.8806 74.3708 42.9219 75.0752C43.9633 75.7796 45.19 76.1599 46.4472 76.168C47.286 76.1721 48.1173 76.0106 48.8934 75.6928C49.6696 75.375 50.3754 74.907 50.9704 74.3159C51.5654 73.7247 52.0378 73.0219 52.3606 72.2478C52.6834 71.4737 52.8503 70.6434 52.8515 69.8047H52.8535Z" fill="white"/>
<path d="M80.8376 72.0352H99.1969C100.722 72.0352 101.412 72.4785 101.435 73.4629C101.459 74.4785 100.73 74.9629 99.1657 74.9629H62.5524C61.0387 74.9629 60.3415 74.5117 60.3161 73.5293C60.2907 72.5137 61.0153 72.0352 62.5837 72.0352H80.8376Z" fill="white"/>
<path d="M100.801 44.9475C103.34 44.9475 105.879 44.9338 108.418 44.9475C112.752 44.9787 115.84 47.9026 115.975 52.217C116.066 55.1096 116.01 58.008 115.992 60.9045C115.992 62.01 115.435 62.5959 114.525 62.5901C113.615 62.5842 113.084 62.0041 113.076 60.8869C113.055 58.219 113.076 55.549 113.076 52.8791C113.066 49.5862 111.367 47.8772 108.098 47.8733C103.086 47.8733 98.0728 47.8733 93.0585 47.8733C92.7987 47.8733 92.537 47.8869 92.2773 47.8733C91.3261 47.8069 90.6894 47.1701 90.7304 46.3362C90.7694 45.5334 91.3847 44.969 92.3144 44.9572C94.8534 44.9377 97.3925 44.9572 99.9316 44.9572L100.801 44.9475Z" fill="white"/>
<path d="M85.039 68.8654C80.2903 68.8654 75.5429 68.8654 70.7968 68.8654C70.4392 68.878 70.0813 68.861 69.7265 68.8147C69.4146 68.7807 69.1256 68.6346 68.9133 68.4036C68.701 68.1727 68.5798 67.8724 68.5722 67.5588C68.5058 66.8264 68.8183 66.2756 69.5351 66.0568C69.9108 65.9573 70.299 65.9132 70.6874 65.926C80.2148 65.926 89.7421 65.926 99.2694 65.926C99.6256 65.9151 99.9818 65.9479 100.33 66.0236C100.656 66.0828 100.948 66.2621 101.148 66.526C101.349 66.79 101.443 67.1195 101.412 67.4494C101.381 68.217 100.947 68.7209 100.156 68.8283C99.8006 68.8642 99.4431 68.8766 99.0859 68.8654H85.039Z" fill="white"/>
<path d="M62.916 68.8284C62.4645 68.8528 62.012 68.8528 61.5605 68.8284C60.8144 68.7444 60.3887 68.2561 60.3379 67.5393C60.2754 66.7756 60.6426 66.135 61.4121 66.0452C62.4031 65.9329 63.4036 65.9329 64.3945 66.0452C65.1621 66.1331 65.5488 66.76 65.4844 67.5295C65.4199 68.2991 64.9629 68.7698 64.1758 68.842C63.7598 68.8811 63.3359 68.842 62.916 68.842V68.8284Z" fill="white"/>
<defs>
<linearGradient id="paint0_linear_320_653" x1="29.875" y1="100.389" x2="112.576" y2="95.8877" gradientUnits="userSpaceOnUse">
<stop stop-color="#F9F295"/>
<stop offset="0.348958" stop-color="#E0AA3E"/>
<stop offset="0.703125" stop-color="#FAF398"/>
<stop offset="1" stop-color="#B88A44"/>
</linearGradient>
<linearGradient id="paint1_linear_320_653" x1="52.1924" y1="61.15" x2="89.1597" y2="59.9087" gradientUnits="userSpaceOnUse">
<stop stop-color="#F9F295"/>
<stop offset="0.348958" stop-color="#E0AA3E"/>
<stop offset="0.703125" stop-color="#FAF398"/>
<stop offset="1" stop-color="#B88A44"/>
</linearGradient>
<linearGradient id="paint2_linear_320_653" x1="57.832" y1="52.9136" x2="82.9421" y2="51.8426" gradientUnits="userSpaceOnUse">
<stop stop-color="#F9F295"/>
<stop offset="0.348958" stop-color="#E0AA3E"/>
<stop offset="0.703125" stop-color="#FAF398"/>
<stop offset="1" stop-color="#B88A44"/>
</linearGradient>
</defs>
</svg>
