<svg width="140" height="140" viewBox="0 0 140 140" fill="none" xmlns="http://www.w3.org/2000/svg">
<path d="M67.6778 20C68.3009 20.5059 68.8692 21.0391 68.5157 21.9531C68.1622 22.8672 67.4161 22.9297 66.5899 22.9297C60.8946 22.918 55.1986 22.918 49.502 22.9297C47.9669 22.9297 47.5177 23.375 47.5079 24.8828C47.5079 25.7285 47.5079 26.5742 47.5079 27.4219C47.5271 27.5542 47.5565 27.6847 47.5958 27.8125H92.3829C95.7266 27.8125 97.4161 29.502 97.4161 32.8574C97.4161 55.2533 97.4161 77.6491 97.4161 100.045V101.412C98.7696 101.412 100.065 101.512 101.336 101.379C102.256 101.285 102.508 100.5 102.508 99.6211C102.49 96.3008 102.508 92.9805 102.508 89.6602C102.494 89.303 102.519 88.9453 102.584 88.5938C102.762 87.8242 103.305 87.4102 104.07 87.4609C104.836 87.5117 105.35 87.9609 105.406 88.7637C105.455 89.4434 105.434 90.1309 105.434 90.8125C105.434 93.7422 105.445 96.6719 105.434 99.6016C105.41 102.617 103.635 104.375 100.609 104.375C99.6036 104.375 98.5958 104.375 97.418 104.375C97.418 105.352 97.418 106.27 97.418 107.197C97.4083 110.482 95.7052 112.186 92.4259 112.188H89.6036C89.6036 113.314 89.6153 114.348 89.6036 115.381C89.5665 118.205 87.7618 119.998 84.9298 119.998C67.8399 119.998 50.7507 119.998 33.6622 119.998C30.7716 119.998 28.9747 118.207 28.9591 115.311C28.9434 109.939 28.9591 104.568 28.9591 99.1973C28.9489 98.9361 28.9626 98.6746 29.0001 98.416C29.129 97.7207 29.5997 97.2148 30.2618 97.3086C30.7852 97.3809 31.3458 97.7734 31.713 98.1816C31.9415 98.4375 31.879 98.9883 31.8809 99.4043C31.8888 104.613 31.8888 109.821 31.8809 115.029C31.8809 116.625 32.3204 117.064 33.8966 117.064H84.6778C86.2403 117.064 86.6739 116.621 86.6739 115.01C86.6739 97.4316 86.6739 79.8535 86.6739 62.2754C86.655 61.8212 86.6937 61.3664 86.7891 60.9219C86.8594 60.5974 87.0505 60.3119 87.3237 60.1233C87.5968 59.9346 87.9315 59.857 88.2598 59.9062C88.9708 59.9668 89.4708 60.3828 89.5645 61.1387C89.5992 61.5283 89.6103 61.9196 89.5977 62.3105C89.5977 77.5124 89.5977 92.7129 89.5977 107.912V109.236C90.8712 109.236 92.0391 109.289 93.1973 109.215C93.9102 109.17 94.3692 108.693 94.4532 107.941C94.4773 107.65 94.4858 107.357 94.4786 107.064C94.4786 82.36 94.4786 57.6543 94.4786 32.9473C94.4786 32.7852 94.4786 32.6211 94.4786 32.459C94.4415 31.2539 93.9454 30.7441 92.7364 30.7402C89.0255 30.7305 85.3145 30.7402 81.6036 30.7402H41.8751C40.0841 30.7402 39.7071 31.1172 39.7032 32.9102C39.7032 33.7812 39.7032 34.6504 39.7032 35.623H84.588C87.8848 35.623 89.5997 37.3164 89.6036 40.5859C89.6036 45.3385 89.6036 50.0911 89.6036 54.8438C89.6154 55.1365 89.6037 55.4298 89.5684 55.7207C89.4473 56.457 88.9981 56.8789 88.254 56.9297C87.5098 56.9805 86.9845 56.6328 86.7872 55.9141C86.7004 55.5344 86.6643 55.145 86.6798 54.7559C86.6798 50.0358 86.6798 45.3158 86.6798 40.5957C86.6798 38.9961 86.2423 38.5547 84.67 38.5547H33.8868C32.3243 38.5547 31.8829 38.9941 31.8829 40.6016C31.8829 57.6888 31.8829 74.7773 31.8829 91.8672C31.9031 92.2891 31.8789 92.712 31.8106 93.1289C31.6485 93.8965 31.1309 94.3008 30.338 94.2695C29.545 94.2383 29.0763 93.791 28.9845 92.998C28.9558 92.6734 28.9466 92.3473 28.9571 92.0215C28.9571 74.9336 29.002 57.8418 28.918 40.7559C28.9024 37.3516 31.213 35.3496 34.0997 35.6133C34.9376 35.6895 35.7852 35.625 36.7696 35.625C36.7696 34.6348 36.7696 33.7012 36.7696 32.7695C36.7696 29.5371 38.4884 27.8164 41.6954 27.8125H44.5821C44.5821 27.0625 44.6388 26.3574 44.5704 25.6641C44.3028 22.9297 45.3419 21.002 47.9552 20L67.6778 20Z" fill="white"/>
<path d="M107.715 20C108.056 20.168 108.406 20.3203 108.736 20.5059C110.213 21.3359 111.066 22.584 111.08 24.2969C111.099 29.3398 111.099 34.3841 111.08 39.4297C111.08 41.3418 110.269 42.8867 108.779 44.0684C108.238 44.4852 107.676 44.8724 107.093 45.2285C106.179 45.8027 105.621 46.5957 105.531 47.6777C105.482 48.293 105.431 48.9121 105.431 49.5273C105.431 60.4297 105.431 71.3327 105.431 82.2363C105.431 83.834 104.982 84.5059 103.939 84.4785C102.929 84.4512 102.502 83.793 102.502 82.2539C102.502 71.2539 102.529 60.252 102.484 49.2461C102.47 46.1914 103.427 43.793 106.23 42.291C107.613 41.5508 108.201 40.3574 108.183 38.75C108.131 34.1289 108.168 29.5059 108.162 24.8828C108.162 23.3691 107.703 22.9297 106.172 22.9297H74.24C74.0115 22.9297 73.7829 22.918 73.5564 22.9297C72.7126 22.9844 71.9568 22.8184 71.6482 21.9297C71.3396 21.041 71.8533 20.4531 72.5603 19.998L107.715 20Z" fill="white"/>
<path d="M64.6972 47.0624H78.5468C78.8726 47.0515 79.1988 47.0613 79.5234 47.0917C80.3046 47.1894 80.7656 47.6484 80.7949 48.4414C80.8281 49.2773 80.4042 49.7929 79.5683 49.9335C79.2448 49.9786 78.9182 49.9969 78.5917 49.9882C69.2949 49.9882 59.998 49.9882 50.7011 49.9882C50.2793 50.006 49.8572 49.964 49.4472 49.8632C48.7812 49.6679 48.4706 49.1406 48.4999 48.4433C48.5292 47.746 48.8906 47.2714 49.5859 47.1289C49.9382 47.0708 50.2956 47.0498 50.6523 47.0664C55.3346 47.0624 60.0162 47.0611 64.6972 47.0624Z" fill="url(#paint0_linear_320_645)"/>
<path d="M64.6643 52.922C69.4104 52.922 74.1565 52.9064 78.9026 52.9455C79.4339 52.9455 80.0979 53.1408 80.4651 53.4923C81.2014 54.1916 80.7776 55.4728 79.7854 55.7423C79.3731 55.8316 78.951 55.8671 78.5296 55.8478C69.2653 55.8478 60.0003 55.8478 50.7347 55.8478H50.4436C49.1194 55.8224 48.4749 55.3205 48.4905 54.3322C48.51 53.3771 49.1155 52.922 50.4163 52.9201C55.1689 52.9188 59.9182 52.9194 64.6643 52.922Z" fill="url(#paint1_linear_320_645)"/>
<path d="M64.6585 64.6405H78.6057C78.9622 64.6259 79.3192 64.6449 79.6722 64.6971C79.9833 64.7376 80.269 64.8903 80.4754 65.1266C80.6819 65.3629 80.7949 65.6665 80.7932 65.9803C80.8421 66.7186 80.51 67.2577 79.7932 67.4549C79.3814 67.5473 78.959 67.5841 78.5374 67.5643C69.2718 67.5643 60.0068 67.5643 50.7425 67.5643H50.4495C49.1253 67.5389 48.4807 67.0409 48.4964 66.0545C48.512 65.0682 49.1175 64.6385 50.4163 64.6366C55.165 64.6366 59.9124 64.6379 64.6585 64.6405Z" fill="url(#paint2_linear_320_645)"/>
<path d="M64.6974 70.5001C69.3849 70.5001 74.0666 70.5001 78.7424 70.5001C79.1584 70.5001 79.6896 70.4473 79.9631 70.67C80.3439 70.9805 80.7697 71.545 80.7443 71.9669C80.7072 72.4356 80.2502 72.961 79.8341 73.2754C79.549 73.4903 79.0216 73.418 78.6017 73.418C69.3049 73.4258 60.008 73.4258 50.7111 73.418C50.4826 73.418 50.2541 73.418 50.0295 73.4044C49.0236 73.3145 48.467 72.752 48.508 71.8672C48.5431 71.0294 49.0939 70.5098 50.0705 70.5001C52.3771 70.4766 54.6857 70.4903 56.9943 70.4903L64.6974 70.5001Z" fill="url(#paint3_linear_320_645)"/>
<path d="M64.6503 85.1483H50.9003C50.543 85.1598 50.1854 85.1468 49.83 85.1093C48.9511 84.9901 48.4511 84.4237 48.5038 83.6034C48.5565 82.7831 49.0468 82.3143 49.871 82.2362C50.162 82.2089 50.4569 82.2186 50.7479 82.2186H78.5448C78.8706 82.208 79.1967 82.2172 79.5214 82.246C80.3026 82.3436 80.7636 82.8026 80.7948 83.5956C80.83 84.4296 80.4042 84.9491 79.5722 85.0878C79.2182 85.136 78.8609 85.1549 78.5038 85.1444C73.884 85.1496 69.2662 85.1509 64.6503 85.1483Z" fill="url(#paint4_linear_320_645)"/>
<path d="M64.6157 91.0076C59.9985 91.0076 55.382 91.0076 50.7661 91.0076C50.3446 91.0252 49.9226 90.9891 49.5102 90.9002C48.7915 90.7049 48.4594 90.1678 48.5063 89.4276C48.5035 89.114 48.6153 88.8102 48.8206 88.5732C49.026 88.3362 49.3108 88.1823 49.6215 88.1405C49.9444 88.0898 50.2715 88.0708 50.5981 88.0838H78.684C79.0104 88.0699 79.3374 88.0869 79.6606 88.1346C80.3969 88.2733 80.7875 88.7518 80.8071 89.5018C80.8266 90.2518 80.4614 90.7537 79.7348 90.9237C79.3521 90.9977 78.9622 91.0279 78.5727 91.0135C73.9165 91.0135 69.2641 91.0115 64.6157 91.0076Z" fill="url(#paint5_linear_320_645)"/>
<path d="M64.701 99.7971C69.3495 99.7971 73.9979 99.7971 78.6463 99.7971C79.0037 99.7812 79.3618 99.8028 79.7147 99.8616C80.4002 100.012 80.8866 100.506 80.7557 101.17C80.6541 101.69 80.244 102.229 79.8202 102.576C79.5526 102.797 79.0096 102.719 78.5916 102.719C69.2922 102.727 59.9946 102.727 50.6991 102.719C50.3725 102.728 50.0458 102.709 49.7225 102.662C48.8944 102.52 48.4666 102.002 48.4998 101.168C48.533 100.373 48.9901 99.9182 49.7752 99.8206C50.0999 99.7922 50.426 99.7824 50.7518 99.7913L64.701 99.7971Z" fill="url(#paint6_linear_320_645)"/>
<path d="M64.7485 105.656H78.5005C78.8262 105.646 79.1522 105.654 79.477 105.679C80.309 105.773 80.7837 106.244 80.7973 107.088C80.811 107.931 80.3442 108.416 79.52 108.537C79.196 108.576 78.8697 108.592 78.5434 108.584H50.7505C50.5883 108.584 50.4243 108.584 50.2622 108.584C49.0903 108.537 48.4848 108.021 48.5044 107.084C48.5239 106.146 49.1098 105.664 50.3188 105.662C55.1287 105.653 59.9386 105.651 64.7485 105.656Z" fill="url(#paint7_linear_320_645)"/>
<path d="M41.1775 47.0664C41.7586 47.0647 42.3341 47.1787 42.8707 47.4016C43.4073 47.6246 43.8942 47.9521 44.3029 48.3651C44.7116 48.7782 45.0341 49.2684 45.2514 49.8073C45.4688 50.3461 45.5767 50.9229 45.5689 51.5039C45.5612 52.0849 45.4378 52.6586 45.2061 53.1915C44.9744 53.7243 44.639 54.2058 44.2193 54.6077C43.7997 55.0096 43.3043 55.324 42.7619 55.5325C42.2195 55.7411 41.6411 55.8396 41.0603 55.8223C39.9118 55.7881 38.8228 55.304 38.0281 54.4742C37.2333 53.6445 36.7965 52.5356 36.8119 51.3867C36.8273 50.2378 37.2936 49.1411 38.1103 48.3329C38.9269 47.5247 40.0285 47.0698 41.1775 47.0664ZM41.1775 52.8809C41.3697 52.882 41.5602 52.8445 41.7377 52.7706C41.9152 52.6968 42.0761 52.5881 42.2109 52.4509C42.3456 52.3138 42.4515 52.151 42.5222 51.9723C42.593 51.7935 42.6271 51.6024 42.6227 51.4102C42.6182 51.218 42.5753 51.0286 42.4964 50.8533C42.4174 50.678 42.3042 50.5203 42.1632 50.3896C42.0223 50.2588 41.8566 50.1577 41.6758 50.0921C41.4951 50.0265 41.3031 49.9979 41.1111 50.0078C40.7375 50.0272 40.3862 50.1915 40.1317 50.4657C39.8773 50.74 39.7398 51.1026 39.7484 51.4766C39.7571 51.8506 39.9112 52.2065 40.178 52.4687C40.4449 52.7309 40.8034 52.8788 41.1775 52.8809Z" fill="url(#paint8_linear_320_645)"/>
<path d="M36.773 68.9901C36.7724 68.4124 36.887 67.8405 37.1102 67.3077C37.3334 66.7749 37.6607 66.292 38.0728 65.8873C38.485 65.4826 38.9738 65.1642 39.5105 64.9508C40.0473 64.7374 40.6213 64.6332 41.1988 64.6444C42.3446 64.6753 43.4327 65.1544 44.2293 65.9786C45.0259 66.8029 45.4675 67.9067 45.4593 69.0529C45.4511 70.1992 44.9938 71.2965 44.1855 72.1093C43.3772 72.9222 42.2825 73.3856 41.1363 73.4002C40.5585 73.4032 39.986 73.2907 39.4522 73.0696C38.9184 72.8484 38.4342 72.5229 38.0278 72.1122C37.6214 71.7014 37.3011 71.2137 37.0857 70.6776C36.8702 70.1415 36.7639 69.5678 36.773 68.9901ZM41.1382 70.4588C41.3313 70.4659 41.5239 70.4341 41.7044 70.3651C41.8849 70.2961 42.0496 70.1914 42.1888 70.0573C42.3279 69.9232 42.4386 69.7625 42.5142 69.5846C42.5898 69.4068 42.6287 69.2155 42.6287 69.0223C42.6287 68.8291 42.5898 68.6378 42.5142 68.46C42.4386 68.2821 42.3279 68.1214 42.1888 67.9873C42.0496 67.8532 41.8849 67.7485 41.7044 67.6795C41.5239 67.6105 41.3313 67.5787 41.1382 67.5858C40.7664 67.5995 40.4144 67.7568 40.1562 68.0247C39.898 68.2926 39.7537 68.6502 39.7537 69.0223C39.7537 69.3944 39.898 69.752 40.1562 70.0199C40.4144 70.2878 40.7664 70.4451 41.1382 70.4588Z" fill="url(#paint9_linear_320_645)"/>
<path d="M36.7738 86.6212C36.766 86.0434 36.8737 85.4699 37.0905 84.9343C37.3073 84.3986 37.6289 83.9117 38.0364 83.502C38.4439 83.0923 38.9291 82.7681 39.4636 82.5484C39.998 82.3288 40.571 82.2181 41.1488 82.2228C42.2944 82.241 43.3873 82.7075 44.1929 83.5222C44.9985 84.3369 45.4527 85.4349 45.458 86.5806C45.4634 87.7264 45.0195 88.8286 44.2216 89.6508C43.4236 90.473 42.3352 90.9497 41.1899 90.9787C40.6121 90.9885 40.0383 90.883 39.5019 90.6683C38.9655 90.4535 38.4773 90.1339 38.0661 89.7281C37.6548 89.3222 37.3286 88.8384 37.1067 88.3049C36.8849 87.7714 36.7717 87.199 36.7738 86.6212ZM42.602 86.6037C42.5996 86.2287 42.452 85.8692 42.1901 85.6007C41.9282 85.3323 41.5725 85.1758 41.1977 85.1642C41.0091 85.1573 40.8211 85.1876 40.6443 85.2533C40.4675 85.319 40.3053 85.419 40.1671 85.5474C40.0289 85.6758 39.9174 85.8302 39.8388 86.0017C39.7603 86.1732 39.7163 86.3585 39.7094 86.547C39.7025 86.7355 39.7327 86.9236 39.7985 87.1004C39.8642 87.2772 39.9641 87.4394 40.0926 87.5776C40.221 87.7158 40.3753 87.8273 40.5468 87.9058C40.7184 87.9844 40.9037 88.0284 41.0922 88.0353C41.2862 88.0434 41.4799 88.0125 41.6618 87.9443C41.8436 87.8761 42.0099 87.772 42.1507 87.6383C42.2915 87.5045 42.4041 87.3439 42.4816 87.1658C42.5591 86.9877 42.6 86.7959 42.602 86.6017V86.6037Z" fill="url(#paint10_linear_320_645)"/>
<path d="M36.7733 104.227C36.7619 103.649 36.8659 103.075 37.0792 102.538C37.2925 102.001 37.6109 101.512 38.0157 101.1C38.4204 100.688 38.9034 100.361 39.4363 100.137C39.9692 99.9144 40.5413 99.7999 41.119 99.8008C42.2667 99.8086 43.3655 100.267 44.1789 101.076C44.9923 101.886 45.4551 102.983 45.4679 104.131C45.4808 105.278 45.0424 106.385 44.2473 107.213C43.4522 108.041 42.3639 108.523 41.2167 108.557C40.6391 108.57 40.0646 108.468 39.527 108.256C38.9893 108.045 38.4992 107.728 38.0855 107.325C37.6717 106.922 37.3425 106.44 37.1172 105.908C36.8919 105.376 36.775 104.804 36.7733 104.227ZM42.6014 104.227C42.6101 103.851 42.4722 103.487 42.217 103.211C41.9618 102.936 41.6093 102.77 41.2343 102.75C40.8623 102.74 40.5009 102.874 40.226 103.125C39.9512 103.376 39.7844 103.724 39.7606 104.095C39.7368 104.466 39.858 104.833 40.0985 105.116C40.3391 105.4 40.6804 105.58 41.0507 105.617C41.2446 105.63 41.4391 105.604 41.6227 105.54C41.8063 105.476 41.9754 105.377 42.1199 105.247C42.2644 105.117 42.3814 104.959 42.4641 104.783C42.5468 104.607 42.5935 104.417 42.6014 104.223V104.227Z" fill="url(#paint11_linear_320_645)"/>
<defs>
<linearGradient id="paint0_linear_320_645" x1="48.498" y1="49.9922" x2="77.8604" y2="39.1247" gradientUnits="userSpaceOnUse">
<stop stop-color="#F9F295"/>
<stop offset="0.348958" stop-color="#E0AA3E"/>
<stop offset="0.703125" stop-color="#FAF398"/>
<stop offset="1" stop-color="#B88A44"/>
</linearGradient>
<linearGradient id="paint1_linear_320_645" x1="48.4902" y1="55.8529" x2="77.8856" y2="44.9562" gradientUnits="userSpaceOnUse">
<stop stop-color="#F9F295"/>
<stop offset="0.348958" stop-color="#E0AA3E"/>
<stop offset="0.703125" stop-color="#FAF398"/>
<stop offset="1" stop-color="#B88A44"/>
</linearGradient>
<linearGradient id="paint2_linear_320_645" x1="48.4961" y1="67.5695" x2="77.8598" y2="56.6991" gradientUnits="userSpaceOnUse">
<stop stop-color="#F9F295"/>
<stop offset="0.348958" stop-color="#E0AA3E"/>
<stop offset="0.703125" stop-color="#FAF398"/>
<stop offset="1" stop-color="#B88A44"/>
</linearGradient>
<linearGradient id="paint3_linear_320_645" x1="48.5059" y1="73.4297" x2="77.8496" y2="62.6231" gradientUnits="userSpaceOnUse">
<stop stop-color="#F9F295"/>
<stop offset="0.348958" stop-color="#E0AA3E"/>
<stop offset="0.703125" stop-color="#FAF398"/>
<stop offset="1" stop-color="#B88A44"/>
</linearGradient>
<linearGradient id="paint4_linear_320_645" x1="48.5" y1="85.1524" x2="77.8705" y2="74.2968" gradientUnits="userSpaceOnUse">
<stop stop-color="#F9F295"/>
<stop offset="0.348958" stop-color="#E0AA3E"/>
<stop offset="0.703125" stop-color="#FAF398"/>
<stop offset="1" stop-color="#B88A44"/>
</linearGradient>
<linearGradient id="paint5_linear_320_645" x1="48.502" y1="91.017" x2="77.8783" y2="80.1557" gradientUnits="userSpaceOnUse">
<stop stop-color="#F9F295"/>
<stop offset="0.348958" stop-color="#E0AA3E"/>
<stop offset="0.703125" stop-color="#FAF398"/>
<stop offset="1" stop-color="#B88A44"/>
</linearGradient>
<linearGradient id="paint6_linear_320_645" x1="48.498" y1="102.732" x2="77.8713" y2="91.9052" gradientUnits="userSpaceOnUse">
<stop stop-color="#F9F295"/>
<stop offset="0.348958" stop-color="#E0AA3E"/>
<stop offset="0.703125" stop-color="#FAF398"/>
<stop offset="1" stop-color="#B88A44"/>
</linearGradient>
<linearGradient id="paint7_linear_320_645" x1="48.5039" y1="108.586" x2="77.8626" y2="97.7209" gradientUnits="userSpaceOnUse">
<stop stop-color="#F9F295"/>
<stop offset="0.348958" stop-color="#E0AA3E"/>
<stop offset="0.703125" stop-color="#FAF398"/>
<stop offset="1" stop-color="#B88A44"/>
</linearGradient>
<linearGradient id="paint8_linear_320_645" x1="36.8115" y1="55.8242" x2="45.8536" y2="55.5202" gradientUnits="userSpaceOnUse">
<stop stop-color="#F9F295"/>
<stop offset="0.348958" stop-color="#E0AA3E"/>
<stop offset="0.703125" stop-color="#FAF398"/>
<stop offset="1" stop-color="#B88A44"/>
</linearGradient>
<linearGradient id="paint9_linear_320_645" x1="36.7725" y1="73.4003" x2="45.7415" y2="73.1011" gradientUnits="userSpaceOnUse">
<stop stop-color="#F9F295"/>
<stop offset="0.348958" stop-color="#E0AA3E"/>
<stop offset="0.703125" stop-color="#FAF398"/>
<stop offset="1" stop-color="#B88A44"/>
</linearGradient>
<linearGradient id="paint10_linear_320_645" x1="36.7734" y1="90.9793" x2="45.7401" y2="90.6803" gradientUnits="userSpaceOnUse">
<stop stop-color="#F9F295"/>
<stop offset="0.348958" stop-color="#E0AA3E"/>
<stop offset="0.703125" stop-color="#FAF398"/>
<stop offset="1" stop-color="#B88A44"/>
</linearGradient>
<linearGradient id="paint11_linear_320_645" x1="36.7725" y1="108.558" x2="45.7506" y2="108.258" gradientUnits="userSpaceOnUse">
<stop stop-color="#F9F295"/>
<stop offset="0.348958" stop-color="#E0AA3E"/>
<stop offset="0.703125" stop-color="#FAF398"/>
<stop offset="1" stop-color="#B88A44"/>
</linearGradient>
</defs>
</svg>
